# This file uses centimeters as units for non-parametric coordinates.

mtllib nj_filler_pool_beachball_stripe.mtl
g default
v -1.252604 0.475070 2.725415
v 0.588582 0.475070 2.941164
v 2.204945 0.475070 2.033491
v 2.979090 0.475070 0.349095
v 2.615328 0.475070 -1.468644
v 1.252594 0.475070 -2.725410
v -0.588584 0.475070 -2.941163
v -2.204947 0.475070 -2.033490
v -2.979094 0.475070 -0.349093
v -2.615332 0.475070 1.468646
v -2.382585 1.853780 5.184042
v 1.119553 1.853780 5.594425
v 4.194053 1.853780 3.867931
v 5.666574 1.853780 0.664015
v 4.974653 1.853780 -2.793530
v 2.382583 1.853780 -5.184041
v -1.119556 1.853780 -5.594423
v -4.194062 1.853780 -3.867924
v -5.666576 1.853780 -0.664014
v -4.974655 1.853780 2.793530
v -3.279349 4.001169 7.135224
v 1.540932 4.001169 7.700066
v 5.772620 4.001169 5.323750
v 7.799372 4.001169 0.913938
v 6.847022 4.001169 -3.844964
v 3.279346 4.001169 -7.135221
v -1.540935 4.001169 -7.700063
v -5.772630 4.001169 -5.323743
v -7.799375 4.001169 -0.913936
v -6.847023 4.001169 3.844964
v -3.855103 6.707037 8.387957
v 1.811474 6.707037 9.051970
v 6.786122 6.707037 6.258443
v 9.168710 6.707037 1.074399
v 8.049160 6.707037 -4.520027
v 3.855101 6.707037 -8.387955
v -1.811477 6.707037 -9.051968
v -6.786128 6.707037 -6.258438
v -9.168711 6.707037 -1.074398
v -8.049159 6.707037 4.520026
v -4.053493 9.706514 8.819617
v 1.904696 9.706514 9.517804
v 7.135353 9.706514 6.580514
v 9.640552 9.706514 1.129690
v 8.463387 9.706514 -4.752638
v 4.053493 9.706514 -8.819617
v -1.904698 9.706514 -9.517802
v -7.135357 9.706514 -6.580512
v -9.640553 9.706514 -1.129690
v -8.463386 9.706514 4.752636
v -3.855103 12.705993 8.387957
v 1.811474 12.705993 9.051970
v 6.786122 12.705993 6.258443
v 9.168710 12.705993 1.074399
v 8.049160 12.705993 -4.520027
v 3.855101 12.705993 -8.387955
v -1.811477 12.705993 -9.051968
v -6.786128 12.705993 -6.258438
v -9.168711 12.705993 -1.074398
v -8.049159 12.705993 4.520026
v -3.279349 15.411860 7.135224
v 1.540932 15.411860 7.700066
v 5.772620 15.411860 5.323750
v 7.799372 15.411860 0.913938
v 6.847022 15.411860 -3.844964
v 3.279346 15.411860 -7.135221
v -1.540935 15.411860 -7.700063
v -5.772630 15.411860 -5.323743
v -7.799375 15.411860 -0.913936
v -6.847023 15.411860 3.844964
v -2.382585 17.559250 5.184042
v 1.119553 17.559250 5.594425
v 4.194053 17.559250 3.867931
v 5.666574 17.559250 0.664015
v 4.974653 17.559250 -2.793530
v 2.382583 17.559250 -5.184041
v -1.119556 17.559250 -5.594423
v -4.194062 17.559250 -3.867924
v -5.666576 17.559250 -0.664014
v -4.974655 17.559250 2.793530
v -1.252604 18.937962 2.725415
v 0.588582 18.937962 2.941164
v 2.204945 18.937962 2.033491
v 2.979090 18.937962 0.349095
v 2.615328 18.937962 -1.468644
v 1.252594 18.937962 -2.725410
v -0.588584 18.937962 -2.941163
v -2.204947 18.937962 -2.033490
v -2.979094 18.937962 -0.349093
v -2.615332 18.937962 1.468646
v 0.000000 0.000000 0.000000
v 0.000000 19.413029 0.000000
vt 0.333880 0.344501
vt 0.343941 0.348813
vt 0.342379 0.366756
vt 0.322042 0.358128
vt 0.354622 0.346328
vt 0.363912 0.361790
vt 0.361735 0.338100
vt 0.378382 0.345133
vt 0.362674 0.327269
vt 0.380267 0.323202
vt 0.357099 0.317952
vt 0.368895 0.304352
vt 0.347048 0.313653
vt 0.348606 0.295762
vt 0.336390 0.316128
vt 0.327131 0.300706
vt 0.329269 0.324345
vt 0.312657 0.317301
vt 0.328315 0.335170
vt 0.310700 0.339220
vt 0.340694 0.385930
vt 0.309384 0.372587
vt 0.373872 0.378239
vt 0.396063 0.352565
vt 0.398921 0.318873
vt 0.381482 0.289904
vt 0.350279 0.276657
vt 0.317234 0.284291
vt 0.295029 0.309820
vt 0.292014 0.343484
vt 0.373812 0.377747
vt 0.165004 0.473413
vt 0.202582 0.473616
vt 0.202557 0.495068
vt 0.164782 0.494865
vt 0.240227 0.473458
vt 0.240377 0.494934
vt 0.277905 0.473074
vt 0.278201 0.494481
vt 0.315515 0.472505
vt 0.316096 0.493857
vt 0.352925 0.471344
vt 0.354528 0.492820
vt 0.016787 0.466240
vt 0.010996 0.488141
vt 0.052861 0.470362
vt 0.340735 0.385389
vt 0.342355 0.366361
vt 0.050975 0.491730
vt 0.363866 0.361435
vt 0.309428 0.372189
vt 0.321983 0.357805
vt 0.291898 0.343273
vt 0.310596 0.339025
vt 0.294779 0.309737
vt 0.090096 0.471981
vt 0.089296 0.493295
vt 0.127504 0.472890
vt 0.127065 0.494248
vt 0.202525 0.515060
vt 0.164560 0.514802
vt 0.240511 0.514915
vt 0.278470 0.514466
vt 0.316519 0.513838
vt 0.355369 0.513145
vt 0.008344 0.510807
vt 0.049873 0.512083
vt 0.088671 0.513204
vt 0.126658 0.514158
vt 0.202485 0.535085
vt 0.312483 0.317264
vt 0.316946 0.284289
vt 0.164329 0.534789
vt 0.326858 0.300774
vt 0.350001 0.276644
vt 0.348344 0.295857
vt 0.240650 0.534944
vt 0.381285 0.289839
vt 0.278714 0.534459
vt 0.316729 0.533813
vt 0.355200 0.533548
vt 0.009610 0.533584
vt 0.049781 0.532448
vt 0.088260 0.533195
vt 0.126272 0.534118
vt 0.202449 0.556724
vt 0.164055 0.556440
vt 0.240827 0.556522
vt 0.278998 0.555930
vt 0.316842 0.555248
vt 0.368703 0.304407
vt 0.398815 0.318743
vt 0.380087 0.323133
vt 0.395972 0.352282
vt 0.378246 0.344889
vt 0.343864 0.348571
vt 0.354489 0.346123
vt 0.333781 0.344319
vt 0.354317 0.555096
vt 0.014042 0.555816
vt 0.050390 0.554004
vt 0.087929 0.554631
vt 0.125837 0.555641
vt 0.328204 0.335089
vt 0.329139 0.324368
vt 0.336196 0.316240
vt 0.346814 0.313781
vt 0.356881 0.318035
vt 0.362459 0.327273
vt 0.361542 0.337993
vt 0.345497 0.331222
vt 0.345335 0.331187
vt 0.389133 0.467766
vt 0.394603 0.489762
vt 0.396935 0.512482
vt 0.390602 0.557426
vt 0.395348 0.535249
vn -0.167223 -0.916326 0.363844
vn 0.078576 -0.916326 0.392647
vn 0.124358 -0.773548 0.621417
vn -0.264652 -0.773548 0.575833
vn 0.294362 -0.916326 0.271472
vn 0.465867 -0.773548 0.429642
vn 0.397711 -0.916326 0.046604
vn 0.629431 -0.773548 0.073758
vn 0.349148 -0.916326 -0.196065
vn 0.552574 -0.773548 -0.310299
vn 0.167223 -0.916326 -0.363844
vn 0.264652 -0.773548 -0.575833
vn -0.078576 -0.916326 -0.392647
vn -0.124358 -0.773548 -0.621417
vn -0.294362 -0.916326 -0.271472
vn -0.465867 -0.773548 -0.429641
vn -0.397711 -0.916326 -0.046604
vn -0.629431 -0.773548 -0.073757
vn -0.349149 -0.916326 0.196065
vn -0.552574 -0.773548 0.310299
vn 0.162844 -0.557962 0.813732
vn -0.346557 -0.557962 0.754040
vn 0.610043 -0.557962 0.562606
vn 0.824227 -0.557962 0.096584
vn 0.723584 -0.557962 -0.406330
vn 0.346556 -0.557962 -0.754040
vn -0.162844 -0.557962 -0.813732
vn -0.610043 -0.557962 -0.562606
vn -0.824227 -0.557962 -0.096583
vn -0.723584 -0.557962 0.406331
vn 0.187681 -0.291930 0.937845
vn -0.399414 -0.291930 0.869048
vn 0.703088 -0.291930 0.648416
vn 0.949940 -0.291930 0.111315
vn 0.833947 -0.291930 -0.468305
vn 0.399414 -0.291930 -0.869048
vn -0.187681 -0.291930 -0.937845
vn -0.703088 -0.291930 -0.648416
vn -0.949940 -0.291930 -0.111315
vn -0.833947 -0.291930 0.468305
vn 0.196229 0.000000 0.980558
vn -0.417605 0.000000 0.908628
vn 0.735110 -0.000000 0.677948
vn 0.993204 0.000000 0.116385
vn 0.871928 0.000000 -0.489634
vn 0.417605 0.000000 -0.908629
vn -0.196229 0.000000 -0.980558
vn -0.735110 -0.000000 -0.677948
vn -0.993204 -0.000000 -0.116385
vn -0.871928 -0.000000 0.489634
vn 0.187681 0.291930 0.937845
vn -0.399414 0.291930 0.869048
vn 0.703088 0.291930 0.648416
vn 0.949940 0.291930 0.111315
vn 0.833947 0.291930 -0.468305
vn 0.399414 0.291930 -0.869048
vn -0.187681 0.291930 -0.937845
vn -0.703088 0.291930 -0.648416
vn -0.949940 0.291930 -0.111315
vn -0.833947 0.291930 0.468305
vn 0.162844 0.557962 0.813732
vn -0.346557 0.557962 0.754040
vn 0.610043 0.557962 0.562606
vn 0.824227 0.557962 0.096584
vn 0.723584 0.557962 -0.406330
vn 0.346556 0.557962 -0.754040
vn -0.162844 0.557962 -0.813732
vn -0.610043 0.557962 -0.562606
vn -0.824227 0.557962 -0.096583
vn -0.723584 0.557962 0.406330
vn 0.124358 0.773547 0.621417
vn -0.264652 0.773547 0.575833
vn 0.465867 0.773547 0.429642
vn 0.629432 0.773547 0.073758
vn 0.552574 0.773548 -0.310299
vn 0.264652 0.773547 -0.575833
vn -0.124358 0.773547 -0.621417
vn -0.465868 0.773548 -0.429642
vn -0.629432 0.773548 -0.073757
vn -0.552575 0.773547 0.310300
vn 0.078576 0.916326 0.392647
vn -0.167223 0.916326 0.363845
vn 0.294362 0.916326 0.271472
vn 0.397711 0.916326 0.046605
vn 0.349148 0.916326 -0.196065
vn 0.167223 0.916326 -0.363845
vn -0.078576 0.916326 -0.392648
vn -0.294362 0.916326 -0.271473
vn -0.397711 0.916326 -0.046604
vn -0.349149 0.916326 0.196065
vn 0.000000 -1.000000 -0.000000
vn 0.000000 1.000000 0.000000
s 1
g nj_filler_pool_beachball_stripe
usemtl blinn1SG
f 1/1/1 2/2/2 12/3/3 11/4/4
f 2/2/2 3/5/5 13/6/6 12/3/3
f 3/5/5 4/7/7 14/8/8 13/6/6
f 4/7/7 5/9/9 15/10/10 14/8/8
f 5/9/9 6/11/11 16/12/12 15/10/10
f 6/11/11 7/13/13 17/14/14 16/12/12
f 7/13/13 8/15/15 18/16/16 17/14/14
f 8/15/15 9/17/17 19/18/18 18/16/16
f 9/17/17 10/19/19 20/20/20 19/18/18
f 10/19/19 1/1/1 11/4/4 20/20/20
f 11/4/4 12/3/3 22/21/21 21/22/22
f 12/3/3 13/6/6 23/23/23 22/21/21
f 13/6/6 14/8/8 24/24/24 23/23/23
f 14/8/8 15/10/10 25/25/25 24/24/24
f 15/10/10 16/12/12 26/26/26 25/25/25
f 16/12/12 17/14/14 27/27/27 26/26/26
f 17/14/14 18/16/16 28/28/28 27/27/27
f 18/16/16 19/18/18 29/29/29 28/28/28
f 19/18/18 20/20/20 30/30/30 29/29/29
f 20/20/20 11/4/4 21/22/22 30/30/30
f 21/32/22 22/33/21 32/34/31 31/35/32
f 22/33/21 23/36/23 33/37/33 32/34/31
f 23/36/23 24/38/24 34/39/34 33/37/33
f 24/38/24 25/40/25 35/41/35 34/39/34
f 25/40/25 26/42/26 36/43/36 35/41/35
f 26/42/26 27/113/27 37/114/37 36/43/36
f 27/44/27 28/46/28 38/49/38 37/45/37
f 28/46/28 29/56/29 39/57/39 38/49/38
f 29/56/29 30/58/30 40/59/40 39/57/39
f 30/58/30 21/32/22 31/35/32 40/59/40
f 31/35/32 32/34/31 42/60/41 41/61/42
f 32/34/31 33/37/33 43/62/43 42/60/41
f 33/37/33 34/39/34 44/63/44 43/62/43
f 34/39/34 35/41/35 45/64/45 44/63/44
f 35/41/35 36/43/36 46/65/46 45/64/45
f 36/43/36 37/114/37 47/115/47 46/65/46
f 37/45/37 38/49/38 48/67/48 47/66/47
f 38/49/38 39/57/39 49/68/49 48/67/48
f 39/57/39 40/59/40 50/69/50 49/68/49
f 40/59/40 31/35/32 41/61/42 50/69/50
f 41/61/42 42/60/41 52/70/51 51/73/52
f 42/60/41 43/62/43 53/77/53 52/70/51
f 43/62/43 44/63/44 54/79/54 53/77/53
f 44/63/44 45/64/45 55/80/55 54/79/54
f 45/64/45 46/65/46 56/81/56 55/80/55
f 46/65/46 47/115/47 57/117/57 56/81/56
f 47/66/47 48/67/48 58/83/58 57/82/57
f 48/67/48 49/68/49 59/84/59 58/83/58
f 49/68/49 50/69/50 60/85/60 59/84/59
f 50/69/50 41/61/42 51/73/52 60/85/60
f 51/73/52 52/70/51 62/86/61 61/87/62
f 52/70/51 53/77/53 63/88/63 62/86/61
f 53/77/53 54/79/54 64/89/64 63/88/63
f 54/79/54 55/80/55 65/90/65 64/89/64
f 55/80/55 56/81/56 66/99/66 65/90/65
f 56/81/56 57/117/57 67/116/67 66/99/66
f 57/82/57 58/83/58 68/101/68 67/100/67
f 58/83/58 59/84/59 69/102/69 68/101/68
f 59/84/59 60/85/60 70/103/70 69/102/69
f 60/85/60 51/73/52 61/87/62 70/103/70
f 61/31/62 62/47/61 72/48/71 71/50/72
f 62/47/61 63/51/63 73/52/73 72/48/71
f 63/51/63 64/53/64 74/54/74 73/52/73
f 64/53/64 65/55/65 75/71/75 74/54/74
f 65/55/65 66/72/66 76/74/76 75/71/75
f 66/72/66 67/75/67 77/76/77 76/74/76
f 67/75/67 68/78/68 78/91/78 77/76/77
f 68/78/68 69/92/69 79/93/79 78/91/78
f 69/92/69 70/94/70 80/95/80 79/93/79
f 70/94/70 61/31/62 71/50/72 80/95/80
f 71/50/72 72/48/71 82/96/81 81/97/82
f 72/48/71 73/52/73 83/98/83 82/96/81
f 73/52/73 74/54/74 84/104/84 83/98/83
f 74/54/74 75/71/75 85/105/85 84/104/84
f 75/71/75 76/74/76 86/106/86 85/105/85
f 76/74/76 77/76/77 87/107/87 86/106/86
f 77/76/77 78/91/78 88/108/88 87/107/87
f 78/91/78 79/93/79 89/109/89 88/108/88
f 79/93/79 80/95/80 90/110/90 89/109/89
f 80/95/80 71/50/72 81/97/82 90/110/90
f 2/2/2 1/1/1 91/111/91
f 3/5/5 2/2/2 91/111/91
f 4/7/7 3/5/5 91/111/91
f 5/9/9 4/7/7 91/111/91
f 6/11/11 5/9/9 91/111/91
f 7/13/13 6/11/11 91/111/91
f 8/15/15 7/13/13 91/111/91
f 9/17/17 8/15/15 91/111/91
f 10/19/19 9/17/17 91/111/91
f 1/1/1 10/19/19 91/111/91
f 81/97/82 82/96/81 92/112/92
f 82/96/81 83/98/83 92/112/92
f 83/98/83 84/104/84 92/112/92
f 84/104/84 85/105/85 92/112/92
f 85/105/85 86/106/86 92/112/92
f 86/106/86 87/107/87 92/112/92
f 87/107/87 88/108/88 92/112/92
f 88/108/88 89/109/89 92/112/92
f 89/109/89 90/110/90 92/112/92
f 90/110/90 81/97/82 92/112/92
