# This file uses centimeters as units for non-parametric coordinates.

v -0.135468 -0.558298 0.336456
v 0.085785 -0.531053 0.707245
v -5.358704 5.803928 1.548035
v -5.328674 5.933741 1.953247
v -1.621597 3.543163 1.426605
v -1.842819 3.515853 1.055878
v -5.331757 6.013732 1.694489
v -1.606262 3.596385 1.161194
v 0.101089 -0.477765 0.441803
v -3.207748 5.140679 1.369904
v -3.053940 5.314939 1.500061
v -3.064407 5.245674 1.761963
v -2.395355 4.422299 1.222351
v -2.192627 4.555485 1.340729
v -2.206787 4.493871 1.604370
v -4.220703 5.614126 1.482941
v -4.126999 5.814594 1.622681
v -4.131622 5.739044 1.882874
v -3.913757 7.048174 4.102264
v 3.997757 6.883103 3.991119
v -4.020828 7.365140 -3.991196
v 3.890686 7.200070 -4.102341
v 3.926727 7.093377 -1.377991
v -3.984772 7.258448 -1.266876
v 3.964050 6.982888 1.443268
v -3.947449 7.147958 1.554321
v 1.395340 6.937402 4.027710
v 1.025314 4.911560 1.101898
v 0.995911 4.998662 -1.122162
v 1.288269 7.254368 -4.065781
v -1.311356 6.993876 4.065704
v -1.108444 4.956080 1.131866
v -1.137848 5.043182 -1.092194
v -1.418427 7.310842 -4.027740
v -1.043564 5.070370 0.301849
v 0.824860 5.177213 0.231415
v -0.636322 -0.531631 0.155151
v 1.048111 -0.435307 0.091675
v 0.957703 2.372168 0.160797
v -0.861145 2.268155 0.229279
v 0.223221 -0.493832 0.567169
v 0.065582 2.309798 0.638794
v -0.092056 5.113429 0.710419
v 0.411942 -0.532477 0.192413
v 0.366226 -0.556874 -0.196259
v 3.552948 3.779272 0.678955
v 3.647156 3.830795 0.325562
v 1.073593 2.094013 -0.445892
v 1.119293 2.118366 -0.057159
v 3.538818 3.900024 0.533569
v 0.954208 2.145460 -0.237244
v 0.246841 -0.505383 0.012299
v 1.947433 3.221362 0.074799
v 1.835693 3.311886 -0.101746
v 1.953445 3.250183 -0.308044
v 1.414368 2.719739 -0.053925
v 1.268997 2.781649 -0.235901
v 1.388641 2.724925 -0.442932
v 2.678833 3.584164 0.323883
v 2.611938 3.694815 0.159882
v 2.725891 3.628838 -0.046783
vt 0.254128 0.013693
vt 0.495182 0.013693
vt 0.254128 0.446359
vt 0.495182 0.446359
vt 0.495182 0.230026
vt 0.254128 0.230026
vt 0.374655 0.446359
vt 0.374655 0.230026
vt 0.374655 0.013693
vt 0.254128 0.338192
vt 0.374655 0.338192
vt 0.495182 0.338192
vt 0.254128 0.284109
vt 0.374655 0.284109
vt 0.495182 0.284109
vt 0.254128 0.392275
vt 0.374655 0.392275
vt 0.495182 0.392275
vt 0.849222 0.837810
vt 0.849222 0.915480
vt 0.778978 0.915480
vt 0.778978 0.837810
vt 0.778978 0.768624
vt 0.849222 0.768624
vt 0.925036 0.768624
vt 0.925036 0.837810
vt 0.925036 0.915480
vt 0.925036 1.001343
vt 0.849222 1.001343
vt 0.778978 1.001343
vt 1.002862 0.768624
vt 1.002862 0.837810
vt 1.002862 0.915480
vt 1.002862 1.001343
vt 0.374655 0.013693
vt 0.495182 0.013693
vt 0.495182 0.185169
vt 0.374655 0.185169
vt 0.495182 0.218224
vt 0.374655 0.218224
vt 0.254128 0.185169
vt 0.254128 0.218224
vt 0.254128 0.013693
vt 0.495182 0.013693
vt 0.495182 0.230026
vt 0.374655 0.230026
vt 0.374655 0.013693
vt 0.495182 0.392275
vt 0.495182 0.446359
vt 0.374655 0.446359
vt 0.374655 0.392275
vt 0.254128 0.446359
vt 0.254128 0.392275
vt 0.254128 0.230026
vt 0.254128 0.013693
vt 0.374655 0.338192
vt 0.254128 0.338192
vt 0.254128 0.284109
vt 0.374655 0.284109
vt 0.495182 0.284109
vt 0.495182 0.338192
vn -0.922652 -0.364345 -0.126355
vn -0.910468 -0.391788 -0.132478
vn -0.764493 -0.432798 0.477741
vn -0.770015 -0.409139 0.489574
vn -0.301139 -0.914296 -0.270884
vn -0.171492 -0.943568 -0.283320
vn -0.138574 -0.945344 0.295165
vn -0.257156 -0.916945 0.305093
vn -0.045158 -0.562573 0.825513
vn -0.092462 -0.540222 0.836427
vn -0.302349 -0.299787 0.904828
vn -0.305840 -0.288387 0.907356
vn -0.476414 -0.807060 0.348832
vn -0.184516 -0.478615 0.858418
vn -0.257969 -0.392311 0.882918
vn -0.660850 -0.634667 0.400594
vn -0.768058 -0.613200 -0.184590
vn -0.552211 -0.800243 -0.233825
vn 0.297398 0.923627 -0.241802
vn 0.301913 0.905564 0.297998
vn 0.489031 0.850261 0.194693
vn 0.487509 0.860844 -0.145889
vn 0.341502 0.889396 -0.303892
vn 0.185508 0.877279 -0.442683
vn -0.161111 0.884512 -0.437816
vn -0.265289 0.935368 -0.233899
vn -0.255402 0.917193 0.305823
vn -0.151466 0.859662 0.487893
vn 0.200823 0.852310 0.482946
vn 0.353401 0.869529 0.345003
vn -0.312506 0.903043 -0.294710
vn -0.455083 0.880513 -0.132654
vn -0.447486 0.869803 0.207844
vn -0.307005 0.883309 0.354278
vn -0.039087 0.025447 -0.998912
vn -0.467513 -0.001794 -0.883985
vn -0.476267 -0.000698 -0.879300
vn -0.039193 0.027366 -0.998857
vn -0.485511 0.000466 -0.874231
vn -0.039303 0.029386 -0.998795
vn 0.405964 0.049756 -0.912534
vn 0.415369 0.051974 -0.908167
vn 0.397064 0.047662 -0.916552
vn 0.835581 -0.173905 0.521116
vn 0.822495 -0.217001 0.525749
vn 0.950474 -0.299957 -0.081396
vn 0.959421 -0.265067 -0.096186
vn 0.165953 -0.909159 0.381956
vn 0.068332 -0.937143 0.342191
vn 0.254915 -0.961322 -0.104301
vn 0.349868 -0.935876 -0.041569
vn 0.399704 -0.680757 -0.613846
vn 0.440720 -0.651613 -0.617386
vn 0.691069 -0.266726 -0.671774
vn 0.694996 -0.248958 -0.674537
vn 0.575636 -0.817534 -0.016767
vn 0.545346 -0.555025 -0.628127
vn 0.636284 -0.417057 -0.649004
vn 0.803866 -0.594670 -0.012960
vn 0.644949 -0.555293 0.525062
vn 0.395346 -0.793236 0.463118
s 1
f 2/2/1 5/5/2 8/8/3 9/9/4
f 18/18/5 4/4/6 7/7/7 17/17/8
f 7/7/7 3/3/9 16/16/10 17/17/8
f 8/8/3 6/6/11 1/1/12 9/9/4
f 11/11/13 10/10/14 13/13/15 14/14/16
f 15/15/17 12/12/18 11/11/13 14/14/16
f 14/14/16 13/13/15 6/6/11 8/8/3
f 5/5/2 15/15/17 14/14/16 8/8/3
f 17/17/8 16/16/10 10/10/14 11/11/13
f 12/12/18 18/18/5 17/17/8 11/11/13
s 3
f 32/19/19 33/20/20 24/21/21 26/22/22
f 19/23/23 31/24/24 32/19/19 26/22/22
f 31/24/24 27/25/25 28/26/26 32/19/19
f 33/20/20 29/27/27 30/28/28 34/29/29
f 24/21/21 33/20/20 34/29/29 21/30/30
f 27/25/25 20/31/31 25/32/32 28/26/26
f 25/32/32 23/33/33 29/27/27 28/26/26
f 30/28/28 29/27/27 23/33/33 22/34/34
f 33/20/20 32/19/19 28/26/26 29/27/27
s 4
f 43/35/35 36/36/36 39/37/37 42/38/38
f 42/38/38 39/37/37 38/39/39 41/40/40
f 40/41/41 42/38/38 41/40/40 37/42/42
f 35/43/43 43/35/35 42/38/38 40/41/41
s 5
f 45/44/44 48/45/45 51/46/46 52/47/47
f 61/48/48 47/49/49 50/50/50 60/51/51
f 50/50/50 46/52/52 59/53/53 60/51/51
f 51/46/46 49/54/54 44/55/55 52/47/47
f 54/56/56 53/57/57 56/58/58 57/59/59
f 58/60/60 55/61/61 54/56/56 57/59/59
f 57/59/59 56/58/58 49/54/54 51/46/46
f 48/45/45 58/60/60 57/59/59 51/46/46
f 60/51/51 59/53/53 53/57/57 54/56/56
f 55/61/61 61/48/48 60/51/51 54/56/56
