# This file uses centimeters as units for non-parametric coordinates.

v -0.171509 -0.592896 0.336456
v 0.049728 -0.565651 0.707245
v -5.394760 5.769331 1.548035
v -5.364731 5.899143 1.953247
v -1.657669 3.508565 1.426605
v -1.878876 3.481255 1.055878
v -5.367813 5.979135 1.694489
v -1.642319 3.561787 1.161194
v 0.065033 -0.512363 0.441803
v -3.243805 5.106081 1.369904
v -3.089981 5.280341 1.500061
v -3.100464 5.211076 1.761963
v -2.431412 4.387701 1.222351
v -2.228699 4.520887 1.340729
v -2.242844 4.459273 1.604370
v -4.256760 5.579528 1.482941
v -4.163071 5.779996 1.622681
v -4.167679 5.704446 1.882874
v -3.949814 7.013576 4.102264
v 3.961716 6.848505 3.991119
v -4.056885 7.330542 -3.991196
v 3.854630 7.165472 -4.102341
v 3.890671 7.058779 -1.377991
v -4.020844 7.223849 -1.266876
v 3.927994 6.948290 1.443268
v -3.983505 7.113360 1.554321
v 1.359283 6.902804 4.027710
v 0.989273 4.876962 1.101898
v 0.959854 4.964064 -1.122162
v 1.252213 7.219770 -4.065781
v -1.347412 6.959278 4.065704
v -1.144485 4.921482 1.131866
v -1.173904 5.008584 -1.092194
v -1.454483 7.276244 -4.027740
v -1.079605 5.035772 0.301849
v 0.788788 5.142615 0.231415
v -0.672379 -0.566229 0.155151
v 1.012070 -0.469905 0.091675
v 0.921646 2.337569 0.160797
v -0.897217 2.233557 0.229279
v 0.187164 -0.528430 0.567169
v 0.029526 2.275200 0.638794
v -0.128113 5.078831 0.710419
v 0.375885 -0.567075 0.192413
v 0.330170 -0.591472 -0.196259
v 3.516907 3.744673 0.678955
v 3.611099 3.796197 0.325562
v 1.037537 2.059415 -0.445892
v 1.083237 2.083768 -0.057159
v 3.502747 3.865426 0.533569
v 0.918167 2.110862 -0.237244
v 0.210800 -0.539981 0.012299
v 1.911377 3.186764 0.074799
v 1.799622 3.277288 -0.101746
v 1.917389 3.215585 -0.308044
v 1.378296 2.685141 -0.053925
v 1.232941 2.747051 -0.235901
v 1.352585 2.690326 -0.442932
v 2.642776 3.549566 0.323883
v 2.575882 3.660217 0.159882
v 2.689819 3.594240 -0.046783
vt 0.254128 0.013693
vt 0.495182 0.013693
vt 0.254128 0.446359
vt 0.495182 0.446359
vt 0.495182 0.230026
vt 0.254128 0.230026
vt 0.374655 0.446359
vt 0.374655 0.230026
vt 0.374655 0.013693
vt 0.254128 0.338192
vt 0.374655 0.338192
vt 0.495182 0.338192
vt 0.254128 0.284109
vt 0.374655 0.284109
vt 0.495182 0.284109
vt 0.254128 0.392275
vt 0.374655 0.392275
vt 0.495182 0.392275
vt 0.603145 0.837810
vt 0.603145 0.915480
vt 0.532901 0.915480
vt 0.532901 0.837810
vt 0.532901 0.768624
vt 0.603145 0.768624
vt 0.678959 0.768624
vt 0.678959 0.837810
vt 0.678959 0.915480
vt 0.678959 0.991731
vt 0.603145 0.991731
vt 0.532901 0.991731
vt 0.756785 0.768624
vt 0.756785 0.837810
vt 0.756785 0.915480
vt 0.756785 0.991731
vt 0.374655 0.013693
vt 0.495182 0.013693
vt 0.495182 0.185169
vt 0.374655 0.185169
vt 0.495182 0.218224
vt 0.374655 0.218224
vt 0.254128 0.185169
vt 0.254128 0.218224
vt 0.254128 0.013693
vt 0.495182 0.013693
vt 0.495182 0.230026
vt 0.374655 0.230026
vt 0.374655 0.013693
vt 0.495182 0.392275
vt 0.495182 0.446359
vt 0.374655 0.446359
vt 0.374655 0.392275
vt 0.254128 0.446359
vt 0.254128 0.392275
vt 0.254128 0.230026
vt 0.254128 0.013693
vt 0.374655 0.338192
vt 0.254128 0.338192
vt 0.254128 0.284109
vt 0.374655 0.284109
vt 0.495182 0.284109
vt 0.495182 0.338192
vn -0.922650 -0.364341 -0.126381
vn -0.910466 -0.391786 -0.132498
vn -0.764506 -0.432801 0.477717
vn -0.770025 -0.409141 0.489555
vn -0.301143 -0.914296 -0.270880
vn -0.171494 -0.943570 -0.283312
vn -0.138575 -0.945343 0.295166
vn -0.257151 -0.916946 0.305094
vn -0.045158 -0.562575 0.825512
vn -0.092464 -0.540222 0.836427
vn -0.302355 -0.299790 0.904824
vn -0.305847 -0.288390 0.907353
vn -0.476418 -0.807058 0.348830
vn -0.184514 -0.478615 0.858418
vn -0.257973 -0.392311 0.882917
vn -0.660852 -0.634667 0.400590
vn -0.768063 -0.613193 -0.184589
vn -0.552208 -0.800245 -0.233828
vn 0.297396 0.923627 -0.241803
vn 0.301913 0.905564 0.297997
vn 0.489029 0.850262 0.194692
vn 0.487507 0.860844 -0.145891
vn 0.341501 0.889397 -0.303892
vn 0.185508 0.877279 -0.442682
vn -0.161111 0.884511 -0.437816
vn -0.265290 0.935368 -0.233898
vn -0.255401 0.917193 0.305824
vn -0.151466 0.859662 0.487893
vn 0.200823 0.852310 0.482947
vn 0.353400 0.869529 0.345004
vn -0.312506 0.903043 -0.294710
vn -0.455084 0.880512 -0.132653
vn -0.447487 0.869802 0.207845
vn -0.307005 0.883309 0.354278
vn -0.039087 0.025445 -0.998912
vn -0.467516 -0.001796 -0.883983
vn -0.476267 -0.000699 -0.879300
vn -0.039192 0.027365 -0.998857
vn -0.485508 0.000465 -0.874232
vn -0.039303 0.029385 -0.998795
vn 0.405962 0.049755 -0.912535
vn 0.415366 0.051975 -0.908169
vn 0.397065 0.047660 -0.916552
vn 0.835606 -0.173916 0.521072
vn 0.822518 -0.217008 0.525710
vn 0.950475 -0.299956 -0.081393
vn 0.959421 -0.265067 -0.096186
vn 0.165957 -0.909158 0.381956
vn 0.068332 -0.937143 0.342190
vn 0.254924 -0.961317 -0.104327
vn 0.349867 -0.935876 -0.041579
vn 0.399708 -0.680734 -0.613869
vn 0.440721 -0.651594 -0.617406
vn 0.691099 -0.266729 -0.671743
vn 0.695025 -0.248962 -0.674506
vn 0.575641 -0.817531 -0.016766
vn 0.545342 -0.555021 -0.628135
vn 0.636298 -0.417057 -0.648991
vn 0.803869 -0.594666 -0.012943
vn 0.644953 -0.555290 0.525061
vn 0.395341 -0.793235 0.463123
s 1
f 2/2/1 5/5/2 8/8/3 9/9/4
f 18/18/5 4/4/6 7/7/7 17/17/8
f 7/7/7 3/3/9 16/16/10 17/17/8
f 8/8/3 6/6/11 1/1/12 9/9/4
f 11/11/13 10/10/14 13/13/15 14/14/16
f 15/15/17 12/12/18 11/11/13 14/14/16
f 14/14/16 13/13/15 6/6/11 8/8/3
f 5/5/2 15/15/17 14/14/16 8/8/3
f 17/17/8 16/16/10 10/10/14 11/11/13
f 12/12/18 18/18/5 17/17/8 11/11/13
s 3
f 32/19/19 33/20/20 24/21/21 26/22/22
f 19/23/23 31/24/24 32/19/19 26/22/22
f 31/24/24 27/25/25 28/26/26 32/19/19
f 33/20/20 29/27/27 30/28/28 34/29/29
f 24/21/21 33/20/20 34/29/29 21/30/30
f 27/25/25 20/31/31 25/32/32 28/26/26
f 25/32/32 23/33/33 29/27/27 28/26/26
f 30/28/28 29/27/27 23/33/33 22/34/34
f 33/20/20 32/19/19 28/26/26 29/27/27
s 4
f 43/35/35 36/36/36 39/37/37 42/38/38
f 42/38/38 39/37/37 38/39/39 41/40/40
f 40/41/41 42/38/38 41/40/40 37/42/42
f 35/43/43 43/35/35 42/38/38 40/41/41
s 5
f 45/44/44 48/45/45 51/46/46 52/47/47
f 61/48/48 47/49/49 50/50/50 60/51/51
f 50/50/50 46/52/52 59/53/53 60/51/51
f 51/46/46 49/54/54 44/55/55 52/47/47
f 54/56/56 53/57/57 56/58/58 57/59/59
f 58/60/60 55/61/61 54/56/56 57/59/59
f 57/59/59 56/58/58 49/54/54 51/46/46
f 48/45/45 58/60/60 57/59/59 51/46/46
f 60/51/51 59/53/53 53/57/57 54/56/56
f 55/61/61 61/48/48 60/51/51 54/56/56
