# This file uses centimeters as units for non-parametric coordinates.

v -2.449081 -1.115787 1.225281
v 2.335632 -1.115787 1.225281
v -2.449081 10.525024 -4.758850
v 2.335632 10.525024 -4.758850
v -0.056717 9.960683 -5.380585
v -0.056717 -1.383874 0.429565
v 2.335632 5.102488 -0.869690
v -0.056717 4.834401 -1.665405
v -2.449081 5.102488 -0.869690
v 2.335632 8.080748 -2.548035
v -0.056717 7.538918 -3.189514
v -2.449081 8.080748 -2.548035
v 1.390717 -1.318730 1.494751
v -0.089722 -1.044880 -1.666870
v -3.887497 6.045918 4.604126
v -5.367920 6.319767 1.442505
v -4.966980 5.683668 3.138947
v 0.162735 -1.496932 0.114990
v -2.190216 3.060876 -0.327759
v -1.937759 2.608825 1.454163
v -0.709793 2.787027 2.833923
v -3.636810 4.922124 0.510803
v -3.251389 4.298999 2.215729
v -2.156372 4.648276 3.672485
v 0.898239 -0.680288 -1.429535
v -0.778595 -1.202361 1.600037
v 5.367920 6.902236 2.351013
v 3.691086 6.380164 5.380646
v 4.896561 6.163357 3.986633
v 0.554489 -1.228818 0.309509
v 0.903793 2.981252 3.252167
v 2.236908 2.954795 1.961670
v 2.580658 3.503324 0.222626
v 2.141693 4.903398 4.268585
v 3.361008 4.700269 2.884644
v 3.818527 5.425469 1.239014
vt 0.674594 0.458952
vt 0.674594 0.612764
vt 0.194165 0.458952
vt 0.194165 0.612764
vt 0.194165 0.535858
vt 0.674594 0.535858
vt 0.434379 0.612764
vt 0.434379 0.535858
vt 0.434379 0.458952
vt 0.314272 0.612764
vt 0.314272 0.535858
vt 0.314272 0.458952
vt 0.674594 0.535858
vt 0.674594 0.612764
vt 0.434379 0.612764
vt 0.434379 0.535858
vt 0.674594 0.458952
vt 0.434379 0.458952
vt 0.314272 0.612764
vt 0.314272 0.535858
vt 0.314272 0.458952
vt 0.194165 0.612764
vt 0.194165 0.535858
vt 0.194165 0.458952
vt 0.674594 0.535858
vt 0.674594 0.612764
vt 0.434379 0.612764
vt 0.434379 0.535858
vt 0.674594 0.458952
vt 0.434379 0.458952
vt 0.314272 0.612764
vt 0.314272 0.535858
vt 0.314272 0.458952
vt 0.194165 0.612764
vt 0.194165 0.535858
vt 0.194165 0.458952
vn 0.000000 0.319273 0.947663
vn -0.331173 0.301256 0.894186
vn -0.330630 0.355048 0.874428
vn -0.000000 0.379263 0.925289
vn 0.331171 0.301256 0.894187
vn 0.330628 0.355048 0.874429
vn -0.330393 0.553344 0.764625
vn -0.000000 0.583341 0.812227
vn 0.330391 0.553344 0.764625
vn -0.331092 0.633016 0.699764
vn 0.000000 0.670853 0.741591
vn 0.331090 0.633016 0.699764
vn 0.793703 0.512790 -0.327234
vn 0.888922 0.457954 -0.009762
vn 0.862406 0.506180 0.006228
vn 0.764086 0.566452 -0.308714
vn 0.608913 0.509753 -0.607764
vn 0.582854 0.557892 -0.590794
vn 0.732445 0.675929 0.081516
vn 0.630386 0.741120 -0.230986
vn 0.453089 0.727603 -0.515078
vn 0.662067 0.739651 0.120764
vn 0.553305 0.811299 -0.188808
vn 0.382120 0.791431 -0.477097
vn -0.804965 0.467824 -0.364926
vn -0.600956 0.490797 -0.630849
vn -0.579899 0.539896 -0.610106
vn -0.780896 0.522614 -0.342163
vn -0.918124 0.392053 -0.057821
vn -0.896549 0.441311 -0.038018
vn -0.469108 0.715040 -0.518319
vn -0.666703 0.702892 -0.247892
vn -0.785524 0.616527 0.053353
vn -0.406076 0.782098 -0.472679
vn -0.598363 0.776536 -0.197367
vn -0.723154 0.683379 0.100205
s 1
f 6/6/1 2/2/2 7/7/3 8/8/4
f 1/1/5 6/6/1 8/8/4 9/9/6
f 8/8/4 7/7/3 10/10/7 11/11/8
f 9/9/6 8/8/4 11/11/8 12/12/9
f 11/11/8 10/10/7 4/4/10 5/5/11
f 12/12/9 11/11/8 5/5/11 3/3/12
s 2
f 18/13/13 14/14/14 19/15/15 20/16/16
f 13/17/17 18/13/13 20/16/16 21/18/18
f 20/16/16 19/15/15 22/19/19 23/20/20
f 21/18/18 20/16/16 23/20/20 24/21/21
f 23/20/20 22/19/19 16/22/22 17/23/23
f 24/21/21 23/20/20 17/23/23 15/24/24
s 3
f 30/25/25 26/26/26 31/27/27 32/28/28
f 25/29/29 30/25/25 32/28/28 33/30/30
f 32/28/28 31/27/27 34/31/31 35/32/32
f 33/30/30 32/28/28 35/32/32 36/33/33
f 35/32/32 34/31/31 28/34/34 29/35/35
f 36/33/33 35/32/32 29/35/35 27/36/36
