# This file uses centimeters as units for non-parametric coordinates.

v 1.443115 -2.932509 -0.199097
v -1.760498 68.942772 -0.199097
v 1.443115 68.942772 -0.199097
v -1.760498 -2.932509 -0.199097
v -0.686005 -2.932509 0.782043
v -2.407257 33.649475 7.691406
v -2.407257 -2.932509 0.782043
v -0.686005 33.649475 7.691406
v 1.497894 -3.000309 0.518127
v 2.945801 31.766298 18.728821
v 2.235535 20.308037 2.486267
v 3.563080 -2.864708 0.332153
v 0.170349 20.172436 2.672241
v 0.880615 31.630697 18.914734
v -0.048431 -2.845228 1.691711
v 1.663910 -3.019789 1.694519
v 10.405609 24.695303 17.100891
v 11.371765 23.771116 16.016907
v 6.436035 23.049938 8.873840
v 4.567017 20.061514 6.139771
v 10.130096 24.310415 14.227722
v 3.593567 15.957247 4.688293
v 9.044800 25.286339 15.140076
v 4.996399 23.904940 9.272583
v 2.948059 20.629820 6.276184
v 1.881226 16.131807 4.685486
v -3.132111 -2.995999 -1.611633
v -13.923737 25.308773 6.181274
v -13.000763 25.993624 7.159058
v -8.292999 20.935560 2.217896
v -1.757721 -2.869019 -1.001770
v -6.457214 17.540306 0.891174
v -10.841705 23.596254 4.029907
v -5.457245 13.677301 0.156616
v -9.761139 24.209085 4.886536
v -7.078094 21.424450 2.967529
v -5.141785 17.862955 1.556335
v -4.082916 13.804562 0.766541
v 0.178345 -2.932509 1.048218
v 2.975708 -2.932509 1.048218
v 0.178345 56.521370 12.277466
v 2.975708 28.447947 1.048218
v 0.178345 43.565929 3.959656
v 2.975708 43.565929 3.959656
v 2.975708 36.145832 1.782715
v 0.178345 50.440468 7.500488
v 2.975708 56.521370 12.277466
v 2.975708 50.440468 7.500488
v 0.178345 36.145832 1.782715
v 0.178345 28.447947 1.048218
v -0.129272 -2.871542 0.679749
v 5.858215 52.127872 2.046448
v 3.537109 52.249805 2.865051
v 2.191833 -2.993475 -0.138855
v -2.438446 -2.932509 -2.582947
v -1.358185 -2.932509 -0.820679
v -8.703766 33.696899 12.008179
v -7.075043 32.520214 12.493164
v -1.358185 20.254761 -0.820679
v -2.438446 20.254761 -2.582947
v -4.341522 30.657225 1.849060
v -3.094666 29.746622 3.223389
v -2.937347 25.987902 -1.421021
v -1.813416 25.486038 0.239502
v -6.390381 33.396305 6.620605
v -4.964172 32.245934 7.577209
v -7.540588 33.866058 9.299316
v -6.013702 32.674564 10.021423
v -5.307068 32.309692 4.097717
v -3.975677 31.254438 5.275146
v -3.539063 28.516462 -0.019714
v -2.362457 27.793257 1.518127
v -2.564667 23.190226 -2.289001
v -1.473328 22.933264 -0.552490
v -2.558197 -2.996278 0.201111
v -1.854095 -2.868739 0.622253
v -8.104492 13.543821 4.464966
v -7.400360 13.671360 4.886169
v 2.586304 -2.879125 0.568359
v 8.175476 18.171318 11.314026
v 3.834412 -2.985893 0.281982
v 6.927338 18.278086 11.600403
v 4.953827 16.067543 3.823181
v 6.201965 15.960775 3.536804
v -1.907928 -2.866736 1.080078
v -8.278595 24.739727 14.333252
v -1.925232 13.422699 5.682922
v -7.193634 25.142687 15.301453
v -3.620972 20.498886 9.150574
v -2.356415 17.193295 7.117798
v -5.640808 23.082556 11.621094
v -0.480377 -2.998282 1.550964
v -4.419983 23.417891 12.442078
v -2.292572 20.715944 9.832642
v -0.957306 17.250597 7.680115
v -0.497711 13.291422 6.153931
v -2.674591 -3.039229 -0.760681
v 0.080872 -2.825789 -0.328003
v -8.698059 56.489647 8.233215
v -6.464539 43.379368 0.476868
v -4.924103 28.240993 -1.865479
v -2.168610 28.454433 -1.432800
v -5.230133 32.099407 -1.819885
v -6.969025 46.927563 1.939331
v -5.942596 56.703087 8.665955
v -4.213562 47.141003 2.372009
v -3.709076 43.592808 0.909546
v -2.474670 32.312847 -1.387207
v -3.756958 -2.999899 -1.559631
v -13.036560 19.744602 6.844666
v -2.644043 -2.865118 -1.053833
v -6.365540 10.371514 0.617126
v -8.985870 16.056551 2.610779
v -13.757965 19.192234 6.015808
v -8.018311 16.472370 3.245972
v -5.252686 10.506516 1.122986
v -3.849670 -3.015793 -1.266479
v -7.406403 27.142057 -0.004517
v -13.496613 47.097717 9.839111
v -15.421387 46.931152 8.394897
v -1.924896 -2.849224 0.177795
v -5.481628 27.308624 1.439697
vt 0.495182 0.013693
vt 0.254128 0.446359
vt 0.495182 0.446359
vt 0.254128 0.013693
vt 0.254128 0.446359
vt 0.495182 0.446359
vt 0.495182 0.013693
vt 0.254128 0.013693
vt 0.495182 0.446359
vt 0.254128 0.230026
vt 0.495182 0.230026
vt 0.254128 0.013693
vt 0.495182 0.013693
vt 0.254128 0.446359
vt 0.495182 0.230026
vt 0.495182 0.446359
vt 0.254128 0.419317
vt 0.254128 0.446359
vt 0.254128 0.284109
vt 0.495182 0.338192
vt 0.254128 0.013693
vt 0.495182 0.013693
vt 0.254128 0.230026
vt 0.495182 0.284109
vt 0.254128 0.338192
vt 0.495182 0.419317
vt 0.495182 0.392275
vt 0.495182 0.446359
vt 0.254128 0.446359
vt 0.254128 0.230026
vt 0.495182 0.284109
vt 0.254128 0.338192
vt 0.254128 0.013693
vt 0.495182 0.013693
vt 0.495182 0.230026
vt 0.254128 0.284109
vt 0.495182 0.338192
vt 0.254128 0.392275
vt 0.495182 0.230026
vt 0.495182 0.446359
vt 0.254128 0.446359
vt 0.254128 0.284109
vt 0.254128 0.338192
vt 0.495182 0.338192
vt 0.254128 0.013693
vt 0.495182 0.013693
vt 0.254128 0.230026
vt 0.495182 0.284109
vt 0.254128 0.392275
vt 0.495182 0.392275
vt 0.495182 0.013693
vt 0.495182 0.446359
vt 0.254128 0.446359
vt 0.254128 0.013693
vt 0.495182 0.230026
vt 0.254128 0.230026
vt 0.495182 0.419317
vt 0.495182 0.446359
vt 0.254128 0.419317
vt 0.254128 0.446359
vt 0.254128 0.311150
vt 0.254128 0.338192
vt 0.495182 0.311150
vt 0.495182 0.338192
vt 0.254128 0.013693
vt 0.495182 0.013693
vt 0.254128 0.257067
vt 0.254128 0.284109
vt 0.495182 0.257067
vt 0.495182 0.284109
vt 0.254128 0.365234
vt 0.254128 0.392275
vt 0.495182 0.365234
vt 0.495182 0.392275
vt 0.495182 0.446359
vt 0.254128 0.446359
vt 0.254128 0.013693
vt 0.495182 0.013693
vt 0.495182 0.446359
vt 0.254128 0.311150
vt 0.254128 0.013693
vt 0.495182 0.013693
vt 0.495182 0.311150
vt 0.254128 0.446359
vt 0.495182 0.013693
vt 0.495182 0.392275
vt 0.495182 0.446359
vt 0.254128 0.446359
vt 0.254128 0.230026
vt 0.495182 0.284109
vt 0.254128 0.338192
vt 0.254128 0.013693
vt 0.495182 0.230026
vt 0.254128 0.284109
vt 0.495182 0.338192
vt 0.254128 0.392275
vt 0.495182 0.446359
vt 0.254128 0.446359
vt 0.254128 0.338192
vt 0.495182 0.338192
vt 0.254128 0.013693
vt 0.254128 0.230026
vt 0.495182 0.013693
vt 0.495182 0.230026
vt 0.254128 0.257067
vt 0.495182 0.257067
vt 0.254128 0.365234
vt 0.495182 0.365234
vt 0.495182 0.446359
vt 0.254128 0.013693
vt 0.495182 0.013693
vt 0.254128 0.230026
vt 0.495182 0.230026
vt 0.254128 0.338192
vt 0.495182 0.338192
vt 0.254128 0.446359
vt 0.495182 0.013693
vt 0.495182 0.446359
vt 0.254128 0.257067
vt 0.254128 0.013693
vt 0.495182 0.257067
vt 0.254128 0.446359
vn 0.000000 0.000000 1.000000
vn 0.000000 0.000000 1.000000
vn 0.000000 0.000000 1.000000
vn 0.000000 0.000000 1.000000
vn 0.000000 -0.185592 0.982627
vn 0.000000 -0.185592 0.982627
vn 0.000000 -0.185592 0.982627
vn 0.000000 -0.185592 0.982627
vn 0.094999 -0.086744 0.991691
vn 0.094999 -0.086744 0.991691
vn 0.109634 -0.464780 0.878612
vn 0.109634 -0.464781 0.878612
vn 0.104839 -0.814786 0.570205
vn 0.104839 -0.814786 0.570205
vn -0.428132 -0.823690 0.371803
vn -0.421105 -0.823561 0.380024
vn -0.580697 -0.797728 0.162548
vn -0.580697 -0.797728 0.162548
vn -0.094095 -0.477732 0.873452
vn -0.094095 -0.477733 0.873451
vn -0.285942 -0.756040 0.588762
vn -0.281914 -0.752351 0.595394
vn -0.020536 -0.185637 0.982404
vn -0.020975 -0.189951 0.981570
vn -0.017328 -0.154088 0.987905
vn -0.017328 -0.154088 0.987905
vn -0.105144 -0.741274 0.662916
vn -0.105196 -0.741230 0.662957
vn -0.026438 -0.802254 0.596398
vn -0.026438 -0.802254 0.596397
vn -0.341292 -0.380567 0.859470
vn -0.341347 -0.380402 0.859521
vn -0.244182 -0.582263 0.775465
vn -0.244118 -0.582360 0.775411
vn -0.386979 -0.174880 0.905353
vn -0.387150 -0.173188 0.905605
vn -0.389315 -0.150662 0.908700
vn -0.389315 -0.150662 0.908700
vn 0.000000 0.000000 1.000000
vn 0.000000 0.000000 1.000000
vn 0.000000 -0.018792 0.999823
vn 0.000000 -0.018792 0.999823
vn 0.000000 -0.189106 0.981957
vn 0.000000 -0.189106 0.981957
vn 0.000000 -0.371386 0.928479
vn 0.000000 -0.371386 0.928479
vn 0.000000 -0.540266 0.841494
vn 0.000000 -0.540266 0.841494
vn 0.000000 -0.617752 0.786373
vn 0.000000 -0.617752 0.786373
vn 0.329245 -0.059261 0.942383
vn 0.329245 -0.059261 0.942383
vn 0.329245 -0.059261 0.942383
vn 0.329245 -0.059261 0.942383
vn -0.852566 0.000000 0.522619
vn -0.852566 0.000000 0.522619
vn -0.852524 -0.009949 0.522594
vn -0.852529 -0.009266 0.522597
vn -0.546862 -0.815537 -0.189316
vn -0.546862 -0.815537 -0.189316
vn -0.509784 -0.816866 -0.269908
vn -0.509784 -0.816866 -0.269908
vn -0.786617 -0.495013 0.369047
vn -0.786618 -0.495012 0.369047
vn -0.738539 -0.623276 0.257075
vn -0.738539 -0.623275 0.257076
vn -0.844999 -0.175882 0.505018
vn -0.844999 -0.175882 0.505018
vn -0.822667 -0.343510 0.453011
vn -0.822667 -0.343511 0.453011
vn -0.680685 -0.722287 0.122346
vn -0.680686 -0.722287 0.122347
vn -0.615778 -0.787392 -0.028816
vn -0.615778 -0.787392 -0.028816
vn -0.430702 -0.357993 0.828455
vn -0.430702 -0.357993 0.828455
vn -0.430702 -0.357993 0.828454
vn -0.430702 -0.357993 0.828455
vn 0.156623 -0.481725 0.862212
vn 0.156623 -0.481725 0.862213
vn -0.018449 -0.960495 0.277686
vn -0.018449 -0.960495 0.277686
vn 0.204035 -0.190457 0.960258
vn 0.204035 -0.190457 0.960258
vn -0.140119 -0.826136 0.545771
vn -0.140161 -0.826094 0.545824
vn -0.075974 -0.883392 0.462435
vn -0.075974 -0.883392 0.462435
vn -0.324024 -0.257569 0.910311
vn -0.324024 -0.257569 0.910311
vn -0.325033 -0.279346 0.903504
vn -0.325102 -0.280980 0.902972
vn -0.310221 -0.479760 0.820728
vn -0.310249 -0.479603 0.820808
vn -0.247346 -0.673925 0.696165
vn -0.247299 -0.674019 0.696090
vn -0.156864 0.023591 0.987338
vn -0.156864 0.023591 0.987338
vn -0.156488 0.018386 0.987509
vn -0.156487 0.018386 0.987509
vn -0.093278 -0.518690 0.849859
vn -0.093278 -0.518690 0.849859
vn -0.086277 -0.558592 0.824943
vn -0.086277 -0.558592 0.824943
vn -0.130340 -0.257983 0.957317
vn -0.130340 -0.257983 0.957317
vn -0.140478 -0.165338 0.976181
vn -0.140478 -0.165338 0.976181
vn -0.381316 -0.220538 0.897753
vn -0.381316 -0.220538 0.897753
vn -0.369718 -0.291890 0.882105
vn -0.368057 -0.301072 0.879710
vn -0.212713 -0.636994 0.740940
vn -0.212278 -0.637566 0.740572
vn -0.078290 -0.787616 0.611173
vn -0.078290 -0.787616 0.611173
vn -0.591243 -0.103199 0.799864
vn -0.591243 -0.103199 0.799864
vn -0.560415 -0.280566 0.779242
vn -0.560415 -0.280567 0.779241
vn -0.491141 -0.501290 0.712382
vn -0.491141 -0.501290 0.712382
s off
f 4/4/1 1/1/2 3/3/3 2/2/4
f 7/8/5 5/7/6 8/6/7 6/5/8
s 1
f 9/12/9 12/13/10 11/11/11 13/10/12
f 13/10/12 11/11/11 10/9/13 14/14/14
s 2
f 23/17/15 21/26/16 18/16/17 17/18/18
f 25/19/19 20/24/20 19/20/21 24/25/22
f 26/23/23 22/15/24 20/24/20 25/19/19
f 24/25/22 19/20/21 21/26/16 23/17/15
f 15/21/25 16/22/26 22/15/24 26/23/23
s 4
f 33/38/27 35/27/28 29/28/29 28/29/30
f 32/36/31 37/31/32 36/37/33 30/32/34
f 34/30/35 38/35/36 37/31/32 32/36/31
f 30/32/34 36/37/33 35/27/28 33/38/27
f 27/33/37 31/34/38 38/35/36 34/30/35
s 6
f 39/45/39 40/46/40 42/39/41 50/47/42
f 49/42/43 45/48/44 44/44/45 43/43/46
f 50/47/42 42/39/41 45/48/44 49/42/43
f 46/49/47 48/50/48 47/40/49 41/41/50
f 43/43/46 44/44/45 48/50/48 46/49/47
s off
f 51/54/51 54/51/52 52/52/53 53/53/54
s 7
f 55/65/55 56/66/56 59/55/57 60/56/58
f 67/59/59 68/57/60 58/58/61 57/60/62
f 71/61/63 72/63/64 62/64/65 61/62/66
f 73/67/67 74/69/68 64/70/69 63/68/70
f 69/71/71 70/73/72 66/74/73 65/72/74
f 65/72/74 66/74/73 68/57/60 67/59/59
f 61/62/66 62/64/65 70/73/72 69/71/71
f 63/68/70 64/70/69 72/63/64 71/61/63
f 60/56/58 59/55/57 74/69/68 73/67/67
s off
f 75/77/75 76/78/76 78/75/77 77/76/78
s 10
f 83/80/79 84/83/80 80/79/81 82/84/82
f 79/81/83 81/82/84 84/83/80 83/80/79
s 11
f 91/96/85 93/86/86 88/87/87 86/88/88
f 85/92/89 92/85/90 96/93/91 87/89/92
f 90/94/93 95/90/94 94/95/95 89/91/96
f 87/89/92 96/93/91 95/90/94 90/94/93
f 89/91/96 94/95/95 93/86/86 91/96/85
s 13
f 97/101/97 98/103/98 102/104/99 101/102/100
f 104/107/101 106/108/102 105/97/103 99/98/104
f 100/99/105 107/100/106 106/108/102 104/107/101
f 103/105/107 108/106/108 107/100/106 100/99/105
f 101/102/100 102/104/99 108/106/108 103/105/107
s 15
f 109/110/109 111/111/110 116/113/111 112/112/112
f 112/112/112 116/113/111 115/115/113 113/114/114
f 113/114/114 115/115/113 110/109/115 114/116/116
s 16
f 117/120/117 121/117/118 122/121/119 118/119/120
f 118/119/120 122/121/119 119/118/121 120/122/122
