# This file uses centimeters as units for non-parametric coordinates.

mtllib JC_LuauKit_SurfBoard_III.mtl
g default
v -3.240013 98.419871 -6.308426
v 2.265984 98.419871 -6.308426
v -2.925262 1.165848 1.910385
v 1.951235 1.165848 1.910385
v -1.056015 98.321810 -10.295250
v 0.000000 0.000000 0.000000
v -2.969933 123.126933 12.983330
v 1.995903 123.126933 12.983330
v -0.974030 125.857821 12.983330
v 2.204742 106.987574 -2.601387
v -0.825443 108.244677 -5.269341
v -3.178772 106.987574 -2.601387
v -2.925262 1.165848 24.056274
v 0.000000 0.000000 25.966660
v 1.951235 1.165848 24.056274
v 2.107599 116.453273 5.092072
v -0.915165 118.099353 3.093483
v -3.081627 116.453273 5.092072
v -3.240013 98.419871 32.275085
v 2.265984 98.419871 32.275085
v -1.056015 98.321810 36.261909
v 2.204742 106.987574 28.568047
v -0.825443 108.244677 31.236000
v -3.178772 106.987574 28.568047
v 2.107599 116.453273 20.874588
v -0.915165 118.099353 22.873177
v -3.081627 116.453273 20.874588
vt -0.847096 0.019489
vt -0.889969 0.502125
vt -0.921393 0.475826
vt -0.858657 0.475833
vt -0.889965 0.515394
vt -0.931551 0.484987
vt -0.952071 0.438298
vt -0.828123 0.438327
vt -0.848504 0.485005
vt -0.965717 0.445553
vt -0.932965 0.019549
vt -0.966840 0.404217
vt -0.813467 0.404302
vt -0.814506 0.445570
vt -0.984949 0.403563
vt -0.945172 0.012588
vt -0.834887 0.012522
vt -0.795354 0.403651
vt -0.889969 0.502125
vt -0.847096 0.019489
vt -0.921393 0.475826
vt -0.858657 0.475833
vt -0.952071 0.438298
vt -0.889965 0.515394
vt -0.931551 0.484987
vt -0.848504 0.485005
vt -0.828123 0.438327
vt -0.932965 0.019549
vt -0.966839 0.404217
vt -0.965717 0.445553
vt -0.814506 0.445570
vt -0.813467 0.404302
vt -0.834888 0.012522
vt -0.945172 0.012588
vt -0.984949 0.403563
vt -0.795354 0.403651
vn -0.761126 -0.066412 -0.645195
vn -0.001271 -0.096090 -0.995372
vn -0.022377 -0.096180 -0.995112
vn -0.761126 -0.066412 -0.645195
vn 0.750424 -0.059471 -0.658276
vn 0.750424 -0.059471 -0.658276
vn -0.999992 -0.002135 0.003525
vn -0.999909 0.000853 0.013431
vn -0.999915 0.000779 0.012981
vn 0.999909 0.000853 0.013432
vn 0.999992 -0.002135 0.003525
vn 0.999916 0.000779 0.012981
vn 0.034859 0.778814 -0.626286
vn 0.614259 0.615561 -0.493731
vn 0.644924 0.545699 -0.535056
vn 0.002470 0.705865 -0.708342
vn -0.745882 0.518249 -0.418424
vn -0.760184 0.460420 -0.458403
vn 0.010792 0.542137 -0.840221
vn 0.693962 0.396146 -0.601237
vn 0.716662 0.292463 -0.633136
vn 0.015670 0.430072 -0.902659
vn -0.794527 0.340036 -0.503093
vn -0.818925 0.255605 -0.513837
vn -0.999993 -0.002263 0.003119
vn -0.999967 -0.000646 0.008072
vn -0.999993 -0.002263 0.003119
vn -0.370225 -0.928942 0.000000
vn -0.038073 -0.999275 0.000000
vn -0.028126 -0.262103 0.964630
vn -0.769208 -0.250407 0.587891
vn 0.771661 -0.185952 0.608244
vn 0.512911 -0.858442 0.000000
vn 0.999967 -0.000646 0.008072
vn 0.999993 -0.002263 0.003119
vn 0.999993 -0.002263 0.003119
vn -0.761126 -0.066412 0.645195
vn -0.001271 -0.096090 0.995372
vn 0.750424 -0.059471 0.658276
vn -0.999873 -0.001744 -0.015867
vn -0.999879 -0.001783 -0.015478
vn -0.999876 -0.001788 -0.015665
vn 0.999876 -0.001788 -0.015665
vn 0.999879 -0.001783 -0.015478
vn 0.999873 -0.001744 -0.015866
vn 0.034859 0.778813 0.626287
vn 0.002470 0.705865 0.708343
vn 0.644924 0.545699 0.535057
vn 0.614258 0.615561 0.493732
vn -0.745881 0.518250 0.418425
vn -0.760184 0.460421 0.458403
vn 0.010791 0.542137 0.840221
vn 0.015670 0.430072 0.902659
vn 0.716661 0.292463 0.633137
vn 0.693961 0.396146 0.601237
vn -0.794527 0.340036 0.503093
vn -0.818924 0.255605 0.513838
vn -0.999797 -0.001539 -0.020074
vn -0.999882 -0.001745 -0.015250
vn 0.999882 -0.001745 -0.015249
vn 0.999797 -0.001539 -0.020074
s 1
g JC_LuauKit_SurfBoard_III
usemtl lambert2SG
f 1/12/1 5/15/2 6/16/3 3/11/4
f 6/34/3 5/35/2 2/29/5 4/28/6
s 2
f 13/1/7 7/2/8 18/3/9
s 3
f 8/19/10 15/20/11 16/21/12
s 4
f 9/24/13 8/19/14 16/21/15 17/25/16
f 7/2/17 9/5/13 17/6/16 18/3/18
f 11/30/19 10/23/20 2/29/21 5/35/22
f 12/7/23 11/10/19 5/15/22 1/12/24
s 2
f 3/11/25 13/1/7 12/7/26 1/12/27
s 5
f 3/11/28 6/16/29 14/17/30 13/1/31
f 15/20/32 14/33/30 6/34/29 4/28/33
s 3
f 10/23/34 15/20/11 4/28/35 2/29/36
s 4
f 17/25/16 16/21/15 10/23/20 11/30/19
f 18/3/18 17/6/16 11/10/19 12/7/23
s 2
f 13/1/7 18/3/9 12/7/26
s 3
f 16/21/12 15/20/11 10/23/34
s 5
f 19/13/37 13/1/31 14/17/30 21/18/38
f 14/33/30 15/20/32 20/32/39 21/36/38
s 6
f 13/1/40 27/4/41 7/2/42
s 7
f 8/19/43 25/22/44 15/20/45
s 8
f 9/24/46 26/26/47 25/22/48 8/19/49
f 7/2/50 27/4/51 26/9/47 9/5/46
f 23/31/52 21/36/53 20/32/54 22/27/55
f 24/8/56 19/13/57 21/18/53 23/14/52
s 6
f 13/1/40 19/13/58 24/8/59
s 7
f 22/27/60 20/32/61 15/20/45
s 8
f 26/26/47 23/31/52 22/27/55 25/22/48
f 27/4/51 24/8/56 23/14/52 26/9/47
s 6
f 13/1/40 24/8/59 27/4/41
s 7
f 25/22/44 22/27/60 15/20/45
