# This file uses centimeters as units for non-parametric coordinates.

mtllib JC_NaturalRocks_A.mtl
g default
v 0.047455 3.827434 17.733528
v 23.166298 4.179049 22.461012
v -0.661884 15.530509 16.286951
v 19.708525 17.512976 19.854570
v -1.550210 15.977830 2.002374
v 24.262592 16.204695 2.476043
v -4.486021 2.863463 0.207249
v 25.260653 5.016326 -1.188876
v 4.703300 3.443937 20.319214
v 18.370235 3.559930 23.248098
v 3.759235 16.216654 18.470047
v 15.563543 18.496454 22.342207
v 3.222529 17.490294 0.621674
v 18.829252 18.606644 0.816229
v 0.520485 2.344631 -2.324550
v 18.907913 4.163451 -3.254499
v -1.870785 7.255329 20.331617
v -2.565569 11.674237 19.284662
v 24.481827 7.712649 24.732450
v 20.831812 12.443568 22.259209
v -3.440305 17.428862 12.282945
v -3.385747 18.016628 5.404163
v 23.623629 18.809425 15.457307
v 26.181704 17.063114 6.963007
v -4.413059 10.933194 1.259096
v -6.462375 6.013148 0.211602
v 27.063248 12.052116 0.409262
v 27.334522 7.494412 -1.460765
v -6.499434 2.446273 5.166489
v -3.862382 3.383682 13.390924
v 27.438271 4.110913 3.696252
v 25.223152 3.564129 17.998014
v 18.553440 7.710764 27.443008
v 15.988993 12.762534 26.814878
v 3.012943 11.796687 23.743732
v 4.087814 7.990636 25.215324
v 16.819975 20.798340 16.262066
v 18.574007 20.482449 6.203834
v 2.541302 20.305372 4.379127
v 2.292848 18.967876 12.267482
v 19.864054 13.102926 -3.247351
v 19.387901 7.609355 -4.172210
v 0.160321 6.569917 -3.838245
v 1.876101 11.695485 -2.273289
v 19.600834 1.960050 2.264124
v 17.994726 0.716418 17.852562
v 3.014265 0.934074 13.738916
v 0.854660 0.047386 3.396801
v 31.334461 6.966935 4.672173
v 30.818483 11.518044 6.313819
v 27.640263 13.186849 16.468645
v 29.697578 8.610106 18.217169
v -7.968189 7.567962 14.552050
v -6.999252 12.882656 13.910020
v -8.550034 12.019098 6.307701
v -9.999899 6.370358 6.798467
vt 0.712996 0.546668
vt 0.710289 0.517866
vt 0.734420 0.507661
vt 0.742232 0.540426
vt 0.755480 0.608324
vt 0.723386 0.618772
vt 0.773207 0.515375
vt 0.808444 0.522816
vt 0.800994 0.548564
vt 0.767007 0.549177
vt 0.774988 0.611778
vt 0.810045 0.609908
vt 0.817297 0.637998
vt 0.786273 0.648218
vt 0.757667 0.647741
vt 0.729627 0.649583
vt 0.838768 0.513077
vt 0.831245 0.544521
vt 0.884042 0.616223
vt 0.845170 0.616864
vt 0.879047 0.540514
vt 0.879828 0.502026
vt 0.905319 0.507940
vt 0.905136 0.539815
vt 0.906386 0.614910
vt 0.904227 0.643939
vt 0.879936 0.644562
vt 0.845925 0.645530
vt 0.933603 0.492661
vt 0.937283 0.535090
vt 0.938249 0.623977
vt 0.961614 0.492236
vt 0.977401 0.501654
vt 0.983146 0.539737
vt 0.964794 0.537383
vt 0.964953 0.633763
vt 0.987948 0.634790
vt 0.982857 0.666928
vt 0.963106 0.674889
vt 0.933708 0.663948
vt 0.862129 0.316374
vt 0.870399 0.287948
vt 0.891828 0.279253
vt 0.887510 0.313387
vt 0.940804 0.379904
vt 0.897210 0.392650
vt 0.951685 0.316502
vt 0.870614 0.395702
vt 0.950800 0.285282
vt 0.970073 0.291867
vt 0.975662 0.311925
vt 0.970224 0.370432
vt 0.962886 0.392667
vt 0.944208 0.412122
vt 0.907077 0.426149
vt 0.882803 0.419017
vt 0.895374 0.429318
vt 0.927270 0.432136
vt 0.924282 0.451031
vt 0.889852 0.450888
vt 0.823908 0.428344
vt 0.830666 0.458801
vt 0.916219 0.478344
vt 0.883060 0.469960
vt 0.792291 0.493895
vt 0.836389 0.481444
vt 0.790035 0.457960
vt 0.796250 0.433856
vt 0.823263 0.729151
vt 0.785895 0.723385
vt 0.785401 0.693436
vt 0.832333 0.698127
vt 0.875641 0.735763
vt 0.869262 0.708109
vt 0.798356 0.666945
vt 0.837596 0.672734
vt 0.909230 0.679693
vt 0.873693 0.681679
vt 0.908662 0.713211
vt 0.911167 0.737438
vn -0.019354 -0.817898 0.575037
vn 0.438291 -0.743710 0.504773
vn 0.639116 0.075272 0.765418
vn 0.063490 -0.285870 0.956163
vn -0.019354 -0.817898 0.575037
vn 0.063490 -0.285870 0.956163
vn -0.272492 -0.358092 0.893039
vn -0.177415 -0.820948 0.542742
vn 0.537757 0.530490 0.655285
vn 0.504892 0.612717 0.607998
vn -0.088462 0.797310 0.597052
vn -0.036719 0.489221 0.871387
vn -0.364772 0.466078 0.806048
vn -0.272492 -0.358092 0.893039
vn 0.063490 -0.285870 0.956163
vn -0.036719 0.489221 0.871387
vn 0.537757 0.530490 0.655285
vn -0.036719 0.489221 0.871387
vn 0.063490 -0.285870 0.956163
vn 0.639116 0.075272 0.765418
vn -0.295633 0.796484 0.527460
vn -0.404085 0.728920 0.552621
vn -0.608358 0.398449 0.686395
vn -0.364772 0.466078 0.806048
vn -0.295633 0.796484 0.527460
vn -0.364772 0.466078 0.806048
vn -0.036719 0.489221 0.871387
vn -0.088462 0.797310 0.597052
vn -0.615659 -0.339302 0.711223
vn -0.405696 -0.766113 0.498480
vn -0.177415 -0.820948 0.542742
vn -0.272492 -0.358092 0.893039
vn -0.615659 -0.339302 0.711223
vn -0.272492 -0.358092 0.893039
vn -0.364772 0.466078 0.806048
vn -0.608358 0.398449 0.686395
vn -0.088462 0.797310 0.597052
vn 0.504892 0.612717 0.607998
vn 0.558290 0.796459 0.232304
vn -0.000465 0.983444 0.181210
vn -0.121705 0.980152 -0.156490
vn -0.173366 0.968515 0.178671
vn -0.000465 0.983444 0.181210
vn 0.099768 0.985802 -0.135059
vn -0.295633 0.796484 0.527460
vn -0.088462 0.797310 0.597052
vn -0.000465 0.983444 0.181210
vn -0.173366 0.968515 0.178671
vn 0.626193 0.776654 -0.068484
vn 0.520187 0.705052 -0.481983
vn 0.089261 0.730770 -0.676763
vn 0.099768 0.985802 -0.135059
vn 0.626193 0.776654 -0.068484
vn 0.099768 0.985802 -0.135059
vn -0.000465 0.983444 0.181210
vn 0.558290 0.796459 0.232304
vn -0.113838 0.677121 -0.727013
vn -0.500685 0.517046 -0.694246
vn -0.587514 0.786782 -0.189214
vn -0.121705 0.980152 -0.156490
vn -0.113838 0.677121 -0.727013
vn -0.121705 0.980152 -0.156490
vn 0.099768 0.985802 -0.135059
vn 0.089261 0.730770 -0.676763
vn -0.546149 0.799407 0.250340
vn -0.404085 0.728920 0.552621
vn -0.295633 0.796484 0.527460
vn -0.173366 0.968515 0.178671
vn -0.546149 0.799407 0.250340
vn -0.173366 0.968515 0.178671
vn -0.121705 0.980152 -0.156490
vn -0.587514 0.786782 -0.189214
vn 0.089261 0.730770 -0.676763
vn 0.520187 0.705052 -0.481983
vn 0.617895 0.438715 -0.652484
vn 0.091198 0.413846 -0.905767
vn -0.113838 0.677121 -0.727013
vn 0.089261 0.730770 -0.676763
vn 0.091198 0.413846 -0.905767
vn -0.159210 0.384112 -0.909456
vn 0.624657 -0.034945 -0.780117
vn 0.388102 -0.722352 -0.572350
vn 0.097030 -0.727614 -0.679090
vn 0.074824 0.034943 -0.996584
vn -0.184070 0.029573 -0.982468
vn -0.159210 0.384112 -0.909456
vn 0.091198 0.413846 -0.905767
vn 0.074824 0.034943 -0.996584
vn 0.624657 -0.034945 -0.780117
vn 0.074824 0.034943 -0.996584
vn 0.091198 0.413846 -0.905767
vn 0.617895 0.438715 -0.652484
vn -0.059204 -0.747804 -0.661275
vn -0.502037 -0.693642 -0.516546
vn -0.730528 0.013624 -0.682747
vn -0.184070 0.029573 -0.982468
vn -0.059204 -0.747804 -0.661275
vn -0.184070 0.029573 -0.982468
vn 0.074824 0.034943 -0.996584
vn 0.097030 -0.727614 -0.679090
vn -0.608615 0.392011 -0.689866
vn -0.500685 0.517046 -0.694246
vn -0.113838 0.677121 -0.727013
vn -0.159210 0.384112 -0.909456
vn -0.608615 0.392011 -0.689866
vn -0.159210 0.384112 -0.909456
vn -0.184070 0.029573 -0.982468
vn -0.730528 0.013624 -0.682747
vn 0.097030 -0.727614 -0.679090
vn 0.388102 -0.722352 -0.572350
vn 0.477596 -0.876631 -0.058479
vn 0.146059 -0.979995 -0.135189
vn -0.050601 -0.992844 0.108172
vn -0.035055 -0.993675 -0.106684
vn 0.146059 -0.979995 -0.135189
vn 0.097272 -0.988194 0.118371
vn -0.059204 -0.747804 -0.661275
vn 0.097030 -0.727614 -0.679090
vn 0.146059 -0.979995 -0.135189
vn -0.035055 -0.993675 -0.106684
vn 0.483629 -0.865941 0.127469
vn 0.438291 -0.743710 0.504773
vn -0.019354 -0.817898 0.575037
vn 0.097272 -0.988194 0.118371
vn 0.483629 -0.865941 0.127469
vn 0.097272 -0.988194 0.118371
vn 0.146059 -0.979995 -0.135189
vn 0.477596 -0.876631 -0.058479
vn -0.177415 -0.820948 0.542742
vn -0.405696 -0.766113 0.498480
vn -0.451169 -0.838591 0.305306
vn -0.050601 -0.992844 0.108172
vn -0.019354 -0.817898 0.575037
vn -0.177415 -0.820948 0.542742
vn -0.050601 -0.992844 0.108172
vn 0.097272 -0.988194 0.118371
vn -0.524087 -0.851066 0.031941
vn -0.502037 -0.693642 -0.516546
vn -0.059204 -0.747804 -0.661275
vn -0.035055 -0.993675 -0.106684
vn -0.524087 -0.851066 0.031941
vn -0.035055 -0.993675 -0.106684
vn -0.050601 -0.992844 0.108172
vn -0.451169 -0.838591 0.305306
vn 0.477596 -0.876631 -0.058479
vn 0.388102 -0.722352 -0.572350
vn 0.624657 -0.034945 -0.780117
vn 0.929050 -0.365532 -0.057028
vn 0.483629 -0.865941 0.127469
vn 0.477596 -0.876631 -0.058479
vn 0.929050 -0.365532 -0.057028
vn 0.912309 -0.161748 0.376206
vn 0.617895 0.438715 -0.652484
vn 0.520187 0.705052 -0.481983
vn 0.626193 0.776654 -0.068484
vn 0.894882 0.443410 -0.050733
vn 0.624657 -0.034945 -0.780117
vn 0.617895 0.438715 -0.652484
vn 0.894882 0.443410 -0.050733
vn 0.929050 -0.365532 -0.057028
vn 0.558290 0.796459 0.232304
vn 0.504892 0.612717 0.607998
vn 0.537757 0.530490 0.655285
vn 0.773269 0.523598 0.357633
vn 0.626193 0.776654 -0.068484
vn 0.558290 0.796459 0.232304
vn 0.773269 0.523598 0.357633
vn 0.894882 0.443410 -0.050733
vn 0.639116 0.075272 0.765418
vn 0.438291 -0.743710 0.504773
vn 0.483629 -0.865941 0.127469
vn 0.912309 -0.161748 0.376206
vn 0.894882 0.443410 -0.050733
vn 0.773269 0.523598 0.357633
vn 0.912309 -0.161748 0.376206
vn 0.929050 -0.365532 -0.057028
vn 0.537757 0.530490 0.655285
vn 0.639116 0.075272 0.765418
vn 0.912309 -0.161748 0.376206
vn 0.773269 0.523598 0.357633
vn -0.451169 -0.838591 0.305306
vn -0.405696 -0.766113 0.498480
vn -0.615659 -0.339302 0.711223
vn -0.852208 -0.250739 0.459208
vn -0.524087 -0.851066 0.031941
vn -0.451169 -0.838591 0.305306
vn -0.852208 -0.250739 0.459208
vn -0.973285 -0.228959 -0.017144
vn -0.608358 0.398449 0.686395
vn -0.404085 0.728920 0.552621
vn -0.546149 0.799407 0.250340
vn -0.809999 0.456146 0.368555
vn -0.615659 -0.339302 0.711223
vn -0.608358 0.398449 0.686395
vn -0.809999 0.456146 0.368555
vn -0.852208 -0.250739 0.459208
vn -0.587514 0.786782 -0.189214
vn -0.500685 0.517046 -0.694246
vn -0.608615 0.392011 -0.689866
vn -0.877369 0.442358 -0.185856
vn -0.546149 0.799407 0.250340
vn -0.587514 0.786782 -0.189214
vn -0.877369 0.442358 -0.185856
vn -0.809999 0.456146 0.368555
vn -0.730528 0.013624 -0.682747
vn -0.502037 -0.693642 -0.516546
vn -0.524087 -0.851066 0.031941
vn -0.973285 -0.228959 -0.017144
vn -0.809999 0.456146 0.368555
vn -0.877369 0.442358 -0.185856
vn -0.973285 -0.228959 -0.017144
vn -0.852208 -0.250739 0.459208
vn -0.608615 0.392011 -0.689866
vn -0.730528 0.013624 -0.682747
vn -0.973285 -0.228959 -0.017144
vn -0.877369 0.442358 -0.185856
s off
g Rocks:JC_Rocks_Natural_A
usemtl lambert2SG
f 10/1/1 2/2/2 19/3/3 33/4/4
f 10/1/5 33/4/6 36/5/7 9/6/8
f 20/7/9 4/8/10 12/9/11 34/10/12
f 35/11/13 36/5/14 33/4/15 34/10/16
f 20/7/17 34/10/18 33/4/19 19/3/20
f 11/12/21 3/13/22 18/14/23 35/11/24
f 11/12/25 35/11/26 34/10/27 12/9/28
f 17/15/29 1/16/30 9/6/31 36/5/32
f 17/15/33 36/5/34 35/11/35 18/14/36
f 12/9/37 4/8/38 23/17/39 37/18/40
f 39/19/41 40/20/42 37/18/43 38/21/44
f 11/12/45 12/9/46 37/18/47 40/20/48
f 24/22/49 6/23/50 14/24/51 38/21/52
f 24/22/53 38/21/54 37/18/55 23/17/56
f 13/25/57 5/26/58 22/27/59 39/19/60
f 13/25/61 39/19/62 38/21/63 14/24/64
f 21/28/65 3/13/66 11/12/67 40/20/68
f 21/28/69 40/20/70 39/19/71 22/27/72
f 14/24/73 6/23/74 27/29/75 41/30/76
f 13/25/77 14/24/78 41/30/79 44/31/80
f 28/32/81 8/33/82 16/34/83 42/35/84
f 43/36/85 44/31/86 41/30/87 42/35/88
f 28/32/89 42/35/90 41/30/91 27/29/92
f 15/37/93 7/38/94 26/39/95 43/36/96
f 15/37/97 43/36/98 42/35/99 16/34/100
f 25/40/101 5/26/102 13/25/103 44/31/104
f 25/40/105 44/31/106 43/36/107 26/39/108
f 16/41/109 8/42/110 31/43/111 45/44/112
f 47/45/113 48/46/114 45/44/115 46/47/116
f 15/48/117 16/41/118 45/44/119 48/46/120
f 32/49/121 2/50/122 10/51/123 46/47/124
f 32/49/125 46/47/126 45/44/127 31/43/128
f 9/52/129 1/53/130 30/54/131 47/45/132
f 10/51/133 9/52/134 47/45/135 46/47/136
f 29/55/137 7/56/138 15/48/139 48/46/140
f 29/55/141 48/46/142 47/45/143 30/54/144
f 31/57/145 8/58/146 28/59/147 49/60/148
f 32/61/149 31/57/150 49/60/151 52/62/152
f 27/63/153 6/23/154 24/22/155 50/64/156
f 28/59/157 27/63/158 50/64/159 49/60/160
f 23/17/161 4/8/162 20/65/163 51/66/164
f 24/22/165 23/17/166 51/66/167 50/64/168
f 19/67/169 2/68/170 32/61/171 52/62/172
f 50/64/173 51/66/174 52/62/175 49/60/176
f 20/65/177 19/67/178 52/62/179 51/66/180
f 30/69/181 1/70/182 17/71/183 53/72/184
f 29/73/185 30/69/186 53/72/187 56/74/188
f 18/75/189 3/13/190 21/28/191 54/76/192
f 17/71/193 18/75/194 54/76/195 53/72/196
f 22/27/197 5/26/198 25/77/199 55/78/200
f 21/28/201 22/27/202 55/78/203 54/76/204
f 26/79/205 7/80/206 29/73/207 56/74/208
f 54/76/209 55/78/210 56/74/211 53/72/212
f 25/77/213 26/79/214 56/74/215 55/78/216
