# This file uses centimeters as units for non-parametric coordinates.

mtllib JC_NaturalRocks_K.mtl
g default
v -1.810263 1.092175 4.983616
v 4.385432 0.729855 4.984298
v -0.563376 4.001015 4.210458
v 3.290530 3.502262 3.764320
v 0.063169 2.657916 -0.578278
v 3.759302 2.421106 -1.072514
v -0.995423 0.583474 -0.501119
v 3.792882 0.724289 -0.821107
v 1.630539 0.291282 5.669380
v 1.730948 4.738092 4.673805
v 2.006892 3.484586 -2.257619
v 1.901726 -0.051999 -1.199453
v -1.660352 2.383842 5.275089
v 4.926891 2.133042 5.269479
v -1.162263 1.463983 -0.956193
v 4.654499 1.576370 -1.393242
v 1.705085 2.415390 6.447529
v 2.008162 1.683010 -2.797211
v 3.261091 0.365228 5.528791
v 2.593954 4.087668 4.284544
v 2.981820 3.051342 -2.301695
v 2.655274 0.236915 -1.152453
v -0.649810 3.980521 3.528206
v -0.308194 3.303388 -0.087731
v 3.850867 3.484242 2.822996
v 4.006250 3.104235 -0.432907
v -1.962833 0.415447 0.720310
v -2.270088 0.904132 3.945555
v 4.443395 0.642549 0.326770
v 4.876223 0.474256 3.776984
v 3.557711 2.225245 6.235001
v 1.761750 5.220891 3.393852
v 1.518215 4.236447 -0.914280
v 3.370950 1.703835 -2.670757
v 1.803844 -0.418877 0.185405
v 1.526739 -0.563411 3.966812
v 5.405944 1.925729 -0.173040
v 5.852936 1.977613 3.534409
v -2.351813 2.242572 4.068126
v -2.480561 1.125429 0.828216
v 2.860343 4.466177 3.152179
v 2.483708 3.541033 -0.980887
v 3.033974 -0.109300 0.204394
v 3.380102 -0.104086 3.842783
vt 0.962900 0.254330
vt 0.943951 0.264599
vt 0.939615 0.244486
vt 0.951230 0.242650
vt 0.925454 0.244054
vt 0.921989 0.265767
vt 0.947191 0.197443
vt 0.938989 0.194313
vt 0.951027 0.170861
vt 0.966237 0.181063
vt 0.931384 0.169486
vt 0.930831 0.194039
vt 0.912748 0.194600
vt 0.899202 0.180713
vt 0.888672 0.249246
vt 0.894044 0.237560
vt 0.951303 0.206777
vt 0.940078 0.203892
vt 0.930926 0.202027
vt 0.950272 0.236012
vt 0.949285 0.245233
vt 0.936525 0.249960
vt 0.936446 0.238133
vt 0.930326 0.246251
vt 0.927613 0.235142
vt 0.910848 0.237502
vt 0.911231 0.230090
vt 0.911546 0.199741
vt 0.960058 0.252908
vt 0.941274 0.262355
vt 0.925401 0.261416
vt 0.952109 0.183472
vt 0.939204 0.181402
vt 0.948901 0.159383
vt 0.964913 0.175088
vt 0.932613 0.158090
vt 0.931844 0.182061
vt 0.903117 0.185968
vt 0.898429 0.176721
vt 0.895860 0.242689
vt 0.957652 0.196437
vt 0.942011 0.195005
vt 0.930342 0.194655
vt 0.956707 0.231146
vt 0.942296 0.229209
vt 0.926138 0.228106
vt 0.890949 0.228379
vt 0.894488 0.198150
vt 0.975277 0.190690
vt 0.975441 0.232776
vt 0.968355 0.237886
vt 0.975775 0.200406
vt 0.878953 0.233648
vt 0.885698 0.198243
vt 0.890913 0.193179
vt 0.883188 0.224565
vn 0.510821 -0.367331 0.777258
vn 0.510821 -0.367331 0.777258
vn 0.510821 -0.367331 0.777258
vn 0.510821 -0.367331 0.777258
vn -0.151759 -0.643861 0.749941
vn 0.255071 -0.663131 0.703702
vn 0.435790 0.258080 0.862254
vn -0.110278 0.232774 0.966258
vn 0.554825 0.771249 0.311999
vn 0.483228 0.714644 0.505742
vn 0.435790 0.258080 0.862254
vn 0.746126 0.379685 0.546932
vn -0.110278 0.232774 0.966258
vn 0.435790 0.258080 0.862254
vn 0.483228 0.714644 0.505742
vn -0.067515 0.760322 0.646028
vn -0.110278 0.232774 0.966258
vn -0.067515 0.760322 0.646028
vn -0.405719 0.713794 0.570868
vn -0.460849 0.224435 0.858631
vn -0.110278 0.232774 0.966258
vn -0.460849 0.224435 0.858631
vn -0.418163 -0.584824 0.695069
vn -0.151759 -0.643861 0.749941
vn 0.483228 0.714644 0.505742
vn 0.554825 0.771249 0.311999
vn 0.574898 0.817954 -0.021062
vn 0.569959 0.817136 -0.086229
vn -0.124398 0.985598 -0.114547
vn -0.067515 0.760322 0.646028
vn 0.483228 0.714644 0.505742
vn 0.569959 0.817136 -0.086229
vn 0.576687 0.795296 -0.186914
vn 0.624270 0.625258 -0.468336
vn 0.455272 0.588284 -0.668318
vn 0.525190 0.821996 -0.220223
vn 0.455272 0.588284 -0.668318
vn -0.317542 0.596877 -0.736821
vn -0.162488 0.927323 -0.337151
vn 0.525190 0.821996 -0.220223
vn 0.569959 0.817136 -0.086229
vn 0.525190 0.821996 -0.220223
vn -0.162488 0.927323 -0.337151
vn -0.124398 0.985598 -0.114547
vn 0.576687 0.795296 -0.186914
vn 0.525190 0.821996 -0.220223
vn 0.569959 0.817136 -0.086229
vn 0.574898 0.817954 -0.021062
vn -0.602067 0.474386 -0.642241
vn -0.613361 0.739777 -0.276619
vn -0.162488 0.927323 -0.337151
vn -0.317542 0.596877 -0.736821
vn -0.405719 0.713794 0.570868
vn -0.067515 0.760322 0.646028
vn -0.124398 0.985598 -0.114547
vn -0.618069 0.777481 -0.116255
vn -0.162488 0.927323 -0.337151
vn -0.613361 0.739777 -0.276619
vn -0.618069 0.777481 -0.116255
vn -0.124398 0.985598 -0.114547
vn 0.761724 -0.230805 -0.605398
vn 0.506417 -0.216258 -0.834730
vn 0.455272 0.588284 -0.668318
vn 0.624270 0.625258 -0.468336
vn -0.317542 0.596877 -0.736821
vn 0.455272 0.588284 -0.668318
vn 0.506417 -0.216258 -0.834730
vn -0.344391 -0.127049 -0.930190
vn 0.503262 -0.765907 -0.400142
vn 0.311370 -0.802237 -0.509377
vn 0.506417 -0.216258 -0.834730
vn 0.761724 -0.230805 -0.605398
vn -0.344391 -0.127049 -0.930190
vn 0.506417 -0.216258 -0.834730
vn 0.311370 -0.802237 -0.509377
vn -0.177342 -0.794584 -0.580678
vn -0.344391 -0.127049 -0.930190
vn -0.177342 -0.794584 -0.580678
vn -0.372514 -0.750618 -0.545716
vn -0.605776 -0.036626 -0.794792
vn -0.344391 -0.127049 -0.930190
vn -0.605776 -0.036626 -0.794792
vn -0.602067 0.474386 -0.642241
vn -0.317542 0.596877 -0.736821
vn 0.311370 -0.802237 -0.509377
vn 0.503262 -0.765907 -0.400142
vn 0.633458 -0.761577 -0.136867
vn 0.339887 -0.934959 -0.101626
vn -0.121414 -0.990172 -0.069413
vn -0.177342 -0.794584 -0.580678
vn 0.311370 -0.802237 -0.509377
vn 0.339887 -0.934959 -0.101626
vn 0.666735 -0.743272 0.054870
vn 0.599510 -0.581206 0.550261
vn 0.255071 -0.663131 0.703702
vn 0.313006 -0.946835 0.074365
vn 0.255071 -0.663131 0.703702
vn -0.151759 -0.643861 0.749941
vn -0.148190 -0.980885 0.126115
vn 0.313006 -0.946835 0.074365
vn 0.339887 -0.934959 -0.101626
vn 0.313006 -0.946835 0.074365
vn -0.148190 -0.980885 0.126115
vn -0.121414 -0.990172 -0.069413
vn 0.666735 -0.743272 0.054870
vn 0.313006 -0.946835 0.074365
vn 0.339887 -0.934959 -0.101626
vn 0.633458 -0.761577 -0.136867
vn -0.151759 -0.643861 0.749941
vn -0.418163 -0.584824 0.695069
vn -0.499737 -0.854294 0.142986
vn -0.148190 -0.980885 0.126115
vn -0.372514 -0.750618 -0.545716
vn -0.177342 -0.794584 -0.580678
vn -0.121414 -0.990172 -0.069413
vn -0.435355 -0.897790 -0.066631
vn -0.148190 -0.980885 0.126115
vn -0.499737 -0.854294 0.142986
vn -0.435355 -0.897790 -0.066631
vn -0.121414 -0.990172 -0.069413
vn 0.503262 -0.765907 -0.400142
vn 0.761724 -0.230805 -0.605398
vn 0.943232 0.255906 -0.211722
vn 0.633458 -0.761577 -0.136867
vn 0.633458 -0.761577 -0.136867
vn 0.943232 0.255906 -0.211722
vn 0.975007 0.216369 0.050459
vn 0.666735 -0.743272 0.054870
vn 0.761724 -0.230805 -0.605398
vn 0.624270 0.625258 -0.468336
vn 0.576687 0.795296 -0.186914
vn 0.943232 0.255906 -0.211722
vn 0.554825 0.771249 0.311999
vn 0.746126 0.379685 0.546932
vn 0.975007 0.216369 0.050459
vn 0.574898 0.817954 -0.021062
vn 0.943232 0.255906 -0.211722
vn 0.576687 0.795296 -0.186914
vn 0.574898 0.817954 -0.021062
vn 0.975007 0.216369 0.050459
vn 0.746126 0.379685 0.546932
vn 0.599510 -0.581206 0.550261
vn 0.666735 -0.743272 0.054870
vn 0.975007 0.216369 0.050459
vn -0.418163 -0.584824 0.695069
vn -0.460849 0.224435 0.858631
vn -0.868125 0.494651 -0.040979
vn -0.499737 -0.854294 0.142986
vn -0.499737 -0.854294 0.142986
vn -0.868125 0.494651 -0.040979
vn -0.893904 0.385826 -0.228197
vn -0.435355 -0.897790 -0.066631
vn -0.460849 0.224435 0.858631
vn -0.405719 0.713794 0.570868
vn -0.618069 0.777481 -0.116255
vn -0.868125 0.494651 -0.040979
vn -0.602067 0.474386 -0.642241
vn -0.605776 -0.036626 -0.794792
vn -0.893904 0.385826 -0.228197
vn -0.613361 0.739777 -0.276619
vn -0.868125 0.494651 -0.040979
vn -0.618069 0.777481 -0.116255
vn -0.613361 0.739777 -0.276619
vn -0.893904 0.385826 -0.228197
vn -0.605776 -0.036626 -0.794792
vn -0.372514 -0.750618 -0.545716
vn -0.435355 -0.897790 -0.066631
vn -0.893904 0.385826 -0.228197
s off
g Rocks:JC_Rocks_Natural_K
usemtl lambert2SG
f 14/1/1 31/2/2 19/3/3 2/4/4
f 9/5/5 19/3/6 31/2/7 17/6/8
f 4/7/9 20/8/10 31/9/11 14/10/12
f 17/11/13 31/9/14 20/8/15 10/12/16
f 17/11/17 10/12/18 3/13/19 13/14/20
f 17/6/21 13/15/22 1/16/23 9/5/24
f 20/8/25 4/7/26 25/17/27 41/18/28
f 32/19/29 10/12/30 20/8/31 41/18/32
f 26/20/33 6/21/34 21/22/35 42/23/36
f 21/22/37 11/24/38 33/25/39 42/23/40
f 41/18/41 42/23/42 33/25/43 32/19/44
f 26/20/45 42/23/46 41/18/47 25/17/48
f 5/26/49 24/27/50 33/25/51 11/24/52
f 3/13/53 10/12/54 32/19/55 23/28/56
f 33/25/57 24/27/58 23/28/59 32/19/60
f 16/29/61 34/30/62 21/22/63 6/21/64
f 11/24/65 21/22/66 34/30/67 18/31/68
f 8/32/69 22/33/70 34/34/71 16/35/72
f 18/36/73 34/34/74 22/33/75 12/37/76
f 18/36/77 12/37/78 7/38/79 15/39/80
f 18/31/81 15/40/82 5/26/83 11/24/84
f 22/33/85 8/32/86 29/41/87 43/42/88
f 35/43/89 12/37/90 22/33/91 43/42/92
f 30/44/93 2/4/94 19/3/95 44/45/96
f 19/3/97 9/5/98 36/46/99 44/45/100
f 43/42/101 44/45/102 36/46/103 35/43/104
f 30/44/105 44/45/106 43/42/107 29/41/108
f 9/5/109 1/16/110 28/47/111 36/46/112
f 7/38/113 12/37/114 35/43/115 27/48/116
f 36/46/117 28/47/118 27/48/119 35/43/120
f 8/32/121 16/35/122 37/49/123 29/41/124
f 29/41/125 37/49/126 38/50/127 30/44/128
f 16/29/129 6/21/130 26/20/131 37/51/132
f 4/7/133 14/10/134 38/52/135 25/17/136
f 37/51/137 26/20/138 25/17/139 38/52/140
f 14/1/141 2/4/142 30/44/143 38/50/144
f 1/16/145 13/15/146 39/53/147 28/47/148
f 28/47/149 39/53/150 40/54/151 27/48/152
f 13/14/153 3/13/154 23/28/155 39/55/156
f 5/26/157 15/40/158 40/56/159 24/27/160
f 39/55/161 23/28/162 24/27/163 40/56/164
f 15/39/165 7/38/166 27/48/167 40/54/168
