# This file uses centimeters as units for non-parametric coordinates.

mtllib JC_NaturalRocks_G.mtl
g default
v 3.731845 -0.003778 2.183256
v 12.039820 0.074548 3.855962
v 3.014038 1.296918 1.205241
v 10.710599 1.256813 3.138980
v 2.885395 1.364801 -3.915246
v 11.058097 1.195511 -4.132300
v 2.887513 0.285093 -3.737703
v 11.951650 0.042915 -3.929550
v 7.731137 0.130455 4.968159
v 6.789293 2.072511 3.638758
v 6.808247 2.199654 -4.909305
v 7.731500 0.143490 -4.768543
v 2.580702 0.243202 2.974417
v 13.436249 0.525008 4.907211
v 1.833617 1.444291 -1.247310
v 12.388931 1.511598 -0.252968
v 1.602971 0.659248 -4.753935
v 13.332489 0.518588 -4.918942
v 1.879319 -0.032952 -0.502121
v 13.653996 -0.297071 0.020063
v 7.672185 0.755132 6.555386
v 6.415393 2.897171 -0.907292
v 7.676088 0.784475 -6.559899
v 7.810884 -0.383468 0.106402
v 16.090054 0.636335 0.107796
v -0.608125 0.282217 0.088200
v 5.149419 -0.066512 3.907241
v 10.259211 0.163083 4.607880
v 4.267334 1.718621 2.719978
v 9.379233 1.905271 3.605539
v 4.827671 1.612105 -4.421802
v 9.892874 1.630986 -4.589663
v 4.877889 0.226933 -4.414913
v 10.435795 0.091133 -4.488508
v 10.417809 0.718358 6.220702
v 4.607782 0.567002 5.317665
v 9.783274 2.670799 -0.939210
v 3.537364 2.455367 -1.199206
v 10.629479 0.630276 -6.226158
v 4.409875 0.714889 -6.093538
v 11.056708 -0.325753 0.081394
v 4.564406 -0.215105 -0.224397
vt 0.067723 0.121394
vt 0.074004 0.135828
vt 0.066291 0.136587
vt 0.062696 0.128072
vt 0.068014 0.148676
vt 0.075604 0.148958
vt 0.059415 0.134428
vt 0.061646 0.140795
vt 0.074151 0.135828
vt 0.067870 0.121394
vt 0.075752 0.148958
vt 0.061805 0.153180
vt 0.058628 0.173305
vt 0.069833 0.163612
vt 0.057411 0.165240
vt 0.050168 0.171233
vt 0.054697 0.167800
vt 0.062941 0.161022
vt 0.069686 0.163612
vt 0.058480 0.173305
vt 0.043194 0.126402
vt 0.039913 0.138863
vt 0.040066 0.154968
vt 0.024644 0.132766
vt 0.022457 0.138338
vt 0.020928 0.153089
vt 0.038440 0.176878
vt 0.038670 0.168730
vt 0.023259 0.162560
vt 0.025682 0.171848
vt 0.020882 0.121890
vt 0.014631 0.134816
vt 0.013035 0.148939
vt 0.025466 0.128493
vt 0.022793 0.135742
vt 0.014483 0.134816
vt 0.020734 0.121890
vt 0.012887 0.148939
vt 0.021454 0.148674
vt 0.021523 0.177981
vt 0.015117 0.164558
vt 0.023145 0.162320
vt 0.026383 0.171838
vt 0.015265 0.164558
vt 0.021671 0.177981
vt 0.044352 0.120353
vt 0.044646 0.132773
vt 0.044765 0.148295
vt 0.041856 0.176659
vt 0.043184 0.163819
vt 0.044772 0.108704
vt 0.044920 0.108704
vt 0.044678 0.188554
vt 0.044826 0.188554
vn 0.078511 -0.946944 0.311661
vn 0.078511 -0.946944 0.311661
vn 0.078511 -0.946944 0.311661
vn 0.078511 -0.946944 0.311661
vn -0.004820 -0.983014 0.183465
vn 0.032017 -0.984106 0.174670
vn 0.299351 0.593825 0.746834
vn -0.087436 0.523133 0.847754
vn 0.276784 0.943726 0.181029
vn 0.160971 0.955643 0.246648
vn 0.299351 0.593825 0.746834
vn 0.604971 0.635281 0.480029
vn -0.087436 0.523133 0.847754
vn 0.299351 0.593825 0.746834
vn 0.160971 0.955643 0.246648
vn -0.074832 0.953261 0.292734
vn -0.783290 -0.127355 0.608472
vn -0.499835 0.359897 0.787807
vn -0.326459 0.896643 0.299093
vn -0.450582 0.838423 0.306632
vn -0.087436 0.523133 0.847754
vn -0.074832 0.953261 0.292734
vn -0.326459 0.896643 0.299093
vn -0.499835 0.359897 0.787807
vn -0.115985 -0.987968 0.102309
vn -0.062207 -0.986828 0.149333
vn -0.499835 0.359897 0.787807
vn -0.783290 -0.127355 0.608472
vn -0.004820 -0.983014 0.183465
vn -0.087436 0.523133 0.847754
vn -0.499835 0.359897 0.787807
vn -0.062207 -0.986828 0.149333
vn 0.272574 0.962065 0.011558
vn 0.226305 0.973881 -0.018474
vn 0.160971 0.955643 0.246648
vn 0.276784 0.943726 0.181029
vn -0.074832 0.953261 0.292734
vn 0.160971 0.955643 0.246648
vn 0.226305 0.973881 -0.018474
vn -0.041489 0.999139 0.000742
vn 0.313873 0.925771 -0.210788
vn 0.222385 0.923726 -0.311891
vn 0.226305 0.973881 -0.018474
vn 0.272574 0.962065 0.011558
vn -0.041489 0.999139 0.000742
vn 0.226305 0.973881 -0.018474
vn 0.222385 0.923726 -0.311891
vn -0.017465 0.934931 -0.354400
vn -0.432126 0.901739 0.011562
vn -0.301494 0.953389 -0.012286
vn -0.231700 0.903943 -0.359447
vn -0.356445 0.892620 -0.276001
vn -0.041489 0.999139 0.000742
vn -0.017465 0.934931 -0.354400
vn -0.231700 0.903943 -0.359447
vn -0.301494 0.953389 -0.012286
vn -0.450582 0.838423 0.306632
vn -0.326459 0.896643 0.299093
vn -0.301494 0.953389 -0.012286
vn -0.432126 0.901739 0.011562
vn -0.074832 0.953261 0.292734
vn -0.041489 0.999139 0.000742
vn -0.301494 0.953389 -0.012286
vn -0.326459 0.896643 0.299093
vn 0.688707 0.513810 -0.511549
vn 0.314053 -0.001309 -0.949405
vn 0.222385 0.923726 -0.311891
vn 0.313873 0.925771 -0.210788
vn -0.017465 0.934931 -0.354400
vn 0.222385 0.923726 -0.311891
vn 0.314053 -0.001309 -0.949405
vn 0.021210 -0.029324 -0.999345
vn 0.142058 -0.976504 -0.162048
vn 0.017074 -0.986557 -0.162521
vn 0.314053 -0.001309 -0.949405
vn 0.688707 0.513810 -0.511549
vn 0.021210 -0.029324 -0.999345
vn 0.314053 -0.001309 -0.949405
vn 0.017074 -0.986557 -0.162521
vn -0.019405 -0.985511 -0.168496
vn -0.780276 -0.140026 -0.609559
vn -0.327332 -0.176646 -0.928251
vn -0.053820 -0.984934 -0.164340
vn -0.106024 -0.982582 -0.152614
vn 0.021210 -0.029324 -0.999345
vn -0.019405 -0.985511 -0.168496
vn -0.053820 -0.984934 -0.164340
vn -0.327332 -0.176646 -0.928251
vn -0.356445 0.892620 -0.276001
vn -0.231700 0.903943 -0.359447
vn -0.327332 -0.176646 -0.928251
vn -0.780276 -0.140026 -0.609559
vn -0.017465 0.934931 -0.354400
vn 0.021210 -0.029324 -0.999345
vn -0.327332 -0.176646 -0.928251
vn -0.231700 0.903943 -0.359447
vn 0.201915 -0.979401 -0.001985
vn 0.010376 -0.999935 0.004695
vn 0.017074 -0.986557 -0.162521
vn 0.142058 -0.976504 -0.162048
vn -0.019405 -0.985511 -0.168496
vn 0.017074 -0.986557 -0.162521
vn 0.010376 -0.999935 0.004695
vn -0.005916 -0.999968 -0.005344
vn 0.129917 -0.976873 0.169825
vn 0.032017 -0.984106 0.174670
vn 0.010376 -0.999935 0.004695
vn 0.201915 -0.979401 -0.001985
vn -0.005916 -0.999968 -0.005344
vn 0.010376 -0.999935 0.004695
vn 0.032017 -0.984106 0.174670
vn -0.004820 -0.983014 0.183465
vn -0.115671 -0.992165 -0.047204
vn -0.045422 -0.998465 -0.031691
vn -0.062207 -0.986828 0.149333
vn -0.115985 -0.987968 0.102309
vn -0.005916 -0.999968 -0.005344
vn -0.004820 -0.983014 0.183465
vn -0.062207 -0.986828 0.149333
vn -0.045422 -0.998465 -0.031691
vn -0.106024 -0.982582 -0.152614
vn -0.053820 -0.984934 -0.164340
vn -0.045422 -0.998465 -0.031691
vn -0.115671 -0.992165 -0.047204
vn -0.019405 -0.985511 -0.168496
vn -0.005916 -0.999968 -0.005344
vn -0.045422 -0.998465 -0.031691
vn -0.053820 -0.984934 -0.164340
vn 0.776695 0.629040 0.032457
vn 0.201915 -0.979401 -0.001985
vn 0.142058 -0.976504 -0.162048
vn 0.688707 0.513810 -0.511549
vn 0.776695 0.629040 0.032457
vn 0.688707 0.513810 -0.511549
vn 0.313873 0.925771 -0.210788
vn 0.272574 0.962065 0.011558
vn 0.776695 0.629040 0.032457
vn 0.272574 0.962065 0.011558
vn 0.276784 0.943726 0.181029
vn 0.604971 0.635281 0.480029
vn 0.776695 0.629040 0.032457
vn 0.604971 0.635281 0.480029
vn 0.129917 -0.976873 0.169825
vn 0.201915 -0.979401 -0.001985
vn -0.971875 -0.029115 0.233689
vn -0.115671 -0.992165 -0.047204
vn -0.115985 -0.987968 0.102309
vn -0.783290 -0.127355 0.608472
vn -0.971875 -0.029115 0.233689
vn -0.783290 -0.127355 0.608472
vn -0.450582 0.838423 0.306632
vn -0.432126 0.901739 0.011562
vn -0.971875 -0.029115 0.233689
vn -0.432126 0.901739 0.011562
vn -0.356445 0.892620 -0.276001
vn -0.780276 -0.140026 -0.609559
vn -0.971875 -0.029115 0.233689
vn -0.780276 -0.140026 -0.609559
vn -0.106024 -0.982582 -0.152614
vn -0.115671 -0.992165 -0.047204
s off
g Rocks:JC_Rocks_Natural_G
usemtl lambert2SG
f 14/1/1 35/2/2 28/3/3 2/4/4
f 9/5/5 28/3/6 35/2/7 21/6/8
f 4/7/9 30/8/10 35/9/11 14/10/12
f 21/11/13 35/9/14 30/8/15 10/12/16
f 13/13/17 36/14/18 29/15/19 3/16/20
f 21/11/21 10/12/22 29/15/23 36/14/24
f 1/17/25 27/18/26 36/19/27 13/20/28
f 9/5/29 21/6/30 36/19/31 27/18/32
f 16/21/33 37/22/34 30/8/35 4/7/36
f 10/12/37 30/8/38 37/22/39 22/23/40
f 6/24/41 32/25/42 37/22/43 16/21/44
f 22/23/45 37/22/46 32/25/47 11/26/48
f 15/27/49 38/28/50 31/29/51 5/30/52
f 22/23/53 11/26/54 31/29/55 38/28/56
f 3/16/57 29/15/58 38/28/59 15/27/60
f 10/12/61 22/23/62 38/28/63 29/15/64
f 18/31/65 39/32/66 32/25/67 6/24/68
f 11/26/69 32/25/70 39/32/71 23/33/72
f 8/34/73 34/35/74 39/36/75 18/37/76
f 23/38/77 39/36/78 34/35/79 12/39/80
f 17/40/81 40/41/82 33/42/83 7/43/84
f 23/38/85 12/39/86 33/42/87 40/41/88
f 5/30/89 31/29/90 40/44/91 17/45/92
f 11/26/93 23/33/94 40/44/95 31/29/96
f 20/46/97 41/47/98 34/35/99 8/34/100
f 12/39/101 34/35/102 41/47/103 24/48/104
f 2/4/105 28/3/106 41/47/107 20/46/108
f 24/48/109 41/47/110 28/3/111 9/5/112
f 19/49/113 42/50/114 27/18/115 1/17/116
f 24/48/117 9/5/118 27/18/119 42/50/120
f 7/43/121 33/42/122 42/50/123 19/49/124
f 12/39/125 24/48/126 42/50/127 33/42/128
f 25/51/129 20/46/130 8/34/131 18/37/132
f 25/52/133 18/31/134 6/24/135 16/21/136
f 25/52/137 16/21/138 4/7/139 14/10/140
f 25/51/141 14/1/142 2/4/143 20/46/144
f 26/53/145 19/49/146 1/17/147 13/20/148
f 26/54/149 13/13/150 3/16/151 15/27/152
f 26/54/153 15/27/154 5/30/155 17/45/156
f 26/53/157 17/40/158 7/43/159 19/49/160
