# This file uses centimeters as units for non-parametric coordinates.

mtllib JC_NaturalRocks_F.mtl
g default
v 2.475810 -0.003778 0.745832
v 7.987554 0.074548 1.317254
v 1.999598 1.296918 0.411728
v 7.105711 1.256813 1.072322
v 1.914251 1.364801 -1.337507
v 7.336254 1.195511 -1.411655
v 1.915658 0.285093 -1.276855
v 7.929059 0.042915 -1.342393
v 1.712110 0.243202 1.016105
v 8.913984 0.525008 1.676376
v 1.216473 1.444291 -0.426100
v 8.219165 1.511598 -0.086418
v 1.063455 0.659248 -1.624015
v 8.845146 0.518588 -1.680384
v 1.246792 -0.032952 -0.171532
v 9.058443 -0.297071 0.006854
v 10.674591 0.636335 0.036825
v -0.403448 0.282217 0.030130
v 3.416269 -0.066512 1.334771
v 6.806250 0.163083 1.574120
v 2.831070 1.718621 0.929185
v 6.222445 1.905271 1.231706
v 3.202811 1.612105 -1.510553
v 6.563210 1.630986 -1.567897
v 3.236130 0.226933 -1.508200
v 6.923399 0.091133 -1.533341
v 1.826736 0.633624 0.754393
v 8.332803 0.886497 1.524718
v 1.598729 1.323135 0.024554
v 1.355894 1.426526 -0.950161
v 7.886334 1.328641 0.655428
v 7.918622 1.353914 -0.872578
v 1.344758 1.029126 -1.524770
v 8.283575 0.856654 -1.600626
v 1.361531 0.128235 -0.783728
v 1.855279 -0.087526 0.342937
v 8.658629 -0.157346 -0.789433
v 8.673969 -0.162219 0.784636
v 6.911466 0.718358 2.125084
v 3.056930 0.567002 1.816593
v 6.490499 2.670799 -0.320848
v 2.346787 2.455367 -0.409667
v 7.051895 0.630276 -2.126948
v 2.925636 0.714889 -2.081643
v 7.335330 -0.325753 0.027806
v 3.028155 -0.215105 -0.076657
v 10.244308 0.565191 -0.884312
v 10.010527 0.966883 -0.004659
v 10.261836 0.577027 0.943693
v 0.228969 0.237696 0.689227
v -0.008247 0.753719 -0.053644
v -0.043445 0.415933 -0.870987
v 6.526089 1.234028 1.883134
v 3.010617 1.083427 1.509896
v 6.270735 2.405408 0.389297
v 6.528400 2.321269 -0.944416
v 2.819528 2.079329 -0.935493
v 2.437451 2.298026 0.208806
v 6.808220 1.032584 -1.993510
v 3.080514 1.127209 -1.937057
v 7.088160 -0.203662 -0.830014
v 6.969353 -0.127918 0.858675
v 3.281595 -0.240878 0.627368
v 3.089744 -0.015609 -0.803243
v 9.610555 0.845937 -0.860400
v 9.635879 0.846888 0.841629
v 0.642317 0.605627 0.429289
v 0.310821 0.790963 -0.850244
vt 0.975021 0.039230
vt 0.981230 0.059115
vt 0.973726 0.060515
vt 0.970387 0.049238
vt 0.979789 0.095921
vt 0.972271 0.092575
vt 0.888858 0.047213
vt 0.894426 0.059421
vt 0.895543 0.069032
vt 0.887396 0.066104
vt 0.881986 0.062467
vt 0.885620 0.040196
vt 0.898293 0.097914
vt 0.901154 0.107270
vt 0.894997 0.111437
vt 0.890559 0.097619
vt 0.890606 0.113910
vt 0.884939 0.098162
vt 0.967828 0.101999
vt 0.971348 0.109587
vt 0.899077 0.052349
vt 0.903442 0.068919
vt 0.907187 0.049624
vt 0.909324 0.067364
vt 0.910828 0.100287
vt 0.905963 0.099903
vt 0.915766 0.051803
vt 0.922137 0.056811
vt 0.922119 0.065047
vt 0.914726 0.066443
vt 0.922557 0.094241
vt 0.921023 0.106563
vt 0.916510 0.111375
vt 0.916172 0.097025
vt 0.911151 0.112827
vt 0.905503 0.110532
vt 0.924588 0.046742
vt 0.928393 0.062122
vt 0.926653 0.039807
vt 0.932171 0.059423
vt 0.932352 0.097372
vt 0.928330 0.095651
vt 0.944022 0.051359
vt 0.942671 0.061167
vt 0.934867 0.060544
vt 0.938277 0.041963
vt 0.943626 0.117108
vt 0.938060 0.099583
vt 0.944905 0.096007
vt 0.947616 0.108460
vt 0.923637 0.112878
vt 0.926515 0.117079
vt 0.949340 0.044298
vt 0.949825 0.059120
vt 0.956759 0.040366
vt 0.957914 0.056319
vt 0.959176 0.096977
vt 0.952026 0.096886
vt 0.964375 0.043280
vt 0.966231 0.059345
vt 0.963924 0.108035
vt 0.965640 0.094219
vt 0.959139 0.114137
vt 0.952957 0.113411
vt 0.946376 0.026719
vt 0.956059 0.021590
vt 0.915696 0.032810
vt 0.905897 0.029170
vt 0.905320 0.020818
vt 0.916228 0.025031
vt 0.896326 0.032904
vt 0.894692 0.025182
vt 0.966043 0.025492
vt 0.967852 0.124325
vt 0.961313 0.130651
vt 0.901247 0.122769
vt 0.908316 0.127747
vt 0.907211 0.134378
vt 0.898297 0.128781
vt 0.916659 0.124303
vt 0.917770 0.130083
vt 0.952141 0.127430
vn 0.089636 -0.717252 0.691025
vn 0.089636 -0.717252 0.691025
vn 0.089636 -0.717252 0.691025
vn 0.089636 -0.717252 0.691025
vn 0.015247 -0.816499 0.577145
vn 0.045831 -0.227039 0.972807
vn -0.189610 -0.187029 0.963882
vn -0.040091 -0.828342 0.558787
vn 0.241280 0.806466 0.539812
vn 0.379259 0.811637 0.444307
vn 0.021707 0.760899 0.648507
vn 0.010459 0.637146 0.770672
vn 0.045831 -0.227039 0.972807
vn 0.360508 -0.326180 0.873865
vn 0.241280 0.806466 0.539812
vn 0.010459 0.637146 0.770672
vn -0.194492 0.719720 0.666465
vn -0.545825 0.490886 0.679048
vn -0.446814 0.553832 0.702586
vn -0.221222 0.569815 0.791437
vn -0.446814 0.553832 0.702586
vn -0.372348 -0.384324 0.844779
vn -0.189610 -0.187029 0.963882
vn -0.221222 0.569815 0.791437
vn 0.010459 0.637146 0.770672
vn -0.221222 0.569815 0.791437
vn -0.189610 -0.187029 0.963882
vn 0.045831 -0.227039 0.972807
vn -0.194492 0.719720 0.666465
vn -0.221222 0.569815 0.791437
vn 0.010459 0.637146 0.770672
vn 0.021707 0.760899 0.648507
vn -0.213614 -0.857168 0.468649
vn -0.040091 -0.828342 0.558787
vn -0.189610 -0.187029 0.963882
vn -0.372348 -0.384324 0.844779
vn 0.021707 0.760899 0.648507
vn 0.379259 0.811637 0.444307
vn 0.317180 0.860624 0.398401
vn 0.090135 0.877609 0.470827
vn 0.317180 0.860624 0.398401
vn 0.390286 0.919981 0.036224
vn 0.174204 0.980585 -0.090034
vn 0.090135 0.877609 0.470827
vn 0.090135 0.877609 0.470827
vn 0.174204 0.980585 -0.090034
vn -0.228779 0.970929 -0.070402
vn -0.196293 0.855867 0.478499
vn -0.194492 0.719720 0.666465
vn 0.021707 0.760899 0.648507
vn 0.090135 0.877609 0.470827
vn -0.196293 0.855867 0.478499
vn 0.386769 0.820423 -0.421089
vn 0.374390 0.727769 -0.574617
vn 0.077909 0.675485 -0.733246
vn 0.136732 0.786570 -0.602173
vn 0.174204 0.980585 -0.090034
vn 0.390286 0.919981 0.036224
vn 0.386769 0.820423 -0.421089
vn 0.136732 0.786570 -0.602173
vn -0.058499 0.682099 -0.728916
vn -0.266525 0.710324 -0.651464
vn -0.440931 0.763501 -0.471854
vn -0.111257 0.783996 -0.610715
vn -0.440931 0.763501 -0.471854
vn -0.526493 0.846941 0.074133
vn -0.228779 0.970929 -0.070402
vn -0.111257 0.783996 -0.610715
vn 0.136732 0.786570 -0.602173
vn -0.111257 0.783996 -0.610715
vn -0.228779 0.970929 -0.070402
vn 0.174204 0.980585 -0.090034
vn -0.058499 0.682099 -0.728916
vn -0.111257 0.783996 -0.610715
vn 0.136732 0.786570 -0.602173
vn 0.077909 0.675485 -0.733246
vn -0.478057 0.644231 0.597015
vn -0.545825 0.490886 0.679048
vn -0.194492 0.719720 0.666465
vn -0.196293 0.855867 0.478499
vn -0.228779 0.970929 -0.070402
vn -0.526493 0.846941 0.074133
vn -0.478057 0.644231 0.597015
vn -0.196293 0.855867 0.478499
vn 0.077909 0.675485 -0.733246
vn 0.374390 0.727769 -0.574617
vn 0.269459 0.741801 -0.614103
vn 0.067321 0.524478 -0.848758
vn 0.269459 0.741801 -0.614103
vn 0.382409 -0.377809 -0.843222
vn 0.055400 -0.429689 -0.901276
vn 0.067321 0.524478 -0.848758
vn 0.067321 0.524478 -0.848758
vn 0.055400 -0.429689 -0.901276
vn -0.093401 -0.407399 -0.908462
vn -0.062552 0.511504 -0.857001
vn -0.058499 0.682099 -0.728916
vn 0.077909 0.675485 -0.733246
vn 0.067321 0.524478 -0.848758
vn -0.062552 0.511504 -0.857001
vn 0.130451 -0.823167 -0.552611
vn -0.009920 -0.848287 -0.529443
vn 0.055400 -0.429689 -0.901276
vn 0.382409 -0.377809 -0.843222
vn -0.345993 -0.446056 -0.825423
vn -0.093401 -0.407399 -0.908462
vn -0.049644 -0.851959 -0.521250
vn -0.121335 -0.863339 -0.489821
vn -0.049644 -0.851959 -0.521250
vn -0.093401 -0.407399 -0.908462
vn 0.055400 -0.429689 -0.901276
vn -0.009920 -0.848287 -0.529443
vn -0.343263 0.598389 -0.723948
vn -0.266525 0.710324 -0.651464
vn -0.058499 0.682099 -0.728916
vn -0.062552 0.511504 -0.857001
vn -0.093401 -0.407399 -0.908462
vn -0.345993 -0.446056 -0.825423
vn -0.343263 0.598389 -0.723948
vn -0.062552 0.511504 -0.857001
vn -0.009920 -0.848287 -0.529443
vn 0.130451 -0.823167 -0.552611
vn 0.226235 -0.911370 -0.343834
vn -0.020997 -0.965207 -0.260643
vn 0.226235 -0.911370 -0.343834
vn 0.310302 -0.950629 0.004157
vn -0.006727 -0.999754 -0.021122
vn -0.020997 -0.965207 -0.260643
vn -0.020997 -0.965207 -0.260643
vn -0.006727 -0.999754 -0.021122
vn -0.043186 -0.995200 -0.087814
vn -0.050508 -0.959494 -0.277166
vn -0.049644 -0.851959 -0.521250
vn -0.009920 -0.848287 -0.529443
vn -0.020997 -0.965207 -0.260643
vn -0.050508 -0.959494 -0.277166
vn 0.206995 -0.912711 0.352294
vn 0.103241 -0.818752 0.564789
vn 0.015247 -0.816499 0.577145
vn 0.006725 -0.975792 0.218598
vn -0.006727 -0.999754 -0.021122
vn 0.310302 -0.950629 0.004157
vn 0.206995 -0.912711 0.352294
vn 0.006725 -0.975792 0.218598
vn -0.040091 -0.828342 0.558787
vn -0.213614 -0.857168 0.468649
vn -0.125928 -0.974272 0.186913
vn -0.022502 -0.982068 0.187179
vn -0.125928 -0.974272 0.186913
vn -0.155314 -0.982292 -0.104786
vn -0.043186 -0.995200 -0.087814
vn -0.022502 -0.982068 0.187179
vn 0.006725 -0.975792 0.218598
vn -0.022502 -0.982068 0.187179
vn -0.043186 -0.995200 -0.087814
vn -0.006727 -0.999754 -0.021122
vn 0.015247 -0.816499 0.577145
vn -0.040091 -0.828342 0.558787
vn -0.022502 -0.982068 0.187179
vn 0.006725 -0.975792 0.218598
vn -0.139402 -0.927092 -0.347948
vn -0.121335 -0.863339 -0.489821
vn -0.049644 -0.851959 -0.521250
vn -0.050508 -0.959494 -0.277166
vn -0.043186 -0.995200 -0.087814
vn -0.155314 -0.982292 -0.104786
vn -0.139402 -0.927092 -0.347948
vn -0.050508 -0.959494 -0.277166
vn 0.130451 -0.823167 -0.552611
vn 0.382409 -0.377809 -0.843222
vn 0.644073 -0.545332 -0.536453
vn 0.226235 -0.911370 -0.343834
vn 0.310302 -0.950629 0.004157
vn 0.226235 -0.911370 -0.343834
vn 0.644073 -0.545332 -0.536453
vn 0.783846 -0.620928 0.005765
vn 0.269459 0.741801 -0.614103
vn 0.374390 0.727769 -0.574617
vn 0.386769 0.820423 -0.421089
vn 0.314282 0.863707 -0.394001
vn 0.386769 0.820423 -0.421089
vn 0.390286 0.919981 0.036224
vn 0.332103 0.943234 0.004224
vn 0.314282 0.863707 -0.394001
vn 0.332103 0.943234 0.004224
vn 0.783846 -0.620928 0.005765
vn 0.644073 -0.545332 -0.536453
vn 0.314282 0.863707 -0.394001
vn 0.644073 -0.545332 -0.536453
vn 0.382409 -0.377809 -0.843222
vn 0.269459 0.741801 -0.614103
vn 0.314282 0.863707 -0.394001
vn 0.317180 0.860624 0.398401
vn 0.379259 0.811637 0.444307
vn 0.241280 0.806466 0.539812
vn 0.274193 0.886136 0.373606
vn 0.241280 0.806466 0.539812
vn 0.360508 -0.326180 0.873865
vn 0.640845 -0.535308 0.550240
vn 0.274193 0.886136 0.373606
vn 0.640845 -0.535308 0.550240
vn 0.783846 -0.620928 0.005765
vn 0.332103 0.943234 0.004224
vn 0.274193 0.886136 0.373606
vn 0.332103 0.943234 0.004224
vn 0.390286 0.919981 0.036224
vn 0.317180 0.860624 0.398401
vn 0.274193 0.886136 0.373606
vn 0.360508 -0.326180 0.873865
vn 0.103241 -0.818752 0.564789
vn 0.206995 -0.912711 0.352294
vn 0.640845 -0.535308 0.550240
vn 0.310302 -0.950629 0.004157
vn 0.783846 -0.620928 0.005765
vn 0.640845 -0.535308 0.550240
vn 0.206995 -0.912711 0.352294
vn -0.213614 -0.857168 0.468649
vn -0.372348 -0.384324 0.844779
vn -0.395162 -0.714357 0.577530
vn -0.125928 -0.974272 0.186913
vn -0.155314 -0.982292 -0.104786
vn -0.125928 -0.974272 0.186913
vn -0.395162 -0.714357 0.577530
vn -0.583753 -0.811584 0.023764
vn -0.446814 0.553832 0.702586
vn -0.545825 0.490886 0.679048
vn -0.478057 0.644231 0.597015
vn -0.291441 0.701805 0.650024
vn -0.478057 0.644231 0.597015
vn -0.526493 0.846941 0.074133
vn -0.548011 0.802899 0.234599
vn -0.291441 0.701805 0.650024
vn -0.548011 0.802899 0.234599
vn -0.583753 -0.811584 0.023764
vn -0.395162 -0.714357 0.577530
vn -0.291441 0.701805 0.650024
vn -0.395162 -0.714357 0.577530
vn -0.372348 -0.384324 0.844779
vn -0.446814 0.553832 0.702586
vn -0.291441 0.701805 0.650024
vn -0.440931 0.763501 -0.471854
vn -0.266525 0.710324 -0.651464
vn -0.343263 0.598389 -0.723948
vn -0.574143 0.733495 -0.363793
vn -0.343263 0.598389 -0.723948
vn -0.345993 -0.446056 -0.825423
vn -0.520550 -0.692601 -0.499330
vn -0.574143 0.733495 -0.363793
vn -0.520550 -0.692601 -0.499330
vn -0.583753 -0.811584 0.023764
vn -0.548011 0.802899 0.234599
vn -0.574143 0.733495 -0.363793
vn -0.548011 0.802899 0.234599
vn -0.526493 0.846941 0.074133
vn -0.440931 0.763501 -0.471854
vn -0.574143 0.733495 -0.363793
vn -0.345993 -0.446056 -0.825423
vn -0.121335 -0.863339 -0.489821
vn -0.139402 -0.927092 -0.347948
vn -0.520550 -0.692601 -0.499330
vn -0.155314 -0.982292 -0.104786
vn -0.583753 -0.811584 0.023764
vn -0.520550 -0.692601 -0.499330
vn -0.139402 -0.927092 -0.347948
s off
g Rocks:JC_Rocks_Natural_F
usemtl lambert2SG
f 10/1/1 39/2/2 20/3/3 2/4/4
f 20/3/5 39/2/6 40/5/7 19/6/8
f 28/7/9 4/8/10 22/9/11 53/10/12
f 39/11/13 10/12/14 28/7/15 53/10/16
f 21/13/17 3/14/18 27/15/19 54/16/20
f 27/15/21 9/17/22 40/18/23 54/16/24
f 53/10/25 54/16/26 40/18/27 39/11/28
f 21/13/29 54/16/30 53/10/31 22/9/32
f 1/19/33 19/6/34 40/5/35 9/20/36
f 22/9/37 4/8/38 31/21/39 55/22/40
f 31/21/41 12/23/42 41/24/43 55/22/44
f 55/22/45 41/24/46 42/25/47 58/26/48
f 21/13/49 22/9/50 55/22/51 58/26/52
f 32/27/53 6/28/54 24/29/55 56/30/56
f 41/24/57 12/23/58 32/27/59 56/30/60
f 23/31/61 5/32/62 30/33/63 57/34/64
f 30/33/65 11/35/66 42/25/67 57/34/68
f 56/30/69 57/34/70 42/25/71 41/24/72
f 23/31/73 57/34/74 56/30/75 24/29/76
f 29/36/77 3/14/78 21/13/79 58/26/80
f 42/25/81 11/35/82 29/36/83 58/26/84
f 24/29/85 6/28/86 34/37/87 59/38/88
f 34/37/89 14/39/90 43/40/91 59/38/92
f 59/38/93 43/40/94 44/41/95 60/42/96
f 23/31/97 24/29/98 59/38/99 60/42/100
f 8/43/101 26/44/102 43/45/103 14/46/104
f 13/47/105 44/48/106 25/49/107 7/50/108
f 25/49/109 44/48/110 43/45/111 26/44/112
f 33/51/113 5/32/114 23/31/115 60/42/116
f 44/41/117 13/52/118 33/51/119 60/42/120
f 26/44/121 8/43/122 37/53/123 61/54/124
f 37/53/125 16/55/126 45/56/127 61/54/128
f 61/54/129 45/56/130 46/57/131 64/58/132
f 25/49/133 26/44/134 61/54/135 64/58/136
f 38/59/137 2/4/138 20/3/139 62/60/140
f 45/56/141 16/55/142 38/59/143 62/60/144
f 19/6/145 1/19/146 36/61/147 63/62/148
f 36/61/149 15/63/150 46/57/151 63/62/152
f 62/60/153 63/62/154 46/57/155 45/56/156
f 20/3/157 19/6/158 63/62/159 62/60/160
f 35/64/161 7/50/162 25/49/163 64/58/164
f 46/57/165 15/63/166 35/64/167 64/58/168
f 8/43/169 14/46/170 47/65/171 37/53/172
f 16/55/173 37/53/174 47/65/175 17/66/176
f 34/37/177 6/28/178 32/27/179 65/67/180
f 32/27/181 12/23/182 48/68/183 65/67/184
f 48/68/185 17/69/186 47/70/187 65/67/188
f 47/70/189 14/39/190 34/37/191 65/67/192
f 31/21/193 4/8/194 28/7/195 66/71/196
f 28/7/197 10/12/198 49/72/199 66/71/200
f 49/72/201 17/69/202 48/68/203 66/71/204
f 48/68/205 12/23/206 31/21/207 66/71/208
f 10/1/209 2/4/210 38/59/211 49/73/212
f 16/55/213 17/66/214 49/73/215 38/59/216
f 1/19/217 9/20/218 50/74/219 36/61/220
f 15/63/221 36/61/222 50/74/223 18/75/224
f 27/15/225 3/14/226 29/36/227 67/76/228
f 29/36/229 11/35/230 51/77/231 67/76/232
f 51/77/233 18/78/234 50/79/235 67/76/236
f 50/79/237 9/17/238 27/15/239 67/76/240
f 30/33/241 5/32/242 33/51/243 68/80/244
f 33/51/245 13/52/246 52/81/247 68/80/248
f 52/81/249 18/78/250 51/77/251 68/80/252
f 51/77/253 11/35/254 30/33/255 68/80/256
f 13/47/257 7/50/258 35/64/259 52/82/260
f 15/63/261 18/75/262 52/82/263 35/64/264
