# This file uses centimeters as units for non-parametric coordinates.

mtllib JC_NaturalRocks_D.mtl
g default
v -22.308872 4.335271 27.332701
v -1.147043 0.370116 36.774815
v -22.374193 25.322956 26.869053
v -2.179412 25.120079 36.810600
v -22.551201 21.112850 1.554772
v -1.421647 19.865240 3.724180
v -22.221107 3.997798 -1.628870
v 0.000000 0.000000 0.000000
v -27.288492 11.153576 31.221424
v 2.616712 7.930058 40.690178
v -24.779459 33.099201 13.420945
v 3.528756 33.668266 22.556749
v -26.486858 11.175265 -5.441187
v 4.103383 7.551754 -6.345388
v -24.757471 4.286486 13.333406
v 4.315501 -0.559228 22.130743
v 10.859906 9.840375 21.998470
v -31.011599 15.376709 13.634760
v -17.585775 1.842978 29.367411
v -11.428651 -0.196849 37.636826
v -19.541500 28.261967 29.037928
v -12.972668 29.267122 36.531052
v -18.300276 22.108812 -1.798010
v -11.023260 21.903532 -1.767956
v -17.263783 0.937966 -4.638282
v -9.914527 -0.660835 -3.841703
v -25.789225 19.130230 29.506092
v 0.896572 16.963549 39.414722
v -24.657356 29.530420 21.506281
v -22.745571 27.575624 5.687365
v 0.810511 30.119999 30.859154
v 1.478635 27.148672 9.145216
v -24.476879 17.784294 -2.483688
v 1.712828 14.563479 -2.941251
v -23.470682 4.677651 4.570556
v -23.582518 4.495878 21.800735
v 2.994495 -0.539747 10.249084
v 1.938658 -0.385476 30.744209
v -11.074776 8.941598 41.527340
v -20.944210 9.510139 35.279163
v -10.580217 40.357773 17.838232
v -22.507725 38.995567 12.131732
v -6.993093 8.347838 -11.828968
v -20.056385 8.958364 -11.047022
v -8.728519 -1.875678 22.677011
v -17.614544 0.373994 14.135187
v 9.434739 8.675588 7.755197
v 8.120296 21.868166 22.017984
v 7.920055 8.734901 31.951857
v -29.658051 13.987601 23.489920
v -28.971300 26.698315 13.485845
v -28.709124 14.518939 3.507794
v -12.257083 18.438963 40.274452
v -20.407413 18.923040 33.150105
v -12.529260 37.138603 26.685566
v -10.785272 34.179966 6.144963
v -20.608723 33.791443 2.057619
v -22.999472 35.841755 21.118149
v -9.065970 14.204221 -7.959189
v -18.538900 14.936801 -6.737117
v -9.430772 -1.796098 9.520657
v -10.612538 -1.571132 28.803900
v -17.027523 1.161805 21.814251
v -16.632971 0.847539 4.380287
v 6.669296 17.960171 9.429983
v 5.649810 18.962786 31.243395
v -27.819275 22.919466 22.487207
v -28.176561 21.470846 4.615959
vt 0.684430 0.128453
vt 0.605762 0.137674
vt 0.596935 0.082109
vt 0.659119 0.078210
vt 0.539964 0.141008
vt 0.534425 0.080341
vt 0.674967 0.185837
vt 0.650165 0.240764
vt 0.589666 0.244416
vt 0.598311 0.189373
vt 0.542315 0.257819
vt 0.514588 0.252634
vt 0.498424 0.203675
vt 0.538755 0.198975
vt 0.494486 0.151456
vt 0.504220 0.096282
vt 0.640654 0.284189
vt 0.578050 0.293867
vt 0.632988 0.320999
vt 0.577753 0.326624
vt 0.539832 0.338459
vt 0.537447 0.308382
vt 0.629869 0.381564
vt 0.627120 0.431887
vt 0.564277 0.436201
vt 0.572519 0.371572
vt 0.524307 0.427483
vt 0.491029 0.413085
vt 0.508640 0.374854
vt 0.535449 0.373559
vt 0.520308 0.334611
vt 0.514745 0.294867
vt 0.631945 0.488539
vt 0.566053 0.490871
vt 0.632683 0.539356
vt 0.569092 0.525918
vt 0.510834 0.515030
vt 0.517450 0.478695
vt 0.611809 0.599094
vt 0.550607 0.587801
vt 0.468556 0.498917
vt 0.509573 0.570547
vt 0.472250 0.555213
vt 0.480008 0.450145
vt 0.762207 0.020120
vt 0.820839 0.027638
vt 0.851248 0.078171
vt 0.782152 0.092596
vt 0.877159 0.140185
vt 0.805706 0.164897
vt 0.740818 0.130187
vt 0.732971 0.072836
vt 0.720254 0.022901
vt 0.879153 0.190910
vt 0.873620 0.230056
vt 0.817521 0.254237
vt 0.805880 0.202434
vt 0.762893 0.221561
vt 0.726341 0.219478
vt 0.709293 0.186820
vt 0.753753 0.174975
vt 0.691635 0.135720
vt 0.687692 0.081824
vt 0.690362 0.044705
vt 0.769079 0.495279
vt 0.704132 0.507742
vt 0.723479 0.421723
vt 0.788312 0.431279
vt 0.803911 0.360894
vt 0.737308 0.348475
vt 0.661767 0.479237
vt 0.676010 0.399096
vt 0.680248 0.334162
vt 0.710258 0.232428
vt 0.698202 0.288186
vt 0.769643 0.239525
vt 0.753743 0.297227
vt 0.822871 0.264100
vt 0.816519 0.306374
vt 0.357228 0.247384
vt 0.410767 0.226882
vt 0.427490 0.275671
vt 0.360480 0.282025
vt 0.361849 0.333379
vt 0.434122 0.330793
vt 0.464273 0.234896
vt 0.478758 0.283940
vt 0.489801 0.332718
vt 0.457132 0.431800
vt 0.469053 0.379640
vt 0.410665 0.445717
vt 0.429804 0.388882
vt 0.357610 0.425358
vt 0.362680 0.386697
vn 0.055682 -0.434056 0.899164
vn 0.055682 -0.434056 0.899164
vn 0.055682 -0.434056 0.899164
vn 0.055682 -0.434056 0.899163
vn -0.266186 -0.722441 0.638142
vn -0.251538 -0.155038 0.955349
vn -0.626675 -0.213717 0.749402
vn -0.558285 -0.746555 0.361903
vn 0.432968 0.271466 0.859561
vn 0.338613 0.512370 0.789188
vn -0.212854 0.565454 0.796841
vn -0.270947 0.236466 0.933098
vn -0.251538 -0.155038 0.955349
vn 0.478867 -0.153733 0.864322
vn 0.432968 0.271466 0.859561
vn -0.270947 0.236466 0.933098
vn -0.629919 0.446562 0.635440
vn -0.682832 0.420485 0.597439
vn -0.731645 0.324951 0.599252
vn -0.616095 0.245095 0.748569
vn -0.731645 0.324951 0.599252
vn -0.812529 -0.228623 0.536217
vn -0.626675 -0.213717 0.749402
vn -0.616095 0.245095 0.748569
vn -0.270947 0.236466 0.933098
vn -0.616095 0.245095 0.748569
vn -0.626675 -0.213717 0.749402
vn -0.251538 -0.155038 0.955349
vn -0.629919 0.446562 0.635440
vn -0.616095 0.245095 0.748569
vn -0.270947 0.236466 0.933098
vn -0.212854 0.565454 0.796841
vn -0.647833 -0.716916 0.257574
vn -0.558285 -0.746555 0.361903
vn -0.626675 -0.213717 0.749402
vn -0.812529 -0.228623 0.536217
vn -0.212854 0.565454 0.796841
vn 0.338613 0.512370 0.789188
vn 0.523656 0.660612 0.537938
vn -0.057284 0.846325 0.529577
vn 0.523656 0.660612 0.537938
vn 0.674130 0.738552 -0.009499
vn 0.263917 0.959618 -0.097371
vn -0.057284 0.846325 0.529577
vn -0.057284 0.846325 0.529577
vn 0.263917 0.959618 -0.097371
vn -0.338879 0.911832 -0.231785
vn -0.569539 0.724391 0.388435
vn -0.629919 0.446562 0.635440
vn -0.212854 0.565454 0.796841
vn -0.057284 0.846325 0.529577
vn -0.569539 0.724391 0.388435
vn 0.642174 0.581685 -0.499255
vn 0.478058 0.563882 -0.673422
vn 0.290479 0.556850 -0.778165
vn 0.367547 0.710522 -0.600057
vn 0.263917 0.959618 -0.097371
vn 0.674130 0.738552 -0.009499
vn 0.642174 0.581685 -0.499255
vn 0.367547 0.710522 -0.600057
vn -0.118821 0.510105 -0.851865
vn -0.550403 0.481558 -0.682026
vn -0.784170 0.362939 -0.503341
vn -0.189408 0.654343 -0.732093
vn -0.784170 0.362939 -0.503341
vn -0.911948 0.387461 -0.134999
vn -0.338879 0.911832 -0.231785
vn -0.189408 0.654343 -0.732093
vn 0.367547 0.710522 -0.600057
vn -0.189408 0.654343 -0.732093
vn -0.338879 0.911832 -0.231785
vn 0.263917 0.959618 -0.097371
vn -0.118821 0.510105 -0.851865
vn -0.189408 0.654343 -0.732093
vn 0.367547 0.710522 -0.600057
vn 0.290479 0.556850 -0.778165
vn -0.829083 0.407984 0.382323
vn -0.682832 0.420485 0.597439
vn -0.629919 0.446562 0.635440
vn -0.569539 0.724391 0.388435
vn -0.338879 0.911832 -0.231785
vn -0.911948 0.387461 -0.134999
vn -0.829083 0.407984 0.382323
vn -0.569539 0.724391 0.388435
vn 0.290479 0.556850 -0.778165
vn 0.478058 0.563882 -0.673422
vn 0.596289 0.560590 -0.574612
vn 0.189043 0.629597 -0.753572
vn 0.596289 0.560590 -0.574612
vn 0.713465 -0.217039 -0.666230
vn 0.213716 -0.197832 -0.956655
vn 0.189043 0.629597 -0.753572
vn 0.189043 0.629597 -0.753572
vn 0.213716 -0.197832 -0.956655
vn -0.332331 -0.189317 -0.923967
vn -0.164033 0.585442 -0.793946
vn -0.118821 0.510105 -0.851865
vn 0.290479 0.556850 -0.778165
vn 0.189043 0.629597 -0.753572
vn -0.164033 0.585442 -0.793946
vn 0.425154 -0.840108 -0.336841
vn 0.038567 -0.882071 -0.469535
vn 0.213716 -0.197832 -0.956655
vn 0.713465 -0.217039 -0.666230
vn -0.841241 -0.158307 -0.516964
vn -0.332331 -0.189317 -0.923967
vn -0.298707 -0.814004 -0.498168
vn -0.710276 -0.674408 -0.201699
vn -0.298707 -0.814004 -0.498168
vn -0.332331 -0.189317 -0.923967
vn 0.213716 -0.197832 -0.956655
vn 0.038567 -0.882071 -0.469535
vn -0.590001 0.504623 -0.630281
vn -0.550403 0.481558 -0.682026
vn -0.118821 0.510105 -0.851865
vn -0.164033 0.585442 -0.793946
vn -0.332331 -0.189317 -0.923967
vn -0.841241 -0.158307 -0.516964
vn -0.590001 0.504623 -0.630281
vn -0.164033 0.585442 -0.793946
vn 0.038567 -0.882071 -0.469535
vn 0.425154 -0.840108 -0.336841
vn 0.507988 -0.855463 -0.100650
vn -0.044892 -0.998148 -0.041048
vn 0.507988 -0.855463 -0.100650
vn 0.552075 -0.832904 0.038540
vn -0.033138 -0.999293 0.017736
vn -0.044892 -0.998148 -0.041048
vn -0.044892 -0.998148 -0.041048
vn -0.033138 -0.999293 0.017736
vn -0.373837 -0.927457 -0.008318
vn -0.357401 -0.932993 -0.042304
vn -0.298707 -0.814004 -0.498168
vn 0.038567 -0.882071 -0.469535
vn -0.044892 -0.998148 -0.041048
vn -0.357401 -0.932993 -0.042304
vn 0.502067 -0.834332 0.227637
vn 0.284573 -0.746161 0.601882
vn -0.266186 -0.722441 0.638142
vn -0.134459 -0.986623 0.092172
vn -0.033138 -0.999293 0.017736
vn 0.552075 -0.832904 0.038540
vn 0.502067 -0.834332 0.227637
vn -0.134459 -0.986623 0.092172
vn -0.558285 -0.746555 0.361903
vn -0.647833 -0.716916 0.257574
vn -0.727886 -0.679690 0.090569
vn -0.414704 -0.907452 0.067471
vn -0.727886 -0.679690 0.090569
vn -0.751427 -0.659158 -0.029475
vn -0.373837 -0.927457 -0.008318
vn -0.414704 -0.907452 0.067471
vn -0.134459 -0.986623 0.092172
vn -0.414704 -0.907452 0.067471
vn -0.373837 -0.927457 -0.008318
vn -0.033138 -0.999293 0.017736
vn -0.266186 -0.722441 0.638142
vn -0.558285 -0.746555 0.361903
vn -0.414704 -0.907452 0.067471
vn -0.134459 -0.986623 0.092172
vn -0.748309 -0.656010 -0.098407
vn -0.710276 -0.674408 -0.201699
vn -0.298707 -0.814004 -0.498168
vn -0.357401 -0.932993 -0.042304
vn -0.373837 -0.927457 -0.008318
vn -0.751427 -0.659158 -0.029475
vn -0.748309 -0.656010 -0.098407
vn -0.357401 -0.932993 -0.042304
vn 0.425154 -0.840108 -0.336841
vn 0.713465 -0.217039 -0.666230
vn 0.957564 -0.163305 -0.237494
vn 0.507988 -0.855463 -0.100650
vn 0.552075 -0.832904 0.038540
vn 0.507988 -0.855463 -0.100650
vn 0.957564 -0.163305 -0.237494
vn 0.988384 -0.143264 0.050720
vn 0.596289 0.560590 -0.574612
vn 0.478058 0.563882 -0.673422
vn 0.642174 0.581685 -0.499255
vn 0.865169 0.389112 -0.316346
vn 0.642174 0.581685 -0.499255
vn 0.674130 0.738552 -0.009499
vn 0.940021 0.340664 0.017562
vn 0.865169 0.389112 -0.316346
vn 0.940021 0.340664 0.017562
vn 0.988384 -0.143264 0.050720
vn 0.957564 -0.163305 -0.237494
vn 0.865169 0.389112 -0.316346
vn 0.957564 -0.163305 -0.237494
vn 0.713465 -0.217039 -0.666230
vn 0.596289 0.560590 -0.574612
vn 0.865169 0.389112 -0.316346
vn 0.523656 0.660612 0.537938
vn 0.338613 0.512370 0.789188
vn 0.432968 0.271466 0.859561
vn 0.851754 0.290656 0.435929
vn 0.432968 0.271466 0.859561
vn 0.478867 -0.153733 0.864322
vn 0.909810 -0.160982 0.382531
vn 0.851754 0.290656 0.435929
vn 0.909810 -0.160982 0.382531
vn 0.988384 -0.143264 0.050720
vn 0.940021 0.340664 0.017562
vn 0.851754 0.290656 0.435929
vn 0.940021 0.340664 0.017562
vn 0.674130 0.738552 -0.009499
vn 0.523656 0.660612 0.537938
vn 0.851754 0.290656 0.435929
vn 0.478867 -0.153733 0.864322
vn 0.284573 -0.746161 0.601882
vn 0.502067 -0.834332 0.227637
vn 0.909810 -0.160982 0.382531
vn 0.552075 -0.832904 0.038540
vn 0.988384 -0.143264 0.050720
vn 0.909810 -0.160982 0.382531
vn 0.502067 -0.834332 0.227637
vn -0.647833 -0.716916 0.257574
vn -0.812529 -0.228623 0.536217
vn -0.962826 -0.187384 0.194559
vn -0.727886 -0.679690 0.090569
vn -0.751427 -0.659158 -0.029475
vn -0.727886 -0.679690 0.090569
vn -0.962826 -0.187384 0.194559
vn -0.983527 -0.179999 -0.016599
vn -0.731645 0.324951 0.599252
vn -0.682832 0.420485 0.597439
vn -0.829083 0.407984 0.382323
vn -0.889322 0.328065 0.318558
vn -0.829083 0.407984 0.382323
vn -0.911948 0.387461 -0.134999
vn -0.913457 0.399542 -0.077218
vn -0.889322 0.328065 0.318558
vn -0.913457 0.399542 -0.077218
vn -0.983527 -0.179999 -0.016599
vn -0.962826 -0.187384 0.194559
vn -0.889322 0.328065 0.318558
vn -0.962826 -0.187384 0.194559
vn -0.812529 -0.228623 0.536217
vn -0.731645 0.324951 0.599252
vn -0.889322 0.328065 0.318558
vn -0.784170 0.362939 -0.503341
vn -0.550403 0.481558 -0.682026
vn -0.590001 0.504623 -0.630281
vn -0.842682 0.357255 -0.402811
vn -0.590001 0.504623 -0.630281
vn -0.841241 -0.158307 -0.516964
vn -0.955724 -0.186539 -0.227585
vn -0.842682 0.357255 -0.402811
vn -0.955724 -0.186539 -0.227585
vn -0.983527 -0.179999 -0.016599
vn -0.913457 0.399542 -0.077218
vn -0.842682 0.357255 -0.402811
vn -0.913457 0.399542 -0.077218
vn -0.911948 0.387461 -0.134999
vn -0.784170 0.362939 -0.503341
vn -0.842682 0.357255 -0.402811
vn -0.841241 -0.158307 -0.516964
vn -0.710276 -0.674408 -0.201699
vn -0.748309 -0.656010 -0.098407
vn -0.955724 -0.186539 -0.227585
vn -0.751427 -0.659158 -0.029475
vn -0.983527 -0.179999 -0.016599
vn -0.955724 -0.186539 -0.227585
vn -0.748309 -0.656010 -0.098407
s off
g Rocks:JC_Rocks_Natural_D
usemtl lambert2SG
f 10/1/1 39/2/2 20/3/3 2/4/4
f 20/3/5 39/2/6 40/5/7 19/6/8
f 28/7/9 4/8/10 22/9/11 53/10/12
f 39/2/13 10/1/14 28/7/15 53/10/16
f 21/11/17 3/12/18 27/13/19 54/14/20
f 27/13/21 9/15/22 40/5/23 54/14/24
f 53/10/25 54/14/26 40/5/27 39/2/28
f 21/11/29 54/14/30 53/10/31 22/9/32
f 1/16/33 19/6/34 40/5/35 9/15/36
f 22/9/37 4/8/38 31/17/39 55/18/40
f 31/17/41 12/19/42 41/20/43 55/18/44
f 55/18/45 41/20/46 42/21/47 58/22/48
f 21/11/49 22/9/50 55/18/51 58/22/52
f 32/23/53 6/24/54 24/25/55 56/26/56
f 41/20/57 12/19/58 32/23/59 56/26/60
f 23/27/61 5/28/62 30/29/63 57/30/64
f 30/29/65 11/31/66 42/21/67 57/30/68
f 56/26/69 57/30/70 42/21/71 41/20/72
f 23/27/73 57/30/74 56/26/75 24/25/76
f 29/32/77 3/12/78 21/11/79 58/22/80
f 42/21/81 11/31/82 29/32/83 58/22/84
f 24/25/85 6/24/86 34/33/87 59/34/88
f 34/33/89 14/35/90 43/36/91 59/34/92
f 59/34/93 43/36/94 44/37/95 60/38/96
f 23/27/97 24/25/98 59/34/99 60/38/100
f 8/39/101 26/40/102 43/36/103 14/35/104
f 13/41/105 44/37/106 25/42/107 7/43/108
f 25/42/109 44/37/110 43/36/111 26/40/112
f 33/44/113 5/28/114 23/27/115 60/38/116
f 44/37/117 13/41/118 33/44/119 60/38/120
f 26/45/121 8/46/122 37/47/123 61/48/124
f 37/47/125 16/49/126 45/50/127 61/48/128
f 61/48/129 45/50/130 46/51/131 64/52/132
f 25/53/133 26/45/134 61/48/135 64/52/136
f 38/54/137 2/55/138 20/56/139 62/57/140
f 45/50/141 16/49/142 38/54/143 62/57/144
f 19/58/145 1/59/146 36/60/147 63/61/148
f 36/60/149 15/62/150 46/51/151 63/61/152
f 62/57/153 63/61/154 46/51/155 45/50/156
f 20/56/157 19/58/158 63/61/159 62/57/160
f 35/63/161 7/64/162 25/53/163 64/52/164
f 46/51/165 15/62/166 35/63/167 64/52/168
f 8/65/169 14/66/170 47/67/171 37/68/172
f 16/69/173 37/68/174 47/67/175 17/70/176
f 34/71/177 6/24/178 32/23/179 65/72/180
f 32/23/181 12/19/182 48/73/183 65/72/184
f 48/73/185 17/70/186 47/67/187 65/72/188
f 47/67/189 14/66/190 34/71/191 65/72/192
f 31/17/193 4/8/194 28/74/195 66/75/196
f 28/74/197 10/76/198 49/77/199 66/75/200
f 49/77/201 17/70/202 48/73/203 66/75/204
f 48/73/205 12/19/206 31/17/207 66/75/208
f 10/76/209 2/78/210 38/79/211 49/77/212
f 16/69/213 17/70/214 49/77/215 38/79/216
f 1/80/217 9/81/218 50/82/219 36/83/220
f 15/84/221 36/83/222 50/82/223 18/85/224
f 27/86/225 3/12/226 29/32/227 67/87/228
f 29/32/229 11/31/230 51/88/231 67/87/232
f 51/88/233 18/85/234 50/82/235 67/87/236
f 50/82/237 9/81/238 27/86/239 67/87/240
f 30/29/241 5/28/242 33/89/243 68/90/244
f 33/89/245 13/91/246 52/92/247 68/90/248
f 52/92/249 18/85/250 51/88/251 68/90/252
f 51/88/253 11/31/254 30/29/255 68/90/256
f 13/91/257 7/93/258 35/94/259 52/92/260
f 15/84/261 18/85/262 52/92/263 35/94/264
