# This file uses centimeters as units for non-parametric coordinates.

mtllib nj_ground_stone_steps_03.mtl
g default
v -12.111015 0.342653 6.975955
v 6.715059 0.342653 6.797146
v -12.189001 2.438795 7.374206
v 6.077854 2.272030 7.195397
v -13.175714 2.272030 -7.277974
v 7.074163 2.272030 -6.321933
v -12.819548 0.342653 -7.753183
v 6.715059 0.342653 -6.797146
v 3.841290 2.272030 7.542486
v 3.841290 2.272030 -7.890105
v 3.459233 0.342653 -7.493893
v 3.459233 0.342653 6.797146
v 0.395296 2.272030 6.974069
v 0.395296 2.272030 -7.890098
v 0.203523 0.342653 -7.493890
v 0.203523 0.342653 7.220021
v -3.050776 2.272030 7.195397
v -3.050776 2.272030 -7.717813
v -3.052303 0.342653 -7.167738
v -3.052303 0.342653 6.797146
v -6.496808 2.438795 6.974069
v -6.496808 2.272030 -7.645258
v -6.308012 0.342653 -6.797139
v -6.308012 0.342653 7.220021
v -9.234230 2.438795 7.224396
v -9.942841 2.272030 -7.745473
v -9.563839 0.342653 -7.753183
v -8.855268 0.342653 7.398827
v -12.674191 2.272030 -4.552209
v -12.104905 0.342653 -4.354616
v 7.215642 0.342653 -3.398573
v 7.727388 2.272030 -3.596168
v -14.755488 2.272030 0.001020
v -14.440763 0.342653 0.000000
v 8.123703 0.342653 0.000000
v 8.135807 2.272030 0.001020
v -13.067607 2.272030 3.777016
v -12.819548 0.342653 4.183652
v 6.715059 0.342653 3.398573
v 6.819641 2.272030 3.598210
v 0.415664 1.639269 7.222042
v -3.048034 1.639269 7.233899
v -6.511653 1.639269 7.222042
v -9.266662 1.639269 7.449115
v -12.398714 1.639269 7.412706
v -12.991618 1.639269 3.797189
v -14.888233 1.639269 0.002864
v -12.724092 1.639269 -4.568700
v -13.294907 1.639269 -7.596149
v -9.975195 1.639269 -7.911632
v -6.511653 1.639269 -7.665334
v -3.048034 1.639269 -7.941936
v 0.415664 1.639269 -7.924924
v 3.879166 1.639269 -7.924927
v 7.198917 1.639269 -6.640111
v 7.802476 1.639269 -3.612659
v 8.373329 1.639269 0.002864
v 7.027160 1.639269 3.618380
v 6.526537 1.639269 7.233899
v 3.879166 1.639269 7.468127
v 0.318759 0.768490 7.334591
v -3.050384 0.768490 7.035132
v -6.419527 0.768490 7.334591
v -9.080138 0.768490 7.527101
v -12.355158 0.768490 7.213943
v -12.523468 0.768490 3.697013
v -14.730264 0.768490 0.001273
v -12.443171 0.768490 -4.471700
v -13.117000 0.768490 -7.821680
v -9.788671 0.768490 -7.911243
v -6.419527 0.768490 -7.156685
v -3.050384 0.768490 -7.527281
v 0.318759 0.768490 -7.729329
v 3.687903 0.768490 -7.729336
v 7.016271 0.768490 -6.865645
v 7.546035 0.768490 -3.515657
v 8.358405 0.768490 0.001273
v 6.967505 0.768490 3.518202
v 6.825360 0.768490 7.035132
v 3.687903 0.768490 7.101625
v -11.438401 2.933169 6.801291
v -8.714140 2.933169 6.696152
v -8.714140 3.292946 2.699618
v -12.248461 2.933169 3.484694
v 3.286261 2.933168 6.942495
v 5.348366 2.933168 6.622482
v 6.032261 2.933168 3.305888
v 3.286261 3.292946 3.305888
v 0.109008 2.933169 6.451401
v 0.109008 3.292946 3.305888
v -3.068206 2.933169 6.622482
v -3.068206 3.292946 3.305888
v -6.245459 2.933169 6.451401
v -6.245459 3.292946 3.305888
v 0.109008 3.292946 -3.327303
v -3.068206 3.292946 -3.327303
v 0.109008 2.933169 -7.340637
v -3.068206 2.933169 -7.241158
v -6.245459 3.292946 -3.327303
v -6.245459 2.933169 -7.241158
v -9.422712 3.292946 -4.283346
v -9.422712 2.933169 -7.227519
v -11.885244 2.933169 -4.283346
v -12.403414 2.933169 -6.796485
v 6.908242 2.933168 -3.327303
v 3.286261 3.292946 -3.327303
v 6.266924 2.933168 -5.840444
v 3.286261 2.933168 -7.340644
v 0.109008 3.292946 -0.010707
v -3.068206 3.292946 -0.010707
v -6.245459 3.292946 -0.010707
v -9.422712 3.292946 -0.010707
v -13.986361 2.933169 -0.010707
v 7.355594 2.933168 -0.010707
v 3.286261 3.292946 -0.010707
v -12.209213 0.000000 3.971263
v -9.156910 0.000000 3.186184
v -8.448338 0.000000 6.551173
v -11.500641 0.000000 6.551174
v 3.052342 0.000000 3.186184
v 3.052342 0.000000 6.372365
v 6.104646 0.000000 3.186184
v 6.104646 0.000000 6.372365
v 0.000000 0.000000 3.186184
v 0.000000 0.000000 6.795239
v -3.052303 0.000000 3.186184
v -3.052303 0.000000 6.372365
v -6.104607 0.000000 3.186184
v -6.104607 0.000000 6.795239
v -12.209213 0.000000 -7.328402
v -9.156910 0.000000 -7.328402
v -9.156910 0.000000 -4.142225
v -11.494492 0.000000 -4.142225
v -6.104607 0.000000 -3.186182
v -6.104607 0.000000 -6.372357
v -3.052303 0.000000 -3.186182
v -3.052303 0.000000 -6.742956
v 0.000000 0.000000 -3.186182
v 0.000000 0.000000 -7.069108
v 3.052342 0.000000 -3.186182
v 3.052342 0.000000 -7.069115
v 6.605228 0.000000 -3.186182
v 6.104646 0.000000 -6.372368
v -9.156910 0.000000 0.000000
v -12.209213 0.000000 -0.956043
v -6.104607 0.000000 0.000000
v -3.052303 0.000000 0.000000
v 0.000000 0.000000 0.000000
v 4.461064 0.000000 0.000000
v 7.513368 0.000000 0.000000
vt 0.117119 0.730984
vt 0.165201 0.718065
vt 0.163203 0.725067
vt 0.120347 0.736715
vt 0.140291 0.757576
vt 0.172950 0.757705
vt 0.173059 0.812158
vt 0.124930 0.799717
vt 0.124560 0.658252
vt 0.169675 0.647182
vt 0.114438 0.973313
vt 0.156637 0.983087
vt 0.158799 0.989934
vt 0.112527 0.978366
vt 0.384722 0.729468
vt 0.421823 0.780235
vt 0.412551 0.782996
vt 0.380153 0.733353
vt 0.179231 0.696873
vt 0.081532 0.770557
vt 0.087188 0.781054
vt 0.330594 0.751894
vt 0.355441 0.754985
vt 0.134216 0.696401
vt 0.371900 0.798926
vt 0.332305 0.801337
vt 0.343042 0.985507
vt 0.343899 0.977835
vt 0.348884 0.696010
vt 0.387998 0.959451
vt 0.390663 0.966113
vt 0.339900 0.720808
vt 0.338283 0.712914
vt 0.349196 0.649060
vt 0.289645 0.756683
vt 0.289948 0.801757
vt 0.296248 0.990260
vt 0.297376 0.983101
vt 0.394084 0.649530
vt 0.293162 0.721769
vt 0.291497 0.715460
vt 0.247230 0.755988
vt 0.247788 0.802661
vt 0.251035 0.992620
vt 0.251111 0.984664
vt 0.246842 0.722508
vt 0.393905 0.696483
vt 0.303807 0.701790
vt 0.304312 0.648591
vt 0.258851 0.695066
vt 0.259430 0.648121
vt 0.213743 0.700845
vt 0.214551 0.647652
vt 0.246635 0.715581
vt 0.205055 0.758951
vt 0.205733 0.803478
vt 0.206537 0.994674
vt 0.204727 0.986664
vt 0.200485 0.724196
vt 0.201845 0.717753
vt 0.248461 0.895501
vt 0.290390 0.894741
vt 0.291734 0.950238
vt 0.249790 0.950455
vt 0.127992 0.493775
vt 0.172431 0.494236
vt 0.171602 0.540269
vt 0.137468 0.539914
vt 0.215964 0.554598
vt 0.216664 0.508481
vt 0.260578 0.555062
vt 0.206163 0.896396
vt 0.207065 0.951734
vt 0.163294 0.910338
vt 0.165330 0.951459
vt 0.126932 0.912493
vt 0.128435 0.947834
vt 0.075042 0.930115
vt 0.084536 0.927206
vt 0.421353 0.911363
vt 0.431097 0.914218
vt 0.331904 0.894686
vt 0.261213 0.503596
vt 0.305196 0.555526
vt 0.305729 0.499354
vt 0.349816 0.555990
vt 0.350189 0.499815
vt 0.401756 0.556530
vt 0.394614 0.510327
vt 0.381980 0.897150
vt 0.368831 0.930659
vt 0.331503 0.948476
vt 0.248182 0.849133
vt 0.290320 0.848426
vt 0.206010 0.849819
vt 0.163444 0.850080
vt 0.101702 0.848755
vt 0.059492 0.847137
vt 0.067176 0.847408
vt 0.430710 0.847657
vt 0.439206 0.846825
vt 0.332759 0.848239
vt 0.390476 0.848896
vt 0.247299 0.743834
vt 0.247207 0.734998
vt 0.294272 0.734370
vt 0.293607 0.744165
vt 0.201215 0.748608
vt 0.200200 0.736715
vt 0.165393 0.747957
vt 0.163289 0.737111
vt 0.126510 0.743794
vt 0.132075 0.749595
vt 0.100979 0.788400
vt 0.109627 0.792970
vt 0.079336 0.847707
vt 0.088044 0.848042
vt 0.099400 0.922350
vt 0.109892 0.918809
vt 0.117626 0.964022
vt 0.120378 0.957019
vt 0.158180 0.962569
vt 0.156581 0.971152
vt 0.203449 0.972138
vt 0.203710 0.962982
vt 0.250846 0.971164
vt 0.250412 0.961832
vt 0.297423 0.970588
vt 0.296350 0.961901
vt 0.342329 0.965955
vt 0.339626 0.958420
vt 0.383796 0.948163
vt 0.379792 0.940047
vt 0.397471 0.903693
vt 0.406923 0.906895
vt 0.406174 0.848782
vt 0.416606 0.848477
vt 0.387618 0.791708
vt 0.397945 0.787809
vt 0.371310 0.739780
vt 0.364168 0.744624
vt 0.338305 0.740864
vt 0.339807 0.733035
vt 0.422975 0.603679
vt 0.094357 0.600250
vt 0.409886 0.554380
vt 0.402778 0.505450
vt 0.355713 0.494984
vt 0.308619 0.494496
vt 0.261469 0.498677
vt 0.214285 0.503496
vt 0.129671 0.537694
vt 0.167420 0.489324
vt 0.120348 0.488836
vt 0.211165 0.706925
vt 0.258972 0.701211
vt 0.306631 0.707928
vt 0.170516 0.600521
vt 0.126065 0.586107
vt 0.215259 0.600987
vt 0.260006 0.601454
vt 0.304755 0.601921
vt 0.370162 0.602603
vt 0.414917 0.603070
vt 0.173776 0.709162
vt 0.126171 0.702445
vt 0.116662 0.661414
vt 0.402293 0.652933
vt 0.402129 0.702714
vt 0.354407 0.702213
vn -0.100608 -0.439304 0.892687
vn -0.004021 -0.333320 0.942805
vn -0.009228 -0.121499 0.992549
vn -0.068608 -0.183011 0.980714
vn -0.155456 0.972932 0.170989
vn -0.018901 0.983677 0.178946
vn -0.039723 0.998335 0.041827
vn -0.182855 0.979989 0.078650
vn -0.050904 0.034471 -0.998109
vn 0.063611 -0.180338 -0.981546
vn 0.149910 -0.387701 -0.909513
vn -0.013117 -0.264556 -0.964281
vn 0.000000 -1.000000 0.000000
vn 0.000000 -1.000000 0.000000
vn 0.000000 -1.000000 0.000000
vn 0.000000 -1.000000 0.000000
vn 0.916984 -0.398478 0.018848
vn 0.862146 -0.466241 0.198302
vn 0.962742 -0.155352 0.221343
vn 0.997225 -0.002044 0.074420
vn -0.952376 0.162901 0.257765
vn -0.985507 0.100086 0.136964
vn -0.970141 -0.216007 0.110307
vn -0.933276 -0.150630 0.326047
vn 0.008054 0.964987 0.262175
vn 0.236561 0.953042 0.189074
vn 0.232063 0.969947 0.073141
vn 0.042848 0.998035 0.045715
vn 0.079215 -0.469859 -0.879180
vn 0.137086 -0.253728 -0.957512
vn 0.288666 -0.140682 -0.947038
vn 0.207025 -0.440547 -0.873532
vn 0.000000 -1.000000 0.000000
vn 0.000000 -1.000000 0.000000
vn 0.000000 -1.000000 0.000000
vn 0.000000 -1.000000 0.000000
vn 0.026543 -0.325620 0.945128
vn 0.057383 -0.495924 0.866468
vn 0.008755 -0.539678 0.841826
vn 0.033428 -0.402581 0.914774
vn -0.006292 0.968480 0.249013
vn -0.001365 0.998529 0.054204
vn -0.039100 -0.533289 -0.845029
vn -0.019159 -0.365477 -0.930623
vn 0.000000 -1.000000 0.000000
vn 0.000000 -1.000000 0.000000
vn -0.011714 -0.210874 0.977443
vn -0.019529 -0.414042 0.910048
vn 0.002492 0.965025 0.262144
vn 0.000000 0.998494 0.054865
vn -0.076009 -0.611829 -0.787329
vn -0.063346 -0.479477 -0.875265
vn 0.000000 -1.000000 0.000000
vn 0.000000 -1.000000 0.000000
vn -0.000039 -0.161442 0.986882
vn 0.000262 -0.370945 0.928655
vn -0.003824 0.974080 0.226170
vn -0.002772 0.998381 0.056812
vn 0.033547 -0.580064 -0.813880
vn 0.040249 -0.445337 -0.894458
vn 0.000000 -1.000000 0.000000
vn 0.000000 -1.000000 0.000000
vn 0.066527 -0.086286 0.994047
vn 0.089870 -0.328109 0.940355
vn -0.000388 0.998773 -0.049527
vn -0.000385 0.998789 -0.049191
vn -0.004323 0.973830 -0.227237
vn -0.004461 0.973555 -0.228409
vn 0.002990 0.998987 -0.044905
vn 0.006024 0.969262 -0.245957
vn -0.041135 0.998000 -0.047993
vn -0.022032 0.962041 -0.272013
vn -0.197686 0.978370 -0.060936
vn -0.252566 0.942265 -0.219881
vn -0.807246 -0.566365 0.166086
vn -0.779791 -0.597778 -0.185977
vn -0.893882 -0.408280 -0.185155
vn -0.906990 -0.380643 0.180223
vn 0.000000 -1.000000 0.000000
vn 0.000000 -1.000000 0.000000
vn 0.000000 -1.000000 0.000000
vn 0.000000 -1.000000 0.000000
vn 0.000000 -1.000000 0.000000
vn 0.000000 -1.000000 0.000000
vn 0.000000 -1.000000 0.000000
vn 0.000000 -1.000000 0.000000
vn 0.000000 -1.000000 0.000000
vn 0.000000 -1.000000 0.000000
vn 0.000000 -1.000000 0.000000
vn 0.000000 -1.000000 0.000000
vn 0.000000 -1.000000 0.000000
vn 0.000000 -1.000000 0.000000
vn 0.920342 -0.349602 -0.175356
vn 0.795667 -0.583575 -0.162339
vn 0.784770 -0.608095 -0.119816
vn 0.903807 -0.400030 -0.152018
vn 0.041017 0.998351 -0.040166
vn 0.211141 0.976314 -0.047229
vn 0.195137 0.963466 -0.183454
vn 0.053057 0.967838 -0.245916
vn 0.000000 1.000000 0.000000
vn 0.000000 1.000000 0.000000
vn 0.000000 1.000000 0.000000
vn -0.057451 0.998345 0.002707
vn -0.284088 0.958752 -0.009403
vn -0.955534 -0.289775 -0.054636
vn -0.951666 -0.305875 -0.027796
vn 0.000000 -1.000000 0.000000
vn 0.000000 -1.000000 0.000000
vn 0.000000 -1.000000 0.000000
vn 0.000000 -1.000000 0.000000
vn 0.000000 -1.000000 0.000000
vn 0.000000 -1.000000 0.000000
vn 0.000000 -1.000000 0.000000
vn 0.959419 -0.269183 0.083995
vn 0.831513 -0.551168 0.069280
vn 0.052804 0.998599 0.003487
vn 0.258092 0.965654 0.030001
vn -0.000075 0.207913 0.978147
vn 0.000550 0.208168 0.978093
vn -0.043363 0.175182 0.983581
vn -0.039034 0.177840 0.983285
vn 0.024858 0.236897 0.971217
vn 0.025843 0.237640 0.971010
vn 0.050923 0.220583 0.974038
vn 0.048718 0.216476 0.975072
vn 0.018388 0.159685 0.986997
vn 0.018388 0.159685 0.986997
vn -0.947886 0.075176 0.309613
vn -0.975437 0.099128 0.196713
vn -0.975437 0.099128 0.196713
vn -0.945287 0.073340 0.317891
vn -0.993679 0.105208 -0.039154
vn -0.993622 0.105318 -0.040284
vn -0.971440 0.120590 -0.204361
vn -0.970206 0.121018 -0.209893
vn -0.979709 0.082614 0.182607
vn -0.979709 0.082614 0.182607
vn -0.110381 0.366750 -0.923748
vn -0.029544 0.256121 -0.966193
vn -0.033712 0.261934 -0.964497
vn -0.110381 0.366750 -0.923748
vn 0.000545 0.166649 -0.986016
vn -0.000934 0.167337 -0.985899
vn -0.035631 0.194941 -0.980168
vn -0.035918 0.194833 -0.980179
vn -0.010918 0.127058 -0.991835
vn -0.011378 0.130088 -0.991437
vn 0.209763 0.187637 -0.959579
vn 0.198262 0.180455 -0.963394
vn 0.381615 0.293522 -0.876478
vn 0.381615 0.293522 -0.876478
vn 0.960265 0.224741 -0.165478
vn 0.960247 0.224640 -0.165720
vn 0.955969 0.206186 -0.208831
vn 0.955969 0.206186 -0.208831
vn 0.950106 0.289402 0.116379
vn 0.951861 0.287631 0.105963
vn 0.887466 0.395226 0.237066
vn 0.887952 0.390569 0.242892
vn 0.874745 0.460562 0.150677
vn 0.874745 0.460562 0.150677
vn -0.023951 0.086132 0.995996
vn -0.015310 0.082000 0.996515
vn 0.118174 0.017305 0.992842
vn 0.118174 0.017305 0.992842
vn -0.000070 -0.047169 0.998887
vn -0.020547 -0.099106 0.994865
vn 0.058720 0.032707 0.997739
vn -0.002585 0.001523 0.999995
vn -0.054320 -0.076222 0.995610
vn -0.949662 -0.296427 0.101353
vn -0.897892 -0.317838 0.304581
vn -0.949451 -0.313277 -0.020006
vn -0.946729 -0.263657 -0.184902
vn -0.946902 -0.263108 0.184801
vn -0.060407 0.115533 -0.991465
vn 0.030235 -0.052864 -0.998144
vn 0.030246 -0.366895 -0.929771
vn -0.055272 -0.402768 -0.913632
vn -0.012138 -0.271828 -0.962269
vn 0.172741 -0.127224 -0.976716
vn 0.307137 -0.049602 -0.950372
vn 0.964313 -0.194768 -0.179351
vn 0.958396 -0.229064 -0.170315
vn 0.988970 -0.114563 0.093880
vn 0.974397 0.032975 0.222404
vn 0.988709 0.120484 0.089101
vn 0.025517 -0.230865 0.972651
vn 0.049431 -0.305581 0.950882
vn 0.030853 0.725750 0.687266
vn 0.030853 0.725750 0.687266
vn -0.547551 0.829006 0.113741
vn -0.547551 0.829006 0.113741
vn 0.107062 0.715957 0.689886
vn 0.107062 0.715957 0.689886
vn 0.610131 0.782247 0.125814
vn 0.610131 0.782247 0.125814
vn -0.127104 0.593735 0.794558
vn -0.127104 0.593735 0.794559
vn 0.045271 0.643502 0.764104
vn 0.045271 0.643502 0.764104
vn -0.025441 0.690522 0.722864
vn -0.025441 0.690522 0.722863
vn 0.067471 0.701467 0.709501
vn 0.067471 0.701467 0.709501
vn -0.032547 0.608074 -0.793213
vn -0.032547 0.608074 -0.793213
vn -0.009109 0.555459 -0.831494
vn -0.009109 0.555459 -0.831494
vn 0.010760 0.567723 -0.823150
vn 0.010760 0.567723 -0.823150
vn -0.107018 0.663974 -0.740057
vn -0.107018 0.663974 -0.740057
vn -0.676763 0.724321 0.131724
vn -0.676763 0.724321 0.131724
vn 0.583356 0.799323 -0.144148
vn 0.583356 0.799323 -0.144148
vn 0.289786 0.756084 -0.586824
vn 0.289786 0.756084 -0.586824
vn -0.000002 0.639162 -0.769072
vn -0.000002 0.639162 -0.769072
vn -0.593529 0.754066 -0.281262
vn -0.593529 0.754066 -0.281262
vn 0.627810 0.774478 -0.077709
vn 0.627810 0.774478 -0.077709
vn -0.583534 0.764138 0.274921
vn -0.583534 0.764138 0.274921
vn 0.601159 0.765464 0.229507
vn 0.601159 0.765463 0.229507
vn -0.030498 -0.889995 0.454950
vn -0.030498 -0.889995 0.454950
vn -0.030498 -0.889995 0.454950
vn -0.030498 -0.889995 0.454950
vn -0.439530 -0.890714 0.115941
vn -0.439530 -0.890714 0.115941
vn -0.439530 -0.890714 0.115941
vn -0.439530 -0.890714 0.115941
vn 0.489497 -0.872005 0.000000
vn 0.489497 -0.872005 0.000000
vn 0.489497 -0.872005 0.000000
vn 0.489497 -0.872005 0.000000
vn 0.000000 -0.778334 0.627851
vn 0.000000 -0.778334 0.627851
vn 0.000000 -0.778334 0.627851
vn 0.000000 -0.778334 0.627851
vn 0.079209 -0.802934 0.590782
vn 0.079209 -0.802934 0.590782
vn 0.079209 -0.802934 0.590782
vn 0.079209 -0.802934 0.590782
vn -0.085523 -0.765371 0.637882
vn -0.085523 -0.765371 0.637882
vn -0.085523 -0.765371 0.637882
vn -0.085523 -0.765371 0.637882
vn 0.085523 -0.765377 0.637875
vn 0.085523 -0.765377 0.637874
vn 0.085523 -0.765377 0.637874
vn 0.085523 -0.765377 0.637874
vn -0.006296 -0.881668 0.471828
vn -0.006296 -0.881668 0.471828
vn -0.006296 -0.881668 0.471828
vn -0.006296 -0.881668 0.471828
vn 0.000000 -0.778335 -0.627849
vn 0.000000 -0.778335 -0.627849
vn 0.000000 -0.778335 -0.627849
vn 0.000000 -0.778335 -0.627849
vn -0.531350 -0.839264 0.115341
vn -0.531350 -0.839264 0.115341
vn -0.531350 -0.839264 0.115341
vn -0.531350 -0.839264 0.115341
vn 0.212627 -0.680239 -0.701473
vn 0.212627 -0.680239 -0.701473
vn 0.212627 -0.680239 -0.701473
vn 0.212627 -0.680239 -0.701473
vn -0.072340 -0.784689 -0.615655
vn -0.072340 -0.784689 -0.615655
vn -0.072340 -0.784689 -0.615655
vn -0.072340 -0.784689 -0.615655
vn -0.065765 -0.768892 -0.635987
vn -0.065765 -0.768892 -0.635987
vn -0.065765 -0.768892 -0.635987
vn -0.065765 -0.768892 -0.635987
vn -0.000001 -0.778333 -0.627852
vn -0.000001 -0.778333 -0.627852
vn -0.000001 -0.778333 -0.627852
vn -0.000001 -0.778333 -0.627852
vn 0.117975 -0.837179 -0.534054
vn 0.117975 -0.837179 -0.534054
vn 0.117975 -0.837179 -0.534054
vn 0.117975 -0.837179 -0.534054
vn 0.460274 -0.885014 -0.069981
vn 0.460274 -0.885014 -0.069981
vn 0.460274 -0.885014 -0.069981
vn 0.460274 -0.885014 -0.069981
vn -0.258951 -0.960193 -0.104757
vn -0.258951 -0.960193 -0.104757
vn -0.258951 -0.960193 -0.104757
vn -0.258951 -0.960193 -0.104757
vn 0.468240 -0.874112 -0.129150
vn 0.468241 -0.874112 -0.129150
vn 0.468240 -0.874112 -0.129150
vn 0.468240 -0.874112 -0.129150
vn -0.219072 -0.974930 0.038982
vn -0.219072 -0.974930 0.038982
vn -0.219072 -0.974930 0.038982
vn -0.219072 -0.974930 0.038982
vn 0.454257 -0.869411 0.194359
vn 0.454257 -0.869411 0.194359
vn 0.454257 -0.869411 0.194359
vn 0.454257 -0.869411 0.194359
s 1
g nj_ground_stone_steps_03
usemtl lambert51SG
f 1/1/1 28/2/2 64/3/3 65/4/4
s 2
f 81/5/5 82/6/6 83/7/7 84/8/8
s 3
f 69/11/9 70/12/10 27/13/11 7/14/12
s 4
f 116/9/13 117/10/14 118/19/15 119/24/16
s 5
f 2/15/17 39/16/18 78/17/19 79/18/20
s 6
f 38/20/21 1/1/22 65/4/23 66/21/24
s 2
f 85/22/25 86/23/26 87/25/27 88/26/28
s 3
f 11/27/29 74/28/30 75/30/31 8/31/32
s 4
f 121/29/33 120/34/34 122/39/35 123/47/36
s 1
f 80/32/37 12/33/38 2/15/39 79/18/40
s 2
f 89/35/41 85/22/25 88/26/28 90/36/42
s 3
f 15/37/43 73/38/44 74/28/30 11/27/29
s 4
f 125/48/45 124/49/46 120/34/34 121/29/33
s 1
f 80/32/37 61/40/47 16/41/48 12/33/38
s 2
f 91/42/49 89/35/41 90/36/42 92/43/50
s 3
f 19/44/51 72/45/52 73/38/44 15/37/43
s 4
f 127/50/53 126/51/54 124/49/46 125/48/45
s 1
f 62/46/55 20/54/56 16/41/48 61/40/47
s 2
f 93/55/57 91/42/49 92/43/50 94/56/58
s 3
f 23/57/59 71/58/60 72/45/52 19/44/51
s 4
f 129/52/61 128/53/62 126/51/54 127/50/53
s 1
f 63/59/63 24/60/64 20/54/56 62/46/55
s 2
f 82/6/6 93/55/57 94/56/58 83/7/7
s 3
f 27/13/11 70/12/10 71/58/60 23/57/59
s 4
f 118/19/15 117/10/14 128/53/62 129/52/61
s 1
f 64/3/3 28/2/2 24/60/64 63/59/63
s 2
f 96/61/65 95/62/66 97/63/67 98/64/68
f 99/72/69 96/61/65 98/64/68 100/73/70
f 101/74/71 99/72/69 100/73/70 102/75/72
f 103/76/73 101/74/71 102/75/72 104/77/74
s 6
f 7/14/75 30/78/76 68/79/77 69/11/78
s 4
f 130/65/79 131/66/80 132/67/81 133/68/82
f 134/69/83 132/67/81 131/66/80 135/70/84
f 136/71/85 134/69/83 135/70/84 137/83/86
f 138/84/87 136/71/85 137/83/86 139/85/88
f 140/86/89 138/84/87 139/85/88 141/87/90
f 142/88/91 140/86/89 141/87/90 143/89/92
s 5
f 76/80/93 31/81/94 8/31/95 75/30/96
s 2
f 106/82/97 105/90/98 107/91/99 108/92/100
f 95/62/66 106/82/97 108/92/100 97/63/67
f 110/93/101 109/94/102 95/62/66 96/61/65
f 111/95/103 110/93/101 96/61/65 99/72/69
f 112/96/104 111/95/103 99/72/69 101/74/71
f 113/97/105 112/96/104 101/74/71 103/76/73
s 6
f 30/78/76 34/98/106 67/99/107 68/79/77
s 4
f 133/68/82 132/67/81 144/158/108 145/159/109
f 146/160/110 144/158/108 132/67/81 134/69/83
f 147/161/111 146/160/110 134/69/83 136/71/85
f 148/162/112 147/161/111 136/71/85 138/84/87
f 149/163/113 148/162/112 138/84/87 140/86/89
f 150/164/114 149/163/113 140/86/89 142/88/91
s 5
f 77/100/115 35/101/116 31/81/94 76/80/93
s 2
f 115/102/117 114/103/118 105/90/98 106/82/97
f 109/94/102 115/102/117 106/82/97 95/62/66
f 92/43/50 90/36/42 109/94/102 110/93/101
f 94/56/58 92/43/50 110/93/101 111/95/103
f 83/7/7 94/56/58 111/95/103 112/96/104
f 84/8/8 83/7/7 112/96/104 113/97/105
s 6
f 34/98/106 38/20/21 66/21/24 67/99/107
s 4
f 145/159/109 144/158/108 117/10/14 116/9/13
f 128/53/62 117/10/14 144/158/108 146/160/110
f 126/51/54 128/53/62 146/160/110 147/161/111
f 124/49/46 126/51/54 147/161/111 148/162/112
f 120/34/34 124/49/46 148/162/112 149/163/113
f 122/39/35 120/34/34 149/163/113 150/164/114
s 5
f 78/17/19 39/16/18 35/101/116 77/100/115
s 2
f 88/26/28 87/25/27 114/103/118 115/102/117
f 90/36/42 88/26/28 115/102/117 109/94/102
s 16
f 17/104/119 42/105/120 41/106/121 13/107/122
f 21/108/123 43/109/124 42/105/120 17/104/119
f 25/110/125 44/111/126 43/109/124 21/108/123
f 45/112/127 44/111/126 25/110/125 3/113/128
s 17
f 46/114/129 45/112/130 3/113/131 37/115/132
f 47/116/133 46/114/129 37/115/132 33/117/134
f 48/118/135 47/116/133 33/117/134 29/119/136
f 49/120/137 48/118/135 29/119/136 5/121/138
s 18
f 5/121/139 26/122/140 50/123/141 49/120/142
f 51/124/143 50/123/141 26/122/140 22/125/144
f 52/126/145 51/124/143 22/125/144 18/127/146
f 53/128/147 52/126/145 18/127/146 14/129/148
f 54/130/149 53/128/147 14/129/148 10/131/150
f 55/132/151 54/130/149 10/131/150 6/133/152
s 19
f 32/134/153 56/135/154 55/132/155 6/133/156
f 36/136/157 57/137/158 56/135/154 32/134/153
f 40/138/159 58/139/160 57/137/158 36/136/157
f 59/140/161 58/139/160 40/138/159 4/141/162
s 16
f 9/142/163 60/143/164 59/140/165 4/141/166
f 13/107/122 41/106/121 60/143/164 9/142/163
s 1
f 42/105/167 62/46/55 61/40/47 41/106/168
f 43/109/169 63/59/63 62/46/55 42/105/167
f 44/111/170 64/3/3 63/59/63 43/109/169
f 65/4/4 64/3/3 44/111/170 45/112/171
s 6
f 66/21/24 65/4/23 45/112/172 46/114/173
f 67/99/107 66/21/24 46/114/173 47/116/174
f 68/79/77 67/99/107 47/116/174 48/118/175
f 69/11/78 68/79/77 48/118/175 49/120/176
s 3
f 49/120/177 50/123/178 70/12/10 69/11/9
f 71/58/60 70/12/10 50/123/178 51/124/179
f 72/45/52 71/58/60 51/124/179 52/126/180
f 73/38/44 72/45/52 52/126/180 53/128/181
f 74/28/30 73/38/44 53/128/181 54/130/182
f 75/30/31 74/28/30 54/130/182 55/132/183
s 5
f 56/135/184 76/80/93 75/30/96 55/132/185
f 57/137/186 77/100/115 76/80/93 56/135/184
f 58/139/187 78/17/19 77/100/115 57/137/186
f 79/18/20 78/17/19 58/139/187 59/140/188
s 1
f 60/143/189 80/32/37 79/18/40 59/140/190
f 60/143/189 41/106/168 61/40/47 80/32/37
s 2
f 3/113/191 25/110/192 82/6/6 81/5/5
f 37/115/193 3/113/194 81/5/5 84/8/8
f 9/142/195 4/141/196 86/23/26 85/22/25
f 4/141/197 40/138/198 87/25/27 86/23/26
f 13/107/199 9/142/200 85/22/25 89/35/41
f 17/104/201 13/107/202 89/35/41 91/42/49
f 21/108/203 17/104/204 91/42/49 93/55/57
f 25/110/205 21/108/206 93/55/57 82/6/6
f 14/129/207 18/127/208 98/64/68 97/63/67
f 18/127/209 22/125/210 100/73/70 98/64/68
f 22/125/211 26/122/212 102/75/72 100/73/70
f 26/122/213 5/121/214 104/77/74 102/75/72
f 5/121/215 29/119/216 103/76/73 104/77/74
f 32/134/217 6/133/218 107/91/99 105/90/98
f 6/133/219 10/131/220 108/92/100 107/91/99
f 10/131/221 14/129/222 97/63/67 108/92/100
f 29/119/223 33/117/224 113/97/105 103/76/73
f 36/136/225 32/134/226 105/90/98 114/103/118
f 33/117/227 37/115/228 84/8/8 113/97/105
f 40/138/229 36/136/230 114/103/118 87/25/27
s off
f 28/165/231 1/166/232 119/24/233 118/19/234
f 1/166/235 38/167/236 116/9/237 119/24/238
f 39/168/239 2/169/240 123/47/241 122/39/242
f 2/169/243 12/170/244 121/29/245 123/47/246
f 12/170/247 16/157/248 125/48/249 121/29/250
f 16/157/251 20/156/252 127/50/253 125/48/254
f 20/156/255 24/155/256 129/52/257 127/50/258
f 24/155/259 28/165/260 118/19/261 129/52/262
f 7/154/263 27/153/264 131/66/265 130/65/266
f 30/152/267 7/154/268 130/65/269 133/68/270
f 27/153/271 23/151/272 135/70/273 131/66/274
f 23/151/275 19/150/276 137/83/277 135/70/278
f 19/150/279 15/149/280 139/85/281 137/83/282
f 15/149/283 11/148/284 141/87/285 139/85/286
f 11/148/287 8/147/288 143/89/289 141/87/290
f 8/147/291 31/146/292 142/88/293 143/89/294
f 34/145/295 30/152/296 133/68/297 145/159/298
f 31/146/299 35/144/300 150/164/301 142/88/302
f 38/167/303 34/145/304 145/159/305 116/9/306
f 35/144/307 39/168/308 122/39/309 150/164/310
