# This file uses centimeters as units for non-parametric coordinates.

mtllib nj_ground_stone_steps_04.mtl
g default
v -18.218452 0.342653 10.844887
v 20.005657 0.518948 9.991674
v -18.120968 2.436967 11.282653
v 18.547974 2.189273 10.461772
v -20.205410 2.272627 -11.315791
v 20.368177 2.189273 -10.425172
v -19.737389 0.342653 -12.207483
v 20.005657 0.518948 -11.350022
v 14.462172 2.189273 12.289353
v 14.462172 2.189273 -12.994368
v 13.970092 0.518948 -12.508376
v 13.970092 0.518948 11.250608
v 7.280185 2.272627 12.392442
v 7.280185 2.272627 -14.966531
v 6.979252 0.342653 -14.406649
v 6.979252 0.342653 13.067191
v 0.000546 2.272627 13.612886
v 0.000546 2.272627 -16.193785
v 0.000000 0.342653 -13.067191
v 0.000000 0.342653 13.067191
v -7.279261 2.436967 12.392442
v -7.279261 2.272627 -14.873801
v -6.979210 0.342653 -13.067191
v -6.979210 0.342653 13.067191
v -13.062006 2.436967 12.866692
v -14.558858 2.272627 -14.692537
v -13.958505 0.342653 -14.905138
v -12.439569 0.342653 13.410953
v -20.328798 2.272627 -8.642910
v -19.405724 0.342653 -8.371542
v 20.933601 0.518948 -5.699866
v 21.561455 2.189273 -5.959469
v -22.949150 2.272627 -0.016828
v -21.125000 0.342653 0.000000
v 22.887730 0.342653 0.000000
v 22.577644 2.272627 -0.016828
v -21.159971 2.272627 7.136779
v -19.126411 0.342653 8.042880
v 20.005657 0.518948 5.600459
v 19.903049 2.189273 5.827316
v 7.433926 1.639269 13.071082
v 0.009152 1.639269 13.906832
v -7.415663 1.639269 13.071082
v -13.321501 1.639269 13.507616
v -18.835136 1.639269 11.528440
v -21.884090 1.639269 7.299915
v -23.019680 1.639269 0.005502
v -20.733091 1.639269 -8.783113
v -20.756350 1.639269 -11.961709
v -14.840394 1.639269 -15.209745
v -7.415663 1.639269 -14.736238
v 0.009152 1.639269 -16.075705
v 7.433926 1.639269 -15.235291
v 14.748578 1.640243 -13.224965
v 20.902702 1.640243 -11.088956
v 22.021584 1.640243 -6.055785
v 23.422882 1.639269 0.005502
v 20.584179 1.640243 5.965882
v 19.656277 1.640243 10.717791
v 14.748578 1.640243 12.366129
v 7.226321 0.768490 13.287453
v 0.004072 0.768490 13.524712
v -7.218218 0.768490 13.287453
v -12.921658 0.768490 13.657539
v -18.741766 0.768490 11.217365
v -21.292385 0.768490 7.107329
v -22.627647 0.768490 0.002450
v -20.130808 0.768490 -8.596631
v -20.374935 0.768490 -12.314682
v -14.440551 0.768490 -15.208998
v -7.218218 0.768490 -13.758394
v 0.004072 0.768490 -13.758398
v 7.226321 0.768490 -14.859282
v 14.393991 0.887206 -12.899797
v 20.564026 0.887206 -11.463903
v 21.546173 0.887206 -5.894516
v 23.390892 0.768490 0.002450
v 20.473639 0.887206 5.799340
v 20.210155 0.887206 10.387327
v 14.393991 0.887206 11.756811
v -16.776638 2.933168 10.571535
v -12.137042 2.933168 12.060092
v -12.137042 3.292946 5.189891
v -19.713455 2.933168 6.699159
v 13.649344 2.759189 11.492263
v 17.472000 2.759189 9.701311
v 18.739876 2.759189 5.446369
v 13.649344 3.070319 5.446369
v 6.776728 2.933168 11.589561
v 6.776728 3.292946 6.355411
v -0.034174 2.933168 12.731408
v -0.034174 3.292946 6.355411
v -6.845118 2.933168 11.589561
v -6.845118 3.292946 6.355411
v 6.776728 3.292946 -6.396579
v -0.034174 3.292946 -6.396579
v 6.776728 2.933168 -14.112041
v -0.034174 2.933168 -13.920794
v -6.845118 3.292946 -6.396579
v -6.845118 2.933168 -13.920794
v -13.656019 3.292946 -8.234523
v -13.656019 2.933168 -13.894567
v -18.934803 2.933168 -8.234523
v -18.845211 2.933168 -10.710160
v 20.363811 2.759189 -5.581378
v 13.649344 3.070319 -5.581378
v 19.174988 2.759189 -9.759504
v 13.649344 2.759189 -12.253594
v 6.776728 3.292946 -0.020581
v -0.034174 3.292946 -0.020581
v -6.845118 3.292946 -0.020581
v -13.656019 3.292946 -0.020581
v -21.636349 2.933168 -0.020581
v 21.241123 2.933168 -0.020581
v 13.587629 3.292946 -0.020581
v -16.738895 0.000000 7.634559
v -13.086187 0.000000 6.125291
v -11.567252 0.000000 12.594323
v -16.909975 0.000000 10.180069
v 13.086187 0.000000 6.125291
v 13.215704 0.222627 10.544411
v 18.874096 0.222627 5.247363
v 18.874096 0.222627 9.285478
v 6.543094 0.000000 6.125291
v 6.543094 0.000000 12.250575
v 0.000000 0.000000 6.125291
v 0.000000 0.000000 12.250575
v -6.543052 0.000000 6.125291
v -6.543052 0.000000 12.250575
v -18.428911 0.000000 -11.542662
v -13.086187 0.000000 -14.088515
v -13.086187 0.000000 -7.963234
v -18.097248 0.000000 -7.963234
v -6.543052 0.000000 -6.125278
v -6.543052 0.000000 -12.250562
v 0.000000 0.000000 -6.125278
v 0.000000 0.000000 -12.250572
v 6.543094 0.000000 -6.125278
v 6.543094 0.000000 -13.590033
v 13.086187 0.000000 -6.125278
v 13.215704 0.222627 -11.802172
v 19.802040 0.222627 -5.346765
v 18.874096 0.222627 -10.643815
v -13.086187 0.000000 0.000000
v -17.826668 0.000000 -0.369177
v -6.543052 0.000000 0.000000
v 0.000000 0.000000 0.000000
v 6.543094 0.000000 0.000000
v 16.105965 0.000000 0.000000
v 21.579296 0.000000 0.000000
vt 0.134508 0.253453
vt 0.182504 0.241432
vt 0.180036 0.245436
vt 0.136203 0.258825
vt 0.156540 0.273614
vt 0.187003 0.264376
vt 0.119934 0.175608
vt 0.147553 0.164767
vt 0.157998 0.213519
vt 0.118263 0.194687
vt 0.186767 0.312835
vt 0.134948 0.300431
vt 0.126761 0.450522
vt 0.171394 0.466548
vt 0.173543 0.470829
vt 0.126311 0.455227
vt 0.344074 0.201320
vt 0.406263 0.257246
vt 0.343817 0.168193
vt 0.433677 0.292445
vt 0.427735 0.294701
vt 0.387025 0.162403
vt 0.403648 0.258927
vt 0.386584 0.192629
vt 0.106890 0.270257
vt 0.112234 0.290497
vt 0.293988 0.213311
vt 0.357223 0.264844
vt 0.294749 0.167336
vt 0.384633 0.273682
vt 0.401230 0.305275
vt 0.244873 0.212453
vt 0.361603 0.308277
vt 0.245682 0.166480
vt 0.364744 0.462327
vt 0.365829 0.457499
vt 0.195760 0.211595
vt 0.406794 0.445685
vt 0.196617 0.165624
vt 0.406794 0.449622
vt 0.364761 0.248026
vt 0.363596 0.242842
vt 0.311827 0.265903
vt 0.313450 0.303768
vt 0.314747 0.471781
vt 0.315458 0.467168
vt 0.110208 0.031983
vt 0.150529 0.013706
vt 0.149629 0.059378
vt 0.112140 0.058725
vt 0.198326 0.073953
vt 0.199179 0.028253
vt 0.247295 0.074806
vt 0.314728 0.245522
vt 0.313186 0.241907
vt 0.266658 0.260685
vt 0.267509 0.304762
vt 0.267516 0.483939
vt 0.267696 0.478553
vt 0.266678 0.242737
vt 0.266584 0.238550
vt 0.221591 0.266624
vt 0.221993 0.304774
vt 0.222060 0.477628
vt 0.248099 0.029104
vt 0.296265 0.075659
vt 0.297186 0.019973
vt 0.345237 0.076512
vt 0.346655 0.034480
vt 0.395108 0.083410
vt 0.388751 0.043834
vt 0.220486 0.471916
vt 0.218616 0.245751
vt 0.220122 0.242298
vt 0.267913 0.394357
vt 0.313567 0.395076
vt 0.311243 0.448543
vt 0.267724 0.445181
vt 0.222217 0.395457
vt 0.223302 0.449053
vt 0.175643 0.409465
vt 0.178667 0.448880
vt 0.148457 0.118888
vt 0.113003 0.115507
vt 0.197473 0.119743
vt 0.246489 0.120598
vt 0.295508 0.121452
vt 0.367152 0.122702
vt 0.408161 0.123417
vt 0.135510 0.411830
vt 0.139861 0.430862
vt 0.097795 0.424316
vt 0.106002 0.422200
vt 0.438034 0.405289
vt 0.444812 0.407805
vt 0.361612 0.391588
vt 0.412267 0.395311
vt 0.396812 0.426423
vt 0.357902 0.440161
vt 0.267988 0.349702
vt 0.314407 0.349625
vt 0.221872 0.350063
vt 0.175228 0.349977
vt 0.116959 0.347799
vt 0.080449 0.346118
vt 0.093435 0.346200
vt 0.449365 0.349338
vt 0.454589 0.348523
vt 0.362082 0.349764
vt 0.420655 0.350020
vt 0.266835 0.253482
vt 0.266835 0.248962
vt 0.316108 0.251811
vt 0.315192 0.258408
vt 0.218615 0.259685
vt 0.217550 0.252190
vt 0.180663 0.258154
vt 0.178365 0.251597
vt 0.140660 0.263391
vt 0.147033 0.267428
vt 0.118224 0.293912
vt 0.124253 0.296263
vt 0.100753 0.346429
vt 0.105557 0.346881
vt 0.115451 0.419385
vt 0.121994 0.416688
vt 0.127340 0.444093
vt 0.130540 0.437779
vt 0.172657 0.455476
vt 0.170321 0.460629
vt 0.219508 0.462455
vt 0.220655 0.457792
vt 0.268280 0.463240
vt 0.268164 0.459541
vt 0.315667 0.460504
vt 0.314419 0.455933
vt 0.365832 0.451208
vt 0.363351 0.447125
vt 0.406737 0.439573
vt 0.404023 0.433281
vt 0.423808 0.400330
vt 0.430071 0.402596
vt 0.433281 0.350039
vt 0.442198 0.349922
vt 0.412637 0.300087
vt 0.420403 0.297078
vt 0.397869 0.261361
vt 0.390885 0.265695
vt 0.362338 0.258094
vt 0.364738 0.254685
vt 0.151668 0.219402
vt 0.108826 0.199436
vt 0.102469 0.178358
vt 0.395038 0.165230
vt 0.394566 0.198010
vt 0.349359 0.206629
vt 0.297010 0.219366
vt 0.244789 0.218454
vt 0.192572 0.217541
vt 0.101035 0.027364
vt 0.144491 0.008082
vt 0.102916 0.055919
vt 0.196219 0.022633
vt 0.248219 0.023537
vt 0.300385 0.014496
vt 0.352075 0.029755
vt 0.396852 0.039129
vt 0.403160 0.081207
vt 0.088789 0.118041
vt 0.417408 0.123771
vn -0.261945 -0.750371 0.606901
vn -0.074466 -0.587023 0.806138
vn -0.151310 -0.257697 0.954305
vn -0.340159 -0.406090 0.848164
vn -0.070676 0.991902 0.105524
vn -0.015635 0.991343 0.130362
vn -0.020248 0.999525 0.023236
vn -0.111859 0.992384 0.051581
vn -0.448272 -0.178282 -0.875938
vn -0.113023 -0.482047 -0.868825
vn 0.025712 -0.710468 -0.703259
vn -0.304349 -0.707784 -0.637506
vn 0.000000 -1.000000 0.000000
vn 0.000000 -1.000000 0.000000
vn 0.000000 -1.000000 0.000000
vn 0.000000 -1.000000 0.000000
vn 0.729647 -0.683489 0.021411
vn 0.624138 -0.750004 0.218965
vn 0.887321 -0.348516 0.301991
vn 0.992664 0.050029 0.110070
vn -0.279707 -0.954555 0.102904
vn -0.328951 -0.929892 0.164597
vn -0.604869 -0.699887 0.379856
vn -0.508543 -0.845016 0.165327
vn 0.044530 0.986352 0.158516
vn 0.123456 0.986539 0.107238
vn 0.116424 0.990876 0.067900
vn 0.034592 0.998620 0.039528
vn 0.171734 -0.760515 -0.626198
vn 0.225975 -0.505466 -0.832730
vn 0.262517 -0.211125 -0.941547
vn 0.150852 -0.688121 -0.709741
vn 0.021191 -0.999519 0.022636
vn 0.012110 -0.999831 0.013858
vn 0.022869 -0.999315 0.029097
vn 0.024279 -0.999369 0.025935
vn 0.172432 -0.554697 0.813989
vn 0.155107 -0.764677 0.625469
vn 0.127035 -0.809786 0.572808
vn 0.180380 -0.681689 0.709058
vn 0.027023 0.989264 0.143622
vn 0.013867 0.999299 0.034780
vn 0.003387 -0.792932 -0.609301
vn 0.069639 -0.758817 -0.647570
vn 0.008257 -0.999927 0.008821
vn 0.004148 -0.999982 0.004431
vn 0.113942 -0.400484 0.909192
vn 0.074727 -0.674100 0.734850
vn 0.001787 0.986726 0.162384
vn 0.000000 0.999564 0.029523
vn -0.045561 -0.825478 -0.562593
vn -0.035285 -0.852717 -0.521180
vn 0.000000 -1.000000 0.000000
vn 0.000000 -1.000000 0.000000
vn -0.000139 -0.308436 0.951245
vn -0.000054 -0.624977 0.780644
vn -0.010486 0.991556 0.129252
vn -0.002328 0.999519 0.030919
vn 0.049449 -0.809846 -0.584555
vn 0.031289 -0.788212 -0.614608
vn 0.000000 -1.000000 0.000000
vn 0.000000 -1.000000 0.000000
vn -0.003721 -0.173584 0.984812
vn 0.005751 -0.579000 0.815308
vn -0.000181 0.999667 -0.025786
vn 0.014148 0.999444 -0.030207
vn 0.026992 0.992035 -0.123036
vn -0.001115 0.993786 -0.111306
vn 0.001427 0.999720 -0.023617
vn -0.002273 0.992445 -0.122667
vn -0.021184 0.999455 -0.025336
vn -0.029812 0.984921 -0.170418
vn -0.112704 0.993100 -0.032423
vn -0.143479 0.979798 -0.139318
vn -0.536723 -0.842766 0.040911
vn -0.383283 -0.921396 -0.064214
vn -0.640244 -0.760052 -0.111396
vn -0.727441 -0.685098 0.038355
vn 0.000000 -1.000000 0.000000
vn 0.000000 -1.000000 0.000000
vn 0.000000 -1.000000 0.000000
vn 0.000000 -1.000000 0.000000
vn 0.000000 -1.000000 0.000000
vn 0.000000 -1.000000 0.000000
vn 0.000000 -1.000000 0.000000
vn 0.000000 -1.000000 0.000000
vn 0.004685 -0.999981 -0.004107
vn 0.009235 -0.999925 -0.008095
vn 0.012344 -0.999842 -0.012821
vn 0.019961 -0.999627 -0.018643
vn 0.020558 -0.999464 -0.025474
vn 0.021400 -0.999533 -0.021834
vn 0.763014 -0.617376 -0.191458
vn 0.531446 -0.834223 -0.147096
vn 0.513772 -0.853456 -0.087468
vn 0.700395 -0.701731 -0.130461
vn 0.033349 0.998856 -0.034275
vn 0.107824 0.993025 -0.047711
vn 0.099328 0.989311 -0.106760
vn 0.059687 0.990968 -0.120087
vn 0.000000 1.000000 0.000000
vn 0.008438 0.999964 0.000000
vn 0.000000 1.000000 -0.000000
vn -0.029057 0.999577 0.001296
vn -0.146054 0.989265 -0.004909
vn -0.286718 -0.957988 -0.007196
vn -0.586405 -0.809263 -0.034966
vn 0.000000 -1.000000 0.000000
vn 0.000000 -1.000000 0.000000
vn 0.000000 -1.000000 0.000000
vn 0.000000 -1.000000 0.000000
vn 0.000000 -1.000000 0.000000
vn 0.011469 -0.999934 -0.000000
vn 0.020974 -0.999778 -0.001922
vn 0.864470 -0.496113 0.081022
vn 0.573255 -0.817471 0.055855
vn 0.032638 0.999467 0.000706
vn 0.139237 0.990151 0.014643
vn -0.005089 0.592252 0.805737
vn -0.002735 0.592787 0.805355
vn 0.080102 0.583793 0.807941
vn 0.083751 0.587652 0.804768
vn -0.032134 0.595792 0.802495
vn -0.020759 0.599987 0.799740
vn -0.076540 0.617200 0.783075
vn -0.111373 0.612760 0.782382
vn -0.258986 0.585159 0.768450
vn -0.258986 0.585159 0.768450
vn -0.731331 0.622829 0.277920
vn -0.582308 0.702277 0.409541
vn -0.582308 0.702277 0.409541
vn -0.707966 0.638613 0.301592
vn -0.885991 0.461037 -0.049656
vn -0.887704 0.456479 -0.060063
vn -0.878476 0.441505 -0.182628
vn -0.882641 0.427644 -0.195105
vn -0.794279 0.607402 -0.013592
vn -0.794279 0.607402 -0.013592
vn -0.330537 0.746948 -0.576900
vn -0.175660 0.561081 -0.808908
vn -0.213990 0.610657 -0.762435
vn -0.330537 0.746948 -0.576900
vn -0.065963 0.087807 -0.993951
vn -0.094441 0.020513 -0.995319
vn -0.019384 -0.022561 -0.999558
vn -0.021369 -0.024540 -0.999470
vn 0.197251 0.316449 -0.927875
vn 0.188180 0.287810 -0.939018
vn 0.250930 0.621952 -0.741761
vn 0.248140 0.569558 -0.783601
vn 0.253113 0.717660 -0.648766
vn 0.253113 0.717660 -0.648766
vn 0.665525 0.731387 -0.148825
vn 0.665485 0.731443 -0.148735
vn 0.672154 0.722108 -0.163612
vn 0.672154 0.722108 -0.163612
vn 0.624880 0.775351 0.091413
vn 0.629360 0.773803 0.071654
vn 0.537926 0.819370 0.198166
vn 0.542642 0.813761 0.208164
vn 0.499541 0.857728 0.121500
vn 0.499541 0.857728 0.121500
vn 0.115472 0.566550 0.815897
vn 0.179188 0.579271 0.795196
vn 0.289706 0.595150 0.749578
vn 0.289706 0.595150 0.749578
vn 0.000254 -0.103141 0.994667
vn 0.116603 -0.205626 0.971659
vn 0.000036 0.069823 0.997559
vn -0.214849 -0.040444 0.975809
vn -0.356961 -0.185803 0.915454
vn -0.746145 -0.438418 0.501056
vn -0.826533 -0.483813 0.287696
vn -0.858749 -0.508931 -0.059491
vn -0.851279 -0.502412 -0.151346
vn -0.868828 -0.493967 0.033685
vn -0.460017 -0.026867 -0.887503
vn -0.232193 -0.222354 -0.946913
vn 0.017640 -0.758727 -0.651170
vn -0.027028 -0.864084 -0.502621
vn 0.096054 -0.708149 -0.699499
vn 0.262839 -0.278227 -0.923854
vn 0.277089 -0.095947 -0.956042
vn 0.900230 -0.378634 -0.214995
vn 0.876437 -0.449105 -0.173677
vn 0.967380 -0.232207 0.101276
vn 0.951813 0.044049 0.303499
vn 0.962290 0.242758 0.122748
vn 0.194684 -0.391541 0.899330
vn 0.235867 -0.491793 0.838157
vn -0.127441 0.906611 0.402263
vn -0.127441 0.906611 0.402263
vn -0.301339 0.931110 0.205497
vn -0.301339 0.931110 0.205497
vn 0.191252 0.888093 0.417989
vn 0.191252 0.888093 0.417989
vn 0.401793 0.908024 0.118555
vn 0.401793 0.908024 0.118555
vn 0.023195 0.801611 0.597396
vn 0.023195 0.801611 0.597396
vn 0.099614 0.798144 0.594175
vn 0.099614 0.798144 0.594175
vn -0.082651 0.830547 0.550782
vn -0.082651 0.830547 0.550782
vn 0.047161 0.831969 0.552815
vn 0.047161 0.831969 0.552815
vn 0.028295 0.922554 -0.384828
vn 0.028295 0.922554 -0.384828
vn -0.035129 0.926357 -0.375004
vn -0.035129 0.926357 -0.375004
vn -0.008805 0.801470 -0.597971
vn -0.008805 0.801469 -0.597971
vn -0.251958 0.873711 -0.416109
vn -0.251958 0.873711 -0.416109
vn -0.427120 0.904022 -0.017669
vn -0.427120 0.904022 -0.017669
vn 0.389311 0.914837 -0.107288
vn 0.389311 0.914837 -0.107288
vn 0.193306 0.878724 -0.436437
vn 0.193306 0.878724 -0.436437
vn 0.156794 0.840378 -0.518826
vn 0.156794 0.840378 -0.518826
vn -0.418708 0.898429 -0.132323
vn -0.418708 0.898429 -0.132323
vn 0.424222 0.901076 -0.089986
vn 0.424222 0.901076 -0.089986
vn -0.414670 0.903182 0.110953
vn -0.414670 0.903182 0.110953
vn 0.406415 0.890112 0.206222
vn 0.406415 0.890112 0.206222
vn -0.119403 -0.956371 0.266641
vn -0.119403 -0.956371 0.266641
vn -0.119403 -0.956371 0.266641
vn -0.119403 -0.956371 0.266641
vn -0.175467 -0.984188 0.024179
vn -0.175467 -0.984188 0.024179
vn -0.175467 -0.984188 0.024179
vn -0.175467 -0.984188 0.024179
vn 0.253328 -0.967381 0.000000
vn 0.253328 -0.967381 0.000000
vn 0.253328 -0.967381 0.000000
vn 0.253328 -0.967381 0.000000
vn 0.066570 -0.948672 0.309175
vn 0.066570 -0.948672 0.309175
vn 0.066570 -0.948672 0.309175
vn 0.066570 -0.948672 0.309175
vn 0.107933 -0.944021 0.311730
vn 0.107933 -0.944021 0.311730
vn 0.107933 -0.944021 0.311730
vn 0.107933 -0.944021 0.311730
vn 0.000000 -0.922113 0.386920
vn 0.000000 -0.922113 0.386920
vn 0.000000 -0.922113 0.386920
vn 0.000000 -0.922113 0.386920
vn 0.000000 -0.922113 0.386920
vn 0.000000 -0.922113 0.386920
vn 0.000000 -0.922113 0.386920
vn 0.000000 -0.922113 0.386920
vn 0.026543 -0.914025 0.404789
vn 0.026543 -0.914025 0.404789
vn 0.026543 -0.914025 0.404789
vn 0.026543 -0.914025 0.404789
vn -0.123251 -0.957324 -0.261418
vn -0.123251 -0.957324 -0.261418
vn -0.123251 -0.957324 -0.261418
vn -0.123251 -0.957324 -0.261418
vn -0.262252 -0.964714 0.023459
vn -0.262252 -0.964714 0.023459
vn -0.262252 -0.964714 0.023459
vn -0.262252 -0.964714 0.023459
vn 0.127451 -0.874035 -0.468849
vn 0.127451 -0.874035 -0.468849
vn 0.127451 -0.874035 -0.468849
vn 0.127451 -0.874035 -0.468849
vn -0.000000 -0.922115 -0.386917
vn -0.000000 -0.922115 -0.386917
vn -0.000000 -0.922115 -0.386917
vn -0.000000 -0.922115 -0.386917
vn -0.079991 -0.911358 -0.403768
vn -0.079991 -0.911358 -0.403768
vn -0.079991 -0.911358 -0.403768
vn -0.079991 -0.911358 -0.403768
vn 0.111057 -0.944409 -0.309449
vn 0.111057 -0.944409 -0.309449
vn 0.111057 -0.944409 -0.309449
vn 0.111057 -0.944409 -0.309449
vn 0.062271 -0.947271 -0.314323
vn 0.062271 -0.947271 -0.314323
vn 0.062271 -0.947271 -0.314323
vn 0.062271 -0.947271 -0.314323
vn 0.235589 -0.971032 -0.039940
vn 0.235589 -0.971032 -0.039940
vn 0.235589 -0.971032 -0.039940
vn 0.235589 -0.971032 -0.039940
vn -0.147016 -0.989044 -0.013340
vn -0.147016 -0.989044 -0.013340
vn -0.147016 -0.989044 -0.013340
vn -0.147016 -0.989044 -0.013340
vn 0.236111 -0.964945 -0.114601
vn 0.236111 -0.964945 -0.114601
vn 0.236111 -0.964945 -0.114601
vn 0.236111 -0.964945 -0.114601
vn -0.116609 -0.992925 0.022428
vn -0.116609 -0.992925 0.022428
vn -0.116609 -0.992925 0.022428
vn -0.116609 -0.992925 0.022428
vn 0.229477 -0.961128 0.153539
vn 0.229477 -0.961128 0.153539
vn 0.229477 -0.961127 0.153539
vn 0.229477 -0.961128 0.153539
s 1
g nj_ground_stone_steps_04
usemtl lambert51SG
f 1/1/1 28/2/2 64/3/3 65/4/4
s 2
f 81/5/5 82/6/6 83/11/7 84/12/8
s 3
f 69/13/9 70/14/10 27/15/11 7/16/12
s 4
f 116/7/13 117/8/14 118/9/15 119/10/16
s 5
f 2/18/17 39/20/18 78/21/19 79/23/20
s 6
f 38/25/21 1/1/22 65/4/23 66/26/24
s 2
f 85/28/25 86/30/26 87/31/27 88/33/28
s 3
f 11/35/29 74/36/30 75/38/31 8/40/32
s 4
f 121/17/33 120/19/34 122/22/35 123/24/36
s 1
f 80/41/37 12/42/38 2/18/39 79/23/40
s 2
f 89/43/41 85/28/25 88/33/28 90/44/42
s 3
f 15/45/43 73/46/44 74/36/30 11/35/29
s 4
f 125/27/45 124/29/46 120/19/34 121/17/33
s 1
f 80/41/37 61/54/47 16/55/48 12/42/38
s 2
f 91/56/49 89/43/41 90/44/42 92/57/50
s 3
f 19/58/51 72/59/52 73/46/44 15/45/43
s 4
f 127/32/53 126/34/54 124/29/46 125/27/45
s 1
f 62/60/55 20/61/56 16/55/48 61/54/47
s 2
f 93/62/57 91/56/49 92/57/50 94/63/58
s 3
f 23/64/59 71/72/60 72/59/52 19/58/51
s 4
f 129/37/61 128/39/62 126/34/54 127/32/53
s 1
f 63/73/63 24/74/64 20/61/56 62/60/55
s 2
f 82/6/6 93/62/57 94/63/58 83/11/7
s 3
f 27/15/11 70/14/10 71/72/60 23/64/59
s 4
f 118/9/15 117/8/14 128/39/62 129/37/61
s 1
f 64/3/3 28/2/2 24/74/64 63/73/63
s 2
f 96/75/65 95/76/66 97/77/67 98/78/68
f 99/79/69 96/75/65 98/78/68 100/80/70
f 101/81/71 99/79/69 100/80/70 102/82/72
f 103/90/73 101/81/71 102/82/72 104/91/74
s 6
f 7/16/75 30/92/76 68/93/77 69/13/78
s 4
f 130/47/79 131/48/80 132/49/81 133/50/82
f 134/51/83 132/49/81 131/48/80 135/52/84
f 136/53/85 134/51/83 135/52/84 137/65/86
f 138/66/87 136/53/85 137/65/86 139/67/88
f 140/68/89 138/66/87 139/67/88 141/69/90
f 142/70/91 140/68/89 141/69/90 143/71/92
s 5
f 76/94/93 31/95/94 8/40/95 75/38/96
s 2
f 106/96/97 105/97/98 107/98/99 108/99/100
f 95/76/66 106/96/97 108/99/100 97/77/67
f 110/100/101 109/101/102 95/76/66 96/75/65
f 111/102/103 110/100/101 96/75/65 99/79/69
f 112/103/104 111/102/103 99/79/69 101/81/71
f 113/104/105 112/103/104 101/81/71 103/90/73
s 6
f 30/92/76 34/105/106 67/106/107 68/93/77
s 4
f 133/50/82 132/49/81 144/83/108 145/84/109
f 146/85/110 144/83/108 132/49/81 134/51/83
f 147/86/111 146/85/110 134/51/83 136/53/85
f 148/87/112 147/86/111 136/53/85 138/66/87
f 149/88/113 148/87/112 138/66/87 140/68/89
f 150/89/114 149/88/113 140/68/89 142/70/91
s 5
f 77/107/115 35/108/116 31/95/94 76/94/93
s 2
f 115/109/117 114/110/118 105/97/98 106/96/97
f 109/101/102 115/109/117 106/96/97 95/76/66
f 92/57/50 90/44/42 109/101/102 110/100/101
f 94/63/58 92/57/50 110/100/101 111/102/103
f 83/11/7 94/63/58 111/102/103 112/103/104
f 84/12/8 83/11/7 112/103/104 113/104/105
s 6
f 34/105/106 38/25/21 66/26/24 67/106/107
s 4
f 145/84/109 144/83/108 117/8/14 116/7/13
f 128/39/62 117/8/14 144/83/108 146/85/110
f 126/34/54 128/39/62 146/85/110 147/86/111
f 124/29/46 126/34/54 147/86/111 148/87/112
f 120/19/34 124/29/46 148/87/112 149/88/113
f 122/22/35 120/19/34 149/88/113 150/89/114
s 5
f 78/21/19 39/20/18 35/108/116 77/107/115
s 2
f 88/33/28 87/31/27 114/110/118 115/109/117
f 90/44/42 88/33/28 115/109/117 109/101/102
s 16
f 17/111/119 42/112/120 41/113/121 13/114/122
f 21/115/123 43/116/124 42/112/120 17/111/119
f 25/117/125 44/118/126 43/116/124 21/115/123
f 45/119/127 44/118/126 25/117/125 3/120/128
s 17
f 46/121/129 45/119/130 3/120/131 37/122/132
f 47/123/133 46/121/129 37/122/132 33/124/134
f 48/125/135 47/123/133 33/124/134 29/126/136
f 49/127/137 48/125/135 29/126/136 5/128/138
s 18
f 5/128/139 26/129/140 50/130/141 49/127/142
f 51/131/143 50/130/141 26/129/140 22/132/144
f 52/133/145 51/131/143 22/132/144 18/134/146
f 53/135/147 52/133/145 18/134/146 14/136/148
f 54/137/149 53/135/147 14/136/148 10/138/150
f 55/139/151 54/137/149 10/138/150 6/140/152
s 19
f 32/141/153 56/142/154 55/139/155 6/140/156
f 36/143/157 57/144/158 56/142/154 32/141/153
f 40/145/159 58/146/160 57/144/158 36/143/157
f 59/147/161 58/146/160 40/145/159 4/148/162
s 16
f 9/149/163 60/150/164 59/147/165 4/148/166
f 13/114/122 41/113/121 60/150/164 9/149/163
s 1
f 42/112/167 62/60/55 61/54/47 41/113/168
f 43/116/169 63/73/63 62/60/55 42/112/167
f 44/118/170 64/3/3 63/73/63 43/116/169
f 65/4/4 64/3/3 44/118/170 45/119/171
s 6
f 66/26/24 65/4/23 45/119/172 46/121/173
f 67/106/107 66/26/24 46/121/173 47/123/174
f 68/93/77 67/106/107 47/123/174 48/125/175
f 69/13/78 68/93/77 48/125/175 49/127/176
s 3
f 49/127/177 50/130/178 70/14/10 69/13/9
f 71/72/60 70/14/10 50/130/178 51/131/179
f 72/59/52 71/72/60 51/131/179 52/133/180
f 73/46/44 72/59/52 52/133/180 53/135/181
f 74/36/30 73/46/44 53/135/181 54/137/182
f 75/38/31 74/36/30 54/137/182 55/139/183
s 5
f 56/142/184 76/94/93 75/38/96 55/139/185
f 57/144/186 77/107/115 76/94/93 56/142/184
f 58/146/187 78/21/19 77/107/115 57/144/186
f 79/23/20 78/21/19 58/146/187 59/147/188
s 1
f 60/150/189 80/41/37 79/23/40 59/147/190
f 60/150/189 41/113/168 61/54/47 80/41/37
s 2
f 3/120/191 25/117/192 82/6/6 81/5/5
f 37/122/193 3/120/194 81/5/5 84/12/8
f 9/149/195 4/148/196 86/30/26 85/28/25
f 4/148/197 40/145/198 87/31/27 86/30/26
f 13/114/199 9/149/200 85/28/25 89/43/41
f 17/111/201 13/114/202 89/43/41 91/56/49
f 21/115/203 17/111/204 91/56/49 93/62/57
f 25/117/205 21/115/206 93/62/57 82/6/6
f 14/136/207 18/134/208 98/78/68 97/77/67
f 18/134/209 22/132/210 100/80/70 98/78/68
f 22/132/211 26/129/212 102/82/72 100/80/70
f 26/129/213 5/128/214 104/91/74 102/82/72
f 5/128/215 29/126/216 103/90/73 104/91/74
f 32/141/217 6/140/218 107/98/99 105/97/98
f 6/140/219 10/138/220 108/99/100 107/98/99
f 10/138/221 14/136/222 97/77/67 108/99/100
f 29/126/223 33/124/224 113/104/105 103/90/73
f 36/143/225 32/141/226 105/97/98 114/110/118
f 33/124/227 37/122/228 84/12/8 113/104/105
f 40/145/229 36/143/230 114/110/118 87/31/27
s off
f 28/151/231 1/152/232 119/10/233 118/9/234
f 1/152/235 38/153/236 116/7/237 119/10/238
f 39/154/239 2/155/240 123/24/241 122/22/242
f 2/155/243 12/156/244 121/17/245 123/24/246
f 12/156/247 16/157/248 125/27/249 121/17/250
f 16/157/251 20/158/252 127/32/253 125/27/254
f 20/158/255 24/159/256 129/37/257 127/32/258
f 24/159/259 28/151/260 118/9/261 129/37/262
f 7/160/263 27/161/264 131/48/265 130/47/266
f 30/162/267 7/160/268 130/47/269 133/50/270
f 27/161/271 23/163/272 135/52/273 131/48/274
f 23/163/275 19/164/276 137/65/277 135/52/278
f 19/164/279 15/165/280 139/67/281 137/65/282
f 15/165/283 11/166/284 141/69/285 139/67/286
f 11/166/287 8/167/288 143/71/289 141/69/290
f 8/167/291 31/168/292 142/70/293 143/71/294
f 34/169/295 30/162/296 133/50/297 145/84/298
f 31/168/299 35/170/300 150/89/301 142/70/302
f 38/153/303 34/169/304 145/84/305 116/7/306
f 35/170/307 39/154/308 122/22/309 150/89/310
