# This file uses centimeters as units for non-parametric coordinates.

mtllib nj_ground_stone_steps_01.mtl
g default
v -23.928837 0.342653 11.590927
v 23.928837 0.342653 11.590927
v -24.119944 2.438795 12.270050
v 22.367802 2.272030 12.270050
v -24.801311 2.272030 -10.780561
v 24.808746 2.272030 -10.780561
v -23.928837 0.342653 -11.590928
v 23.928837 0.342653 -11.590928
v 16.888557 2.272030 12.861927
v 16.888557 2.272030 -12.266573
v 15.952559 0.342653 -11.590928
v 15.952559 0.342653 11.590927
v 8.446150 2.272030 11.171514
v 8.446150 2.272030 -12.266573
v 7.976279 0.342653 -11.590928
v 7.976279 0.342653 11.590927
v 0.003742 2.272030 12.270050
v 0.003742 2.272030 -13.371239
v 0.000000 0.342653 -11.590928
v 0.000000 0.342653 11.590927
v -8.438713 2.438795 11.171514
v -8.438713 2.272030 -13.371239
v -7.976232 0.342653 -11.590927
v -7.976232 0.342653 11.590926
v -16.881071 2.438795 11.293476
v -16.881071 2.272030 -11.577774
v -15.952559 0.342653 -11.590927
v -15.952559 0.342653 11.590926
v -25.323528 2.272030 -6.132418
v -23.928837 0.342653 -5.795464
v 23.928837 0.342653 -5.795464
v 25.182705 2.272030 -6.132418
v -24.699879 2.272030 0.001739
v -23.928837 0.342653 0.000000
v 23.928837 0.342653 0.000000
v 23.958345 2.272030 0.001739
v -26.272432 2.272030 6.135893
v -23.928837 0.342653 5.795464
v 23.928837 0.342653 5.795464
v 24.185051 2.272030 6.135893
v 8.495905 1.639269 11.594377
v 0.010460 1.639269 12.335705
v -8.474986 1.639269 11.594377
v -16.960432 1.639269 11.676680
v -24.633524 1.639269 12.335705
v -26.086220 1.639269 6.170291
v -25.024994 1.639269 0.004877
v -25.445782 1.639269 -6.160538
v -25.093367 1.639269 -11.323144
v -16.960432 1.639269 -11.861127
v -8.474986 1.639269 -13.071420
v 0.010460 1.639269 -13.071420
v 8.495905 1.639269 -12.325954
v 16.981350 1.639269 -12.325954
v 25.114382 1.639269 -11.323144
v 25.366661 1.639269 -6.160538
v 24.540394 1.639269 0.004877
v 24.693451 1.639269 6.170291
v 23.467125 1.639269 12.335705
v 16.981350 1.639269 12.735125
v 8.258691 0.768490 11.786303
v 0.004654 0.768490 11.996756
v -8.249383 0.768490 11.786303
v -16.503468 0.768490 11.809667
v -24.526911 0.768490 11.996756
v -24.939301 0.768490 5.999463
v -24.638033 0.768490 0.002169
v -24.757504 0.768490 -5.995125
v -24.657467 0.768490 -11.707736
v -16.503468 0.768490 -11.860462
v -8.249383 0.768490 -12.204045
v 0.004654 0.768490 -12.204046
v 8.258691 0.768490 -11.992419
v 16.512775 0.768490 -11.992419
v 24.666775 0.768490 -11.707736
v 24.738409 0.768490 -5.995124
v 24.503834 0.768490 0.002169
v 24.547302 0.768490 5.999462
v 24.199158 0.768490 11.996756
v 16.512775 0.768490 12.110145
v -22.281006 2.933168 11.293080
v -15.606813 2.933168 10.392682
v -15.606813 3.292946 5.637407
v -24.265564 2.933168 5.637407
v 15.528702 2.933168 11.838787
v 20.580538 2.933168 11.293080
v 22.256054 2.933168 5.637407
v 15.528702 3.292946 5.637407
v 7.744823 2.933168 10.280231
v 7.744823 3.292946 5.637407
v -0.039056 2.933168 11.293080
v -0.039056 3.292946 5.637407
v -7.822935 2.933168 10.280231
v -7.822935 3.292946 5.637407
v 7.744823 3.292946 -5.673932
v -0.039056 3.292946 -5.673932
v 7.744823 2.933168 -11.329601
v -0.039056 2.933168 -12.348097
v -7.822935 3.292946 -5.673932
v -7.822935 2.933168 -12.348097
v -15.606813 3.292946 -5.673932
v -15.606813 2.933168 -10.694530
v -23.390694 2.933168 -5.673932
v -22.909161 2.933168 -9.959505
v 23.175884 2.933168 -5.673932
v 15.528702 3.292946 -5.673932
v 22.831099 2.933168 -9.959505
v 15.528702 2.933168 -11.329601
v 7.744823 3.292946 -0.018261
v -0.039056 3.292946 -0.018261
v -7.822935 3.292946 -0.018261
v -15.606813 3.292946 -0.018261
v -22.815649 2.933168 -0.018261
v 22.046959 2.933168 -0.018261
v 15.528702 3.292946 -0.018261
v -22.433392 0.000000 5.433283
v -14.955626 0.000000 5.433283
v -14.955626 0.000000 10.866565
v -22.433392 0.000000 10.866565
v 14.955626 0.000000 5.433283
v 14.955626 0.000000 10.866565
v 22.433439 0.000000 5.433283
v 22.433439 0.000000 10.866565
v 7.477813 0.000000 5.433283
v 7.477813 0.000000 10.866565
v 0.000000 0.000000 5.433283
v 0.000000 0.000000 10.866565
v -7.477765 0.000000 5.433283
v -7.477765 0.000000 10.866565
v -22.433392 0.000000 -10.866566
v -14.955626 0.000000 -10.866566
v -14.955626 0.000000 -5.433283
v -22.433392 0.000000 -5.433283
v -7.477765 0.000000 -5.433283
v -7.477765 0.000000 -10.866566
v 0.000000 0.000000 -5.433283
v 0.000000 0.000000 -10.866566
v 7.477813 0.000000 -5.433283
v 7.477813 0.000000 -10.866566
v 14.955626 0.000000 -5.433283
v 14.955626 0.000000 -10.866566
v 22.433439 0.000000 -5.433283
v 22.433439 0.000000 -10.866566
v -14.955626 0.000000 0.000000
v -22.433392 0.000000 0.000000
v -7.477765 0.000000 0.000000
v 0.000000 0.000000 0.000000
v 7.477813 0.000000 0.000000
v 14.955626 0.000000 0.000000
v 22.433439 0.000000 0.000000
vt 0.566074 0.776012
vt 0.618015 0.783548
vt 0.614203 0.786241
vt 0.565733 0.779069
vt 0.579482 0.794522
vt 0.618594 0.805099
vt 0.615437 0.837678
vt 0.556960 0.829075
vt 0.547573 0.724476
vt 0.598587 0.724824
vt 0.560171 0.974135
vt 0.610179 0.972160
vt 0.613499 0.975611
vt 0.561970 0.977326
vt 0.865278 0.775812
vt 0.905465 0.822095
vt 0.897326 0.823046
vt 0.863588 0.777885
vt 0.598010 0.762043
vt 0.518656 0.811631
vt 0.528653 0.814621
vt 0.812014 0.798567
vt 0.842489 0.796680
vt 0.546865 0.761699
vt 0.865236 0.835757
vt 0.815387 0.840980
vt 0.808519 0.983847
vt 0.812359 0.980525
vt 0.802476 0.763420
vt 0.862335 0.984726
vt 0.860333 0.987900
vt 0.816359 0.780368
vt 0.812251 0.776501
vt 0.802533 0.726213
vt 0.763386 0.809592
vt 0.764393 0.841805
vt 0.760157 0.978992
vt 0.761942 0.975314
vt 0.853491 0.726560
vt 0.765539 0.791072
vt 0.763585 0.788240
vt 0.714885 0.805615
vt 0.714563 0.841952
vt 0.711850 0.983044
vt 0.711713 0.978412
vt 0.715205 0.789046
vt 0.853565 0.763764
vt 0.751377 0.763076
vt 0.751563 0.725866
vt 0.700265 0.762732
vt 0.700583 0.725519
vt 0.649144 0.762387
vt 0.649591 0.725171
vt 0.715176 0.785450
vt 0.666524 0.809291
vt 0.665202 0.840430
vt 0.662931 0.982812
vt 0.661599 0.978038
vt 0.664823 0.791103
vt 0.666578 0.788243
vt 0.712969 0.916859
vt 0.762394 0.919424
vt 0.759664 0.957498
vt 0.711404 0.959431
vt 0.549675 0.613937
vt 0.600302 0.614294
vt 0.599733 0.650951
vt 0.548978 0.650597
vt 0.650478 0.651304
vt 0.650919 0.614651
vt 0.701212 0.651658
vt 0.663813 0.916242
vt 0.665008 0.958999
vt 0.613773 0.918243
vt 0.615810 0.953278
vt 0.558801 0.923872
vt 0.570530 0.954648
vt 0.518104 0.937959
vt 0.527351 0.936089
vt 0.897530 0.948428
vt 0.906534 0.950493
vt 0.812665 0.923770
vt 0.701524 0.615008
vt 0.751934 0.652012
vt 0.752118 0.615364
vt 0.802646 0.652365
vt 0.802702 0.615721
vt 0.853346 0.652719
vt 0.853274 0.616078
vt 0.866732 0.933967
vt 0.853293 0.963892
vt 0.807457 0.962283
vt 0.713937 0.879469
vt 0.764260 0.880784
vt 0.663949 0.878408
vt 0.612923 0.877615
vt 0.558870 0.875877
vt 0.512151 0.874211
vt 0.521491 0.874185
vt 0.905395 0.886242
vt 0.913556 0.886207
vt 0.816161 0.882599
vt 0.866798 0.884864
vt 0.715227 0.798456
vt 0.715271 0.794635
vt 0.767490 0.796733
vt 0.767407 0.801870
vt 0.663070 0.802482
vt 0.663166 0.796709
vt 0.611297 0.797336
vt 0.611157 0.791521
vt 0.567371 0.782638
vt 0.570283 0.786411
vt 0.539067 0.817897
vt 0.543160 0.819973
vt 0.531672 0.874144
vt 0.538978 0.874525
vt 0.536931 0.934036
vt 0.542175 0.932049
vt 0.559391 0.968365
vt 0.560410 0.963191
vt 0.608231 0.961675
vt 0.607643 0.966411
vt 0.660881 0.970536
vt 0.661537 0.966395
vt 0.711482 0.971004
vt 0.711302 0.966802
vt 0.763528 0.969533
vt 0.763395 0.965323
vt 0.815384 0.974879
vt 0.814981 0.970859
vt 0.863593 0.978957
vt 0.862972 0.973690
vt 0.883202 0.943948
vt 0.888411 0.946307
vt 0.887103 0.885795
vt 0.896029 0.886196
vt 0.882186 0.827201
vt 0.889001 0.824569
vt 0.857902 0.782067
vt 0.851601 0.786359
vt 0.819961 0.790304
vt 0.820002 0.786280
vt 0.862987 0.689688
vt 0.538896 0.687454
vt 0.862884 0.650580
vt 0.862782 0.611682
vt 0.809088 0.611303
vt 0.755382 0.610924
vt 0.701662 0.610545
vt 0.647931 0.610166
vt 0.539666 0.648325
vt 0.594187 0.609786
vt 0.540431 0.609407
vt 0.646013 0.767079
vt 0.700327 0.767444
vt 0.754629 0.767809
vt 0.599162 0.687793
vt 0.548278 0.687443
vt 0.650036 0.688144
vt 0.700898 0.688495
vt 0.751749 0.688845
vt 0.802589 0.689195
vt 0.853418 0.689546
vt 0.591685 0.766714
vt 0.537345 0.766348
vt 0.538123 0.726795
vt 0.863090 0.729007
vt 0.863194 0.768539
vt 0.808918 0.768174
vn 0.009500 -0.582977 0.812433
vn 0.003302 -0.473276 0.880908
vn 0.017824 -0.151412 0.988310
vn 0.045110 -0.208811 0.976915
vn -0.057217 0.990121 0.128014
vn -0.006924 0.991749 0.128012
vn -0.017297 0.999546 0.024690
vn -0.113328 0.993524 0.008166
vn -0.038244 0.119667 -0.992077
vn -0.051324 -0.363500 -0.930179
vn -0.013566 -0.676436 -0.736377
vn -0.008576 -0.423752 -0.905738
vn 0.000000 -1.000000 0.000000
vn 0.000000 -1.000000 0.000000
vn 0.000000 -1.000000 0.000000
vn 0.000000 -1.000000 0.000000
vn 0.684468 -0.728763 0.020207
vn 0.621367 -0.783494 0.006284
vn 0.948442 -0.314926 0.035777
vn 0.993044 0.042211 0.109914
vn -0.452791 -0.891616 0.000529
vn -0.463066 -0.886176 0.016193
vn -0.699728 -0.708794 0.089401
vn -0.649574 -0.760268 0.006853
vn -0.009152 0.985494 0.169465
vn 0.094276 0.988002 0.122326
vn 0.125367 0.991878 0.021465
vn 0.018107 0.999522 0.025070
vn 0.003415 -0.653866 -0.756603
vn 0.021236 -0.372668 -0.927722
vn 0.071477 -0.084154 -0.993886
vn 0.014894 -0.536277 -0.843910
vn 0.000000 -1.000000 0.000000
vn 0.000000 -1.000000 0.000000
vn 0.000000 -1.000000 0.000000
vn 0.000000 -1.000000 0.000000
vn -0.027775 -0.480353 0.876635
vn -0.009371 -0.666333 0.745595
vn 0.004886 -0.737855 0.674942
vn 0.019297 -0.610281 0.791950
vn 0.001886 0.988438 0.151613
vn -0.000576 0.999460 0.032865
vn 0.005625 -0.741583 -0.670838
vn 0.019406 -0.582379 -0.812685
vn 0.000000 -1.000000 0.000000
vn 0.000000 -1.000000 0.000000
vn -0.005024 -0.329936 0.943990
vn 0.001756 -0.597928 0.801548
vn 0.001621 0.984938 0.172901
vn 0.000000 0.999446 0.033279
vn 0.003924 -0.796697 -0.604366
vn 0.015294 -0.705904 -0.708142
vn 0.000000 -1.000000 0.000000
vn 0.000000 -1.000000 0.000000
vn -0.000126 -0.277195 0.960814
vn -0.000053 -0.578997 0.815330
vn -0.008504 0.988586 0.150420
vn -0.000983 0.999422 0.033986
vn -0.005034 -0.790580 -0.612338
vn -0.023837 -0.677723 -0.734931
vn 0.000000 -1.000000 0.000000
vn 0.000000 -1.000000 0.000000
vn -0.021340 -0.160332 0.986832
vn -0.006908 -0.536194 0.844066
vn 0.000974 0.999556 -0.029782
vn 0.001017 0.999516 -0.031092
vn 0.009729 0.989593 -0.143564
vn 0.007894 0.989549 -0.143982
vn -0.001603 0.999543 -0.030178
vn -0.010690 0.988757 -0.149147
vn -0.019368 0.999512 -0.024524
vn -0.029905 0.989230 -0.143285
vn -0.107752 0.994117 -0.010977
vn -0.083659 0.983676 -0.159322
vn -0.479169 -0.877713 -0.004165
vn -0.482472 -0.875911 0.001012
vn -0.702345 -0.711827 0.003601
vn -0.672060 -0.740243 -0.019399
vn 0.000000 -1.000000 0.000000
vn 0.000000 -1.000000 0.000000
vn 0.000000 -1.000000 0.000000
vn 0.000000 -1.000000 0.000000
vn 0.000000 -1.000000 0.000000
vn 0.000000 -1.000000 0.000000
vn 0.000000 -1.000000 0.000000
vn 0.000000 -1.000000 0.000000
vn 0.000000 -1.000000 0.000000
vn 0.000000 -1.000000 0.000000
vn 0.000000 -1.000000 0.000000
vn 0.000000 -1.000000 0.000000
vn 0.000000 -1.000000 0.000000
vn 0.000000 -1.000000 0.000000
vn 0.749541 -0.661643 0.020417
vn 0.505807 -0.862636 0.004439
vn 0.481683 -0.876341 -0.002998
vn 0.679672 -0.733382 -0.014066
vn 0.018470 0.999540 -0.024042
vn 0.110776 0.993838 -0.003951
vn 0.089187 0.985816 -0.142172
vn 0.014923 0.987094 -0.159445
vn 0.000000 1.000000 0.000000
vn 0.000000 1.000000 0.000000
vn 0.000000 1.000000 0.000000
vn -0.023207 0.999730 -0.000897
vn -0.097775 0.995193 -0.005613
vn -0.464215 -0.885715 -0.003564
vn -0.664698 -0.746928 -0.016619
vn 0.000000 -1.000000 0.000000
vn 0.000000 -1.000000 0.000000
vn 0.000000 -1.000000 0.000000
vn 0.000000 -1.000000 0.000000
vn 0.000000 -1.000000 0.000000
vn 0.000000 -1.000000 0.000000
vn 0.000000 -1.000000 0.000000
vn 0.837663 -0.545729 0.022376
vn 0.551896 -0.833901 0.004484
vn 0.024573 0.999698 0.000999
vn 0.110628 0.993837 0.007053
vn -0.005903 0.343104 0.939279
vn -0.003959 0.343489 0.939148
vn -0.034341 0.286120 0.957578
vn -0.020549 0.294240 0.955511
vn -0.040032 0.392687 0.918801
vn -0.039117 0.393735 0.918391
vn 0.050242 0.363020 0.930426
vn 0.057250 0.347143 0.936063
vn 0.106053 0.232086 0.966897
vn 0.106053 0.232086 0.966897
vn -0.981753 0.179933 0.061518
vn -0.934191 0.232429 0.270674
vn -0.934191 0.232429 0.270674
vn -0.983507 0.175311 0.044496
vn -0.973417 0.219514 -0.065366
vn -0.972681 0.224488 -0.059128
vn -0.941163 0.337916 0.004962
vn -0.941260 0.337552 0.009376
vn -0.935328 0.343815 -0.083385
vn -0.935328 0.343815 -0.083385
vn -0.068710 0.559317 -0.826102
vn -0.125720 0.302692 -0.944760
vn -0.121416 0.324801 -0.937957
vn -0.068710 0.559317 -0.826102
vn -0.090643 -0.216875 -0.971982
vn -0.080404 -0.242010 -0.966937
vn 0.052794 -0.310285 -0.949177
vn 0.050529 -0.315510 -0.947576
vn 0.051974 -0.039008 -0.997886
vn 0.056984 -0.051876 -0.997027
vn 0.078131 0.306058 -0.948802
vn 0.066072 0.273574 -0.959579
vn 0.136022 0.460153 -0.877358
vn 0.136022 0.460153 -0.877358
vn 0.884629 0.462338 0.060625
vn 0.887362 0.457946 0.053611
vn 0.921809 0.383154 -0.058841
vn 0.921809 0.383154 -0.058841
vn 0.804394 0.591821 0.051957
vn 0.806883 0.588011 0.056425
vn 0.677480 0.731667 0.075397
vn 0.679723 0.729839 0.072890
vn 0.605755 0.781404 0.149896
vn 0.605755 0.781404 0.149896
vn -0.072985 0.144038 0.986877
vn -0.052703 0.129308 0.990203
vn 0.082530 0.029611 0.996149
vn 0.082531 0.029611 0.996149
vn 0.000228 -0.091590 0.995797
vn -0.026783 -0.160512 0.986671
vn -0.020044 0.071507 0.997239
vn 0.036537 0.004799 0.999321
vn 0.053556 -0.100167 0.993528
vn -0.788547 -0.602970 0.120919
vn -0.775471 -0.630972 0.022811
vn -0.802267 -0.596308 -0.028027
vn -0.847116 -0.531407 -0.000301
vn -0.841653 -0.538883 -0.035016
vn -0.041560 0.194729 -0.979976
vn -0.060020 -0.060483 -0.996363
vn -0.040387 -0.597227 -0.801055
vn 0.021414 -0.647213 -0.762008
vn 0.021659 -0.459280 -0.888027
vn 0.049724 -0.145275 -0.988141
vn 0.078799 -0.012230 -0.996816
vn 0.893794 -0.447915 0.022474
vn 0.851907 -0.523079 -0.025374
vn 0.972166 -0.231736 0.034516
vn 0.990788 0.119199 0.064273
vn 0.950927 0.283873 0.123098
vn -0.011891 -0.383432 0.923493
vn 0.031716 -0.480338 0.876510
vn 0.075511 0.825233 0.559722
vn 0.075511 0.825233 0.559722
vn -0.259518 0.962628 0.077449
vn -0.259518 0.962628 0.077449
vn 0.053067 0.869395 0.491260
vn 0.053067 0.869395 0.491260
vn 0.302142 0.949051 0.089510
vn 0.302142 0.949051 0.089510
vn -0.131177 0.744038 0.655134
vn -0.131177 0.744038 0.655134
vn 0.072452 0.827480 0.556801
vn 0.072452 0.827480 0.556801
vn -0.057847 0.856890 0.512244
vn -0.057847 0.856890 0.512244
vn 0.007061 0.872384 0.488770
vn 0.007061 0.872384 0.488770
vn 0.070565 0.839154 -0.539297
vn 0.070565 0.839154 -0.539297
vn 0.000000 0.839905 -0.542734
vn 0.000000 0.839905 -0.542734
vn -0.105023 0.862881 -0.494376
vn -0.105023 0.862881 -0.494375
vn -0.054987 0.835791 -0.546287
vn -0.054987 0.835791 -0.546287
vn -0.315891 0.948131 -0.035492
vn -0.315891 0.948131 -0.035492
vn 0.307701 0.951161 -0.024755
vn 0.307701 0.951161 -0.024755
vn 0.090623 0.870915 -0.483005
vn 0.090623 0.870915 -0.483005
vn 0.000000 0.817072 -0.576536
vn 0.000000 0.817072 -0.576536
vn -0.330589 0.943176 0.033612
vn -0.330589 0.943176 0.033612
vn 0.325599 0.943272 0.064991
vn 0.325599 0.943272 0.064991
vn -0.330701 0.939920 -0.084779
vn -0.330701 0.939920 -0.084779
vn 0.326987 0.944952 -0.012087
vn 0.326987 0.944952 -0.012087
vn 0.000000 -0.903962 0.427612
vn 0.000000 -0.903962 0.427612
vn 0.000000 -0.903962 0.427612
vn 0.000000 -0.903962 0.427612
vn -0.223343 -0.974740 0.000000
vn -0.223343 -0.974740 0.000000
vn -0.223343 -0.974740 0.000000
vn -0.223343 -0.974740 0.000000
vn 0.223350 -0.974738 0.000000
vn 0.223350 -0.974738 0.000000
vn 0.223350 -0.974738 0.000000
vn 0.223350 -0.974738 0.000000
vn 0.000000 -0.903963 0.427612
vn 0.000000 -0.903963 0.427612
vn 0.000000 -0.903963 0.427612
vn 0.000000 -0.903963 0.427612
vn 0.000000 -0.903962 0.427612
vn 0.000000 -0.903963 0.427612
vn 0.000000 -0.903963 0.427612
vn 0.000000 -0.903962 0.427612
vn 0.000000 -0.903963 0.427612
vn 0.000000 -0.903963 0.427612
vn 0.000000 -0.903963 0.427612
vn 0.000000 -0.903963 0.427612
vn -0.000000 -0.903962 0.427612
vn -0.000000 -0.903962 0.427612
vn -0.000000 -0.903962 0.427612
vn -0.000000 -0.903962 0.427612
vn 0.000000 -0.903962 0.427612
vn 0.000000 -0.903962 0.427612
vn 0.000000 -0.903962 0.427612
vn 0.000000 -0.903962 0.427612
vn 0.000000 -0.903962 -0.427612
vn 0.000000 -0.903962 -0.427612
vn 0.000000 -0.903962 -0.427612
vn 0.000000 -0.903962 -0.427612
vn -0.223343 -0.974740 0.000000
vn -0.223343 -0.974740 0.000000
vn -0.223343 -0.974740 0.000000
vn -0.223343 -0.974740 0.000000
vn 0.000000 -0.903962 -0.427612
vn 0.000000 -0.903962 -0.427612
vn 0.000000 -0.903962 -0.427612
vn 0.000000 -0.903962 -0.427612
vn 0.000000 -0.903962 -0.427612
vn 0.000000 -0.903962 -0.427612
vn 0.000000 -0.903962 -0.427612
vn 0.000000 -0.903962 -0.427612
vn 0.000000 -0.903963 -0.427612
vn 0.000000 -0.903963 -0.427612
vn 0.000000 -0.903963 -0.427612
vn 0.000000 -0.903963 -0.427612
vn 0.000000 -0.903963 -0.427612
vn 0.000000 -0.903962 -0.427612
vn 0.000000 -0.903962 -0.427612
vn 0.000000 -0.903963 -0.427612
vn 0.000000 -0.903963 -0.427612
vn 0.000000 -0.903963 -0.427612
vn 0.000000 -0.903963 -0.427612
vn 0.000000 -0.903963 -0.427612
vn 0.223350 -0.974738 0.000000
vn 0.223350 -0.974738 0.000000
vn 0.223350 -0.974738 0.000000
vn 0.223350 -0.974738 0.000000
vn -0.223344 -0.974740 0.000000
vn -0.223343 -0.974740 0.000000
vn -0.223343 -0.974740 0.000000
vn -0.223344 -0.974740 0.000000
vn 0.223350 -0.974738 0.000000
vn 0.223350 -0.974738 0.000000
vn 0.223350 -0.974738 0.000000
vn 0.223350 -0.974738 0.000000
vn -0.223343 -0.974740 0.000000
vn -0.223343 -0.974740 0.000000
vn -0.223343 -0.974740 0.000000
vn -0.223343 -0.974740 0.000000
vn 0.223350 -0.974738 0.000000
vn 0.223350 -0.974738 0.000000
vn 0.223350 -0.974738 0.000000
vn 0.223350 -0.974738 0.000000
s 1
g nj_ground_stone_steps_01
usemtl lambert51SG
f 1/1/1 28/2/2 64/3/3 65/4/4
s 2
f 81/5/5 82/6/6 83/7/7 84/8/8
s 3
f 69/11/9 70/12/10 27/13/11 7/14/12
s 4
f 116/9/13 117/10/14 118/19/15 119/24/16
s 5
f 2/15/17 39/16/18 78/17/19 79/18/20
s 6
f 38/20/21 1/1/22 65/4/23 66/21/24
s 2
f 85/22/25 86/23/26 87/25/27 88/26/28
s 3
f 11/27/29 74/28/30 75/30/31 8/31/32
s 4
f 121/29/33 120/34/34 122/39/35 123/47/36
s 1
f 80/32/37 12/33/38 2/15/39 79/18/40
s 2
f 89/35/41 85/22/25 88/26/28 90/36/42
s 3
f 15/37/43 73/38/44 74/28/30 11/27/29
s 4
f 125/48/45 124/49/46 120/34/34 121/29/33
s 1
f 80/32/37 61/40/47 16/41/48 12/33/38
s 2
f 91/42/49 89/35/41 90/36/42 92/43/50
s 3
f 19/44/51 72/45/52 73/38/44 15/37/43
s 4
f 127/50/53 126/51/54 124/49/46 125/48/45
s 1
f 62/46/55 20/54/56 16/41/48 61/40/47
s 2
f 93/55/57 91/42/49 92/43/50 94/56/58
s 3
f 23/57/59 71/58/60 72/45/52 19/44/51
s 4
f 129/52/61 128/53/62 126/51/54 127/50/53
s 1
f 63/59/63 24/60/64 20/54/56 62/46/55
s 2
f 82/6/6 93/55/57 94/56/58 83/7/7
s 3
f 27/13/11 70/12/10 71/58/60 23/57/59
s 4
f 118/19/15 117/10/14 128/53/62 129/52/61
s 1
f 64/3/3 28/2/2 24/60/64 63/59/63
s 2
f 96/61/65 95/62/66 97/63/67 98/64/68
f 99/72/69 96/61/65 98/64/68 100/73/70
f 101/74/71 99/72/69 100/73/70 102/75/72
f 103/76/73 101/74/71 102/75/72 104/77/74
s 6
f 7/14/75 30/78/76 68/79/77 69/11/78
s 4
f 130/65/79 131/66/80 132/67/81 133/68/82
f 134/69/83 132/67/81 131/66/80 135/70/84
f 136/71/85 134/69/83 135/70/84 137/83/86
f 138/84/87 136/71/85 137/83/86 139/85/88
f 140/86/89 138/84/87 139/85/88 141/87/90
f 142/88/91 140/86/89 141/87/90 143/89/92
s 5
f 76/80/93 31/81/94 8/31/95 75/30/96
s 2
f 106/82/97 105/90/98 107/91/99 108/92/100
f 95/62/66 106/82/97 108/92/100 97/63/67
f 110/93/101 109/94/102 95/62/66 96/61/65
f 111/95/103 110/93/101 96/61/65 99/72/69
f 112/96/104 111/95/103 99/72/69 101/74/71
f 113/97/105 112/96/104 101/74/71 103/76/73
s 6
f 30/78/76 34/98/106 67/99/107 68/79/77
s 4
f 133/68/82 132/67/81 144/158/108 145/159/109
f 146/160/110 144/158/108 132/67/81 134/69/83
f 147/161/111 146/160/110 134/69/83 136/71/85
f 148/162/112 147/161/111 136/71/85 138/84/87
f 149/163/113 148/162/112 138/84/87 140/86/89
f 150/164/114 149/163/113 140/86/89 142/88/91
s 5
f 77/100/115 35/101/116 31/81/94 76/80/93
s 2
f 115/102/117 114/103/118 105/90/98 106/82/97
f 109/94/102 115/102/117 106/82/97 95/62/66
f 92/43/50 90/36/42 109/94/102 110/93/101
f 94/56/58 92/43/50 110/93/101 111/95/103
f 83/7/7 94/56/58 111/95/103 112/96/104
f 84/8/8 83/7/7 112/96/104 113/97/105
s 6
f 34/98/106 38/20/21 66/21/24 67/99/107
s 4
f 145/159/109 144/158/108 117/10/14 116/9/13
f 128/53/62 117/10/14 144/158/108 146/160/110
f 126/51/54 128/53/62 146/160/110 147/161/111
f 124/49/46 126/51/54 147/161/111 148/162/112
f 120/34/34 124/49/46 148/162/112 149/163/113
f 122/39/35 120/34/34 149/163/113 150/164/114
s 5
f 78/17/19 39/16/18 35/101/116 77/100/115
s 2
f 88/26/28 87/25/27 114/103/118 115/102/117
f 90/36/42 88/26/28 115/102/117 109/94/102
s 16
f 17/104/119 42/105/120 41/106/121 13/107/122
f 21/108/123 43/109/124 42/105/120 17/104/119
f 25/110/125 44/111/126 43/109/124 21/108/123
f 45/112/127 44/111/126 25/110/125 3/113/128
s 17
f 46/114/129 45/112/130 3/113/131 37/115/132
f 47/116/133 46/114/129 37/115/132 33/117/134
f 48/118/135 47/116/133 33/117/134 29/119/136
f 49/120/137 48/118/135 29/119/136 5/121/138
s 18
f 5/121/139 26/122/140 50/123/141 49/120/142
f 51/124/143 50/123/141 26/122/140 22/125/144
f 52/126/145 51/124/143 22/125/144 18/127/146
f 53/128/147 52/126/145 18/127/146 14/129/148
f 54/130/149 53/128/147 14/129/148 10/131/150
f 55/132/151 54/130/149 10/131/150 6/133/152
s 19
f 32/134/153 56/135/154 55/132/155 6/133/156
f 36/136/157 57/137/158 56/135/154 32/134/153
f 40/138/159 58/139/160 57/137/158 36/136/157
f 59/140/161 58/139/160 40/138/159 4/141/162
s 16
f 9/142/163 60/143/164 59/140/165 4/141/166
f 13/107/122 41/106/121 60/143/164 9/142/163
s 1
f 42/105/167 62/46/55 61/40/47 41/106/168
f 43/109/169 63/59/63 62/46/55 42/105/167
f 44/111/170 64/3/3 63/59/63 43/109/169
f 65/4/4 64/3/3 44/111/170 45/112/171
s 6
f 66/21/24 65/4/23 45/112/172 46/114/173
f 67/99/107 66/21/24 46/114/173 47/116/174
f 68/79/77 67/99/107 47/116/174 48/118/175
f 69/11/78 68/79/77 48/118/175 49/120/176
s 3
f 49/120/177 50/123/178 70/12/10 69/11/9
f 71/58/60 70/12/10 50/123/178 51/124/179
f 72/45/52 71/58/60 51/124/179 52/126/180
f 73/38/44 72/45/52 52/126/180 53/128/181
f 74/28/30 73/38/44 53/128/181 54/130/182
f 75/30/31 74/28/30 54/130/182 55/132/183
s 5
f 56/135/184 76/80/93 75/30/96 55/132/185
f 57/137/186 77/100/115 76/80/93 56/135/184
f 58/139/187 78/17/19 77/100/115 57/137/186
f 79/18/20 78/17/19 58/139/187 59/140/188
s 1
f 60/143/189 80/32/37 79/18/40 59/140/190
f 60/143/189 41/106/168 61/40/47 80/32/37
s 2
f 3/113/191 25/110/192 82/6/6 81/5/5
f 37/115/193 3/113/194 81/5/5 84/8/8
f 9/142/195 4/141/196 86/23/26 85/22/25
f 4/141/197 40/138/198 87/25/27 86/23/26
f 13/107/199 9/142/200 85/22/25 89/35/41
f 17/104/201 13/107/202 89/35/41 91/42/49
f 21/108/203 17/104/204 91/42/49 93/55/57
f 25/110/205 21/108/206 93/55/57 82/6/6
f 14/129/207 18/127/208 98/64/68 97/63/67
f 18/127/209 22/125/210 100/73/70 98/64/68
f 22/125/211 26/122/212 102/75/72 100/73/70
f 26/122/213 5/121/214 104/77/74 102/75/72
f 5/121/215 29/119/216 103/76/73 104/77/74
f 32/134/217 6/133/218 107/91/99 105/90/98
f 6/133/219 10/131/220 108/92/100 107/91/99
f 10/131/221 14/129/222 97/63/67 108/92/100
f 29/119/223 33/117/224 113/97/105 103/76/73
f 36/136/225 32/134/226 105/90/98 114/103/118
f 33/117/227 37/115/228 84/8/8 113/97/105
f 40/138/229 36/136/230 114/103/118 87/25/27
s off
f 28/165/231 1/166/232 119/24/233 118/19/234
f 1/166/235 38/167/236 116/9/237 119/24/238
f 39/168/239 2/169/240 123/47/241 122/39/242
f 2/169/243 12/170/244 121/29/245 123/47/246
f 12/170/247 16/157/248 125/48/249 121/29/250
f 16/157/251 20/156/252 127/50/253 125/48/254
f 20/156/255 24/155/256 129/52/257 127/50/258
f 24/155/259 28/165/260 118/19/261 129/52/262
f 7/154/263 27/153/264 131/66/265 130/65/266
f 30/152/267 7/154/268 130/65/269 133/68/270
f 27/153/271 23/151/272 135/70/273 131/66/274
f 23/151/275 19/150/276 137/83/277 135/70/278
f 19/150/279 15/149/280 139/85/281 137/83/282
f 15/149/283 11/148/284 141/87/285 139/85/286
f 11/148/287 8/147/288 143/89/289 141/87/290
f 8/147/291 31/146/292 142/88/293 143/89/294
f 34/145/295 30/152/296 133/68/297 145/159/298
f 31/146/299 35/144/300 150/164/301 142/88/302
f 38/167/303 34/145/304 145/159/305 116/9/306
f 35/144/307 39/168/308 122/39/309 150/164/310
